<svg width="16" height="12" viewBox="0 0 16 12" fill="none" xmlns="http://www.w3.org/2000/svg">
<path d="M0.666666 5.40008H13.9663L8.87367 1.03453C8.607 0.805937 8.59667 0.426141 8.85067 0.186144C9.10433 -0.053553 9.52633 -0.063153 9.79333 0.165444L15.6093 5.15138C15.861 5.37818 16 5.67938 16 6.00007C16 6.32047 15.861 6.62197 15.5977 6.85866L9.793 11.8344C9.664 11.9451 9.49867 12 9.33333 12C9.15733 12 8.98133 11.9376 8.85033 11.8137C8.59633 11.5737 8.60667 11.1942 8.87333 10.9656L13.9873 6.60007H0.666666C0.298666 6.60007 0 6.33127 0 6.00007C0 5.66888 0.298666 5.40008 0.666666 5.40008Z" fill="white"/>
</svg>
