<svg width="16" height="17" viewBox="0 0 16 17" fill="none" xmlns="http://www.w3.org/2000/svg">
<path d="M11.1875 0.0692139H12.8125V0.87338C12.8833 0.87338 12.9375 0.87338 12.9958 0.87338C13.4958 0.87338 13.9958 0.865047 14.4917 0.881714C15.1667 0.902547 15.7583 1.38588 15.9375 2.03588V2.04005C15.9792 2.19005 16 2.34005 16 2.49421V14.5692C16 14.6192 15.9917 14.6734 15.9792 14.7192C15.7667 15.515 15.0458 16.0734 14.2208 16.0734C11.1375 16.0734 8.05833 16.0734 4.975 16.0734C3.85417 16.0734 2.7375 16.0775 1.61667 16.0734C0.9 16.0692 0.295833 15.6317 0.0791667 14.965C0.025 14.8067 0 14.64 0 14.4692C0 10.44 0 6.41088 0 2.38171C0 2.31921 0.00833333 2.25671 0.025 2.19838V2.19421C0.191667 1.46088 0.7625 0.902547 1.50417 0.877547C2.00833 0.86088 2.51667 0.873381 3.02083 0.869214C3.075 0.869214 3.12917 0.865047 3.1875 0.86088V0.0692139H4.8125V0.856714H11.1875V0.0692139ZM14.3917 14.465C14.3917 11.7942 14.3917 9.14005 14.3917 6.48588C10.1208 6.48588 5.86667 6.48588 1.6125 6.48588C1.6125 9.15255 1.6125 11.8025 1.6125 14.465C5.87083 14.465 10.125 14.465 14.3917 14.465ZM11.2 2.48171C9.0625 2.48171 6.94167 2.48171 4.80417 2.48171C4.80417 2.74421 4.80417 2.99421 4.80417 3.25671C4.2625 3.25671 3.74167 3.25671 3.19583 3.25671C3.19583 2.99005 3.19583 2.73588 3.19583 2.47755C2.65417 2.47755 2.1375 2.47755 1.60833 2.47755C1.60833 3.27338 1.60833 4.06088 1.60833 4.85671C5.875 4.85671 10.1292 4.85671 14.3958 4.85671C14.3958 4.05671 14.3958 3.26921 14.3958 2.47755C13.8625 2.47755 13.3417 2.47755 12.8042 2.47755C12.8042 2.74005 12.8042 2.99421 12.8042 3.25255C12.2667 3.25255 11.7417 3.25255 11.2042 3.25255C11.2 2.99421 11.2 2.74005 11.2 2.48171Z" fill="#9B9B9B"/>
<path d="M7.98747 12.8734C7.76247 12.8734 7.54163 12.8692 7.31663 12.8734C7.22913 12.8734 7.1958 12.8484 7.1958 12.7567C7.19997 12.2984 7.19997 11.84 7.1958 11.3859C7.1958 11.2984 7.22497 11.265 7.31247 11.2692C7.7708 11.2734 8.22913 11.2734 8.6833 11.2692C8.7708 11.2692 8.79997 11.2984 8.79997 11.3859C8.7958 11.8442 8.7958 12.3025 8.79997 12.7567C8.79997 12.8609 8.75413 12.8775 8.66663 12.8734C8.44163 12.8692 8.21663 12.8734 7.98747 12.8734Z" fill="#9B9B9B"/>
<path d="M8.79587 8.07755C8.79587 8.60671 8.79587 9.12338 8.79587 9.65255C8.26671 9.65255 7.74587 9.65255 7.20837 9.65255C7.20837 9.13171 7.20837 8.61088 7.20837 8.07755C7.73337 8.07755 8.25837 8.07755 8.79587 8.07755Z" fill="#9B9B9B"/>
<path d="M5.58745 12.8651C5.05828 12.8651 4.54162 12.8651 4.01245 12.8651C4.01245 12.3359 4.01245 11.8151 4.01245 11.2776C4.53328 11.2776 5.05412 11.2776 5.58745 11.2776C5.58745 11.8026 5.58745 12.3234 5.58745 12.8651Z" fill="#9B9B9B"/>
<path d="M10.4083 11.2734C10.9375 11.2734 11.4583 11.2734 11.9917 11.2734C11.9917 11.8067 11.9917 12.3275 11.9917 12.8609C11.4625 12.8609 10.9417 12.8609 10.4083 12.8609C10.4083 12.3317 10.4083 11.8067 10.4083 11.2734Z" fill="#9B9B9B"/>
<path d="M10.4083 9.65671C10.4083 9.12755 10.4083 8.61088 10.4083 8.07755C10.9333 8.07755 11.4583 8.07755 11.9917 8.07755C11.9917 8.59838 11.9917 9.11921 11.9917 9.65671C11.4708 9.65671 10.9458 9.65671 10.4083 9.65671Z" fill="#9B9B9B"/>
</svg>
