<svg width="16" height="16" viewBox="0 0 16 16" fill="none" xmlns="http://www.w3.org/2000/svg">
<path d="M13.9911 3.05607L9.28772 0.343535C8.49347 -0.114527 7.50656 -0.114496 6.71228 0.343535L2.00891 3.05607C1.21309 3.51497 0.71875 4.37082 0.71875 5.28957V10.7104C0.71875 11.6292 1.21309 12.485 2.00887 12.9439L6.71228 15.6564C7.50669 16.1146 8.49356 16.1144 9.28772 15.6564L13.9911 12.9439C14.7869 12.485 15.2812 11.6292 15.2812 10.7104V5.28957C15.2812 4.37085 14.7869 3.515 13.9911 3.05607ZM14.0312 10.7104C14.0312 11.1837 13.7766 11.6245 13.3667 11.8609L8.66328 14.5734C8.25413 14.8094 7.74584 14.8094 7.33669 14.5734L2.63328 11.8609C2.22337 11.6245 1.96875 11.1837 1.96875 10.7104V5.28957C1.96875 4.81635 2.22337 4.3755 2.63331 4.13913L7.33669 1.4266C7.74587 1.1906 8.25431 1.19069 8.66331 1.4266L13.3667 4.1391C13.7766 4.3755 14.0312 4.81632 14.0312 5.28957V10.7104Z" fill="#6D6D6D"/>
<path d="M7.40604 7.52279L5.08477 5.55833C4.8213 5.33533 4.42689 5.36817 4.20393 5.63173C3.98096 5.8953 4.01383 6.2897 4.27733 6.5127L6.03476 8.00001L4.27733 9.48728C4.01383 9.71028 3.98099 10.1047 4.20393 10.3683C4.42742 10.6324 4.82192 10.6641 5.08477 10.4416L7.40604 8.47716C7.70135 8.22726 7.70051 7.77201 7.40604 7.52279Z" fill="#6D6D6D"/>
<path d="M11.3191 9.33936H8.50671C8.16153 9.33936 7.88171 9.6192 7.88171 9.96445C7.88171 10.3097 8.16153 10.5895 8.50671 10.5895H11.3191C11.6642 10.5895 11.9441 10.3097 11.9441 9.96445C11.9441 9.6192 11.6642 9.33936 11.3191 9.33936Z" fill="#6D6D6D"/>
</svg>
