<svg width="50" height="59" viewBox="0 0 50 59" fill="none" xmlns="http://www.w3.org/2000/svg">
<g opacity="0.2">
<path d="M28.0996 3.58774C28.0996 1.79995 26.7588 0.459106 24.971 0.459106C23.1832 0.459106 21.8423 1.79995 21.8423 3.58774C21.8423 5.37553 23.1832 6.71637 24.971 6.71637C26.7588 6.71637 28.0996 5.37553 28.0996 3.58774Z" fill="#3379B7"/>
<path d="M6.25726 3.58774C6.25726 1.79995 4.91642 0.459106 3.12863 0.459106C1.34084 0.459106 8.95064e-07 1.79995 8.16918e-07 3.58774C7.38771e-07 5.37553 1.34084 6.71637 3.12863 6.71637C4.91642 6.71637 6.25726 5.37553 6.25726 3.58774Z" fill="#3379B7"/>
<path d="M50 3.58774C50 1.79995 48.6592 0.459106 46.8714 0.459106C45.0836 0.459106 43.7427 1.79995 43.7427 3.58774C43.7427 5.37553 45.0836 6.71637 46.8714 6.71637C48.6592 6.71637 50 5.37553 50 3.58774Z" fill="#3379B7"/>
<path d="M28.0996 21.0186C28.0996 19.2308 26.7588 17.89 24.971 17.89C23.1832 17.89 21.8423 19.2308 21.8423 21.0186C21.8423 22.8064 23.1832 24.1472 24.971 24.1472C26.7588 24.1472 28.0996 22.5829 28.0996 21.0186Z" fill="#3379B7"/>
<path d="M6.25726 21.0186C6.25726 19.2308 4.91642 17.89 3.12863 17.89C1.34084 17.89 8.95064e-07 19.2308 8.16918e-07 21.0186C7.38771e-07 22.8064 1.34084 24.1472 3.12863 24.1472C4.91642 24.1472 6.25726 22.5829 6.25726 21.0186Z" fill="#3379B7"/>
<path d="M50 21.0186C50 19.2308 48.6592 17.89 46.8714 17.89C45.0836 17.89 43.7427 19.2308 43.7427 21.0186C43.7427 22.8064 45.0836 24.1472 46.8714 24.1472C48.6592 24.1472 50 22.5829 50 21.0186Z" fill="#3379B7"/>
<path d="M28.0996 38.2261C28.0996 36.4383 26.7588 35.0975 24.971 35.0975C23.1832 35.0975 21.8423 36.4383 21.8423 38.2261C21.8423 40.0139 23.1832 41.3547 24.971 41.3547C26.7588 41.3547 28.0996 40.0139 28.0996 38.2261Z" fill="#3379B7"/>
<path d="M6.25726 38.2261C6.25726 36.4383 4.91642 35.0975 3.12863 35.0975C1.34084 35.0975 8.95064e-07 36.4383 8.16918e-07 38.2261C7.38771e-07 40.0139 1.34084 41.3547 3.12863 41.3547C4.91642 41.3547 6.25726 40.0139 6.25726 38.2261Z" fill="#3379B7"/>
<path d="M50 38.2261C50 36.4383 48.6592 35.0975 46.8714 35.0975C45.0836 35.0975 43.7427 36.4383 43.7427 38.2261C43.7427 40.0139 45.0836 41.3547 46.8714 41.3547C48.6592 41.3547 50 40.0139 50 38.2261Z" fill="#3379B7"/>
<path d="M28.0996 55.6571C28.0996 53.8693 26.7588 52.5285 24.971 52.5285C23.1832 52.5285 21.8423 53.8693 21.8423 55.6571C21.8423 57.4449 23.1832 58.7858 24.971 58.7858C26.7588 58.7858 28.0996 57.4449 28.0996 55.6571Z" fill="#3379B7"/>
<path d="M6.25726 55.6571C6.25726 53.8693 4.91642 52.5285 3.12863 52.5285C1.34084 52.5285 8.95064e-07 53.8693 8.16917e-07 55.6571C7.38771e-07 57.4449 1.34084 58.7858 3.12863 58.7858C4.91642 58.7858 6.25726 57.4449 6.25726 55.6571Z" fill="#3379B7"/>
<path d="M50 55.6571C50 53.8693 48.6592 52.5285 46.8714 52.5285C45.0836 52.5285 43.7427 53.8693 43.7427 55.6571C43.7427 57.4449 45.0836 58.7858 46.8714 58.7858C48.6592 58.7858 50 57.4449 50 55.6571Z" fill="#3379B7"/>
</g>
</svg>
