<svg width="59" height="50" viewBox="0 0 59 50" fill="none" xmlns="http://www.w3.org/2000/svg">
<g opacity="0.2">
<path d="M3.12863 21.9004C1.34084 21.9004 0 23.2412 0 25.029C0 26.8168 1.34084 28.1577 3.12863 28.1577C4.91642 28.1577 6.25726 26.8168 6.25726 25.029C6.25726 23.2412 4.91642 21.9004 3.12863 21.9004Z" fill="#3379B7"/>
<path d="M3.12863 43.7427C1.34084 43.7427 0 45.0836 0 46.8714C0 48.6592 1.34084 50 3.12863 50C4.91642 50 6.25726 48.6592 6.25726 46.8714C6.25726 45.0836 4.91642 43.7427 3.12863 43.7427Z" fill="#3379B7"/>
<path d="M3.12863 0C1.34084 0 0 1.34084 0 3.12863C0 4.91642 1.34084 6.25726 3.12863 6.25726C4.91642 6.25726 6.25726 4.91642 6.25726 3.12863C6.25726 1.34084 4.91642 0 3.12863 0Z" fill="#3379B7"/>
<path d="M20.5594 21.9004C18.7716 21.9004 17.4308 23.2412 17.4308 25.029C17.4308 26.8168 18.7716 28.1577 20.5594 28.1577C22.3472 28.1577 23.688 26.8168 23.688 25.029C23.688 23.2412 22.1237 21.9004 20.5594 21.9004Z" fill="#3379B7"/>
<path d="M20.5594 43.7427C18.7716 43.7427 17.4308 45.0836 17.4308 46.8714C17.4308 48.6592 18.7716 50 20.5594 50C22.3472 50 23.688 48.6592 23.688 46.8714C23.688 45.0836 22.1237 43.7427 20.5594 43.7427Z" fill="#3379B7"/>
<path d="M20.5594 0C18.7716 0 17.4308 1.34084 17.4308 3.12863C17.4308 4.91642 18.7716 6.25726 20.5594 6.25726C22.3472 6.25726 23.688 4.91642 23.688 3.12863C23.688 1.34084 22.1237 0 20.5594 0Z" fill="#3379B7"/>
<path d="M37.7671 21.9004C35.9793 21.9004 34.6384 23.2412 34.6384 25.029C34.6384 26.8168 35.9793 28.1577 37.7671 28.1577C39.5548 28.1577 40.8957 26.8168 40.8957 25.029C40.8957 23.2412 39.5548 21.9004 37.7671 21.9004Z" fill="#3379B7"/>
<path d="M37.7671 43.7427C35.9793 43.7427 34.6384 45.0836 34.6384 46.8714C34.6384 48.6592 35.9793 50 37.7671 50C39.5548 50 40.8957 48.6592 40.8957 46.8714C40.8957 45.0836 39.5548 43.7427 37.7671 43.7427Z" fill="#3379B7"/>
<path d="M37.7669 0C35.9791 0 34.6383 1.34084 34.6383 3.12863C34.6383 4.91642 35.9791 6.25726 37.7669 6.25726C39.5547 6.25726 40.8956 4.91642 40.8956 3.12863C40.8956 1.34084 39.5547 0 37.7669 0Z" fill="#3379B7"/>
<path d="M55.1981 21.9004C53.4103 21.9004 52.0695 23.2412 52.0695 25.029C52.0695 26.8168 53.4103 28.1577 55.1981 28.1577C56.9859 28.1577 58.3267 26.8168 58.3267 25.029C58.3267 23.2412 56.9859 21.9004 55.1981 21.9004Z" fill="#3379B7"/>
<path d="M55.1981 43.7427C53.4103 43.7427 52.0695 45.0836 52.0695 46.8714C52.0695 48.6592 53.4103 50 55.1981 50C56.9859 50 58.3267 48.6592 58.3267 46.8714C58.3267 45.0836 56.9859 43.7427 55.1981 43.7427Z" fill="#3379B7"/>
<path d="M55.1981 0C53.4103 0 52.0695 1.34084 52.0695 3.12863C52.0695 4.91642 53.4103 6.25726 55.1981 6.25726C56.9859 6.25726 58.3267 4.91642 58.3267 3.12863C58.3267 1.34084 56.9859 0 55.1981 0Z" fill="#3379B7"/>
</g>
</svg>
