<svg width="28" height="28" viewBox="0 0 28 28" fill="none" xmlns="http://www.w3.org/2000/svg">
<path d="M1.82339 1.9411C-0.366968 4.21623 0.0813236 6.63306 0.0813236 13.9753C0.0813236 20.0725 -0.982497 26.1848 4.58514 27.6238C6.32372 28.0709 21.7282 28.0709 23.4645 27.6214C25.7826 27.0233 27.6686 25.1431 27.9265 21.8645C27.9625 21.4069 27.9625 6.55176 27.9253 6.08489C27.6512 2.59263 25.5015 0.579964 22.6689 0.172321C22.0197 0.0782494 21.8896 0.0503764 18.5588 0.0445695C6.74414 0.0503764 4.15427 -0.475727 1.82339 1.9411Z" fill="#35509C"/>
<path d="M14.9088 24.464V14.6693H18.5152L19.0729 11.0207H14.9088V8.6751C14.9088 7.60005 15.2434 6.88336 16.9909 6.88336H19.2216V3.62563C18.8498 3.59306 17.5114 3.49533 15.987 3.49533C12.7896 3.46275 10.596 5.18934 10.596 8.31675V11.0207H6.98962V14.6693H10.596V24.4314H14.9088V24.464Z" fill="white"/>
</svg>
