<svg width="16" height="16" viewBox="0 0 16 16" fill="none" xmlns="http://www.w3.org/2000/svg">
<path d="M8 0C3.5888 0 0 3.58885 0 8.00005C0 12.4112 3.5888 16 8 16C12.4112 16 16 12.4112 16 8.00005C16 3.58885 12.4112 0 8 0ZM8 14.5455C4.39079 14.5455 1.45455 11.6092 1.45455 8.00005C1.45455 4.39088 4.39079 1.45455 8 1.45455C11.6092 1.45455 14.5455 4.39088 14.5455 8.00005C14.5455 11.6092 11.6092 14.5455 8 14.5455Z" fill="#B2C6D9"/>
<path d="M7.99996 3.39392C7.46537 3.39392 7.03046 3.82912 7.03046 4.36405C7.03046 4.8985 7.46537 5.33331 7.99996 5.33331C8.53455 5.33331 8.96946 4.8985 8.96946 4.36405C8.96946 3.82912 8.53455 3.39392 7.99996 3.39392Z" fill="#B2C6D9"/>
<path d="M7.99998 6.7879C7.59833 6.7879 7.27271 7.11353 7.27271 7.51518V11.8788C7.27271 12.2805 7.59833 12.6061 7.99998 12.6061C8.40163 12.6061 8.72725 12.2805 8.72725 11.8788V7.51518C8.72725 7.11353 8.40163 6.7879 7.99998 6.7879Z" fill="#B2C6D9"/>
</svg>
