<svg width="29" height="28" viewBox="0 0 29 28" fill="none" xmlns="http://www.w3.org/2000/svg">
<path d="M2.152 1.9411C-0.0383542 4.21623 0.409937 6.63306 0.409937 13.9753C0.409937 20.0725 -0.653884 26.1848 4.91375 27.6238C6.65233 28.0709 22.0568 28.0709 23.7931 27.6214C26.1112 27.0233 27.9973 25.1431 28.2551 21.8645C28.2911 21.4069 28.2911 6.55176 28.2539 6.08489C27.9798 2.59263 25.8301 0.579964 22.9975 0.172321C22.3483 0.0782494 22.2183 0.0503764 18.8874 0.0445695C7.07275 0.0503764 4.48288 -0.475727 2.152 1.9411Z" fill="url(#paint0_linear)"/>
<path d="M14.3442 3.69005C10.1272 3.69005 6.1228 3.31492 4.59327 7.24037C3.96148 8.86165 4.05323 10.9672 4.05323 13.9822C4.05323 16.6278 3.96845 19.1143 4.59327 20.7228C6.11932 24.6506 10.1563 24.2743 14.3419 24.2743C18.38 24.2743 22.5435 24.6947 24.0916 20.7228C24.7246 19.0852 24.6317 17.011 24.6317 13.9822C24.6317 9.96148 24.8535 7.3658 22.9035 5.41701C20.9292 3.44267 18.2592 3.69005 14.3395 3.69005H14.3442ZM13.4221 5.54476C22.2183 5.53083 23.3379 4.55295 22.72 18.1376C22.5005 22.9422 18.8422 22.4149 14.3453 22.4149C6.14603 22.4149 5.91027 22.1803 5.91027 13.9775C5.91027 5.67948 6.56064 5.54941 13.4221 5.54244V5.54476ZM19.8375 7.25315C19.1558 7.25315 18.603 7.80596 18.603 8.48769C18.603 9.16942 19.1558 9.72223 19.8375 9.72223C20.5192 9.72223 21.072 9.16942 21.072 8.48769C21.072 7.80596 20.5192 7.25315 19.8375 7.25315ZM14.3442 8.69674C11.4256 8.69674 9.05992 11.0636 9.05992 13.9822C9.05992 16.9007 11.4256 19.2664 14.3442 19.2664C17.2627 19.2664 19.6273 16.9007 19.6273 13.9822C19.6273 11.0636 17.2627 8.69674 14.3442 8.69674ZM14.3442 10.5515C18.8794 10.5515 18.8852 17.4129 14.3442 17.4129C9.81017 17.4129 9.8032 10.5515 14.3442 10.5515Z" fill="white"/>
<defs>
<linearGradient id="paint0_linear" x1="2.20545" y1="26.1373" x2="28.1105" y2="3.71681" gradientUnits="userSpaceOnUse">
<stop stop-color="#FFDD55"/>
<stop offset="0.5" stop-color="#FF543E"/>
<stop offset="1" stop-color="#C837AB"/>
</linearGradient>
</defs>
</svg>
