<svg width="30" height="30" viewBox="0 0 30 30" fill="none" xmlns="http://www.w3.org/2000/svg">
<circle cx="15" cy="15" r="15" fill="#3379B7"/>
<path d="M15.337 8C12.9376 8 11 9.93755 11 12.337C11 13.1736 11.2672 13.9724 11.6391 14.6289L14.4655 19.5207C14.6427 19.8402 15 20 15.337 20C15.674 20 16.0138 19.8402 16.2084 19.5207L19.0349 14.6318C19.4096 13.9753 19.674 13.191 19.674 12.3398C19.674 9.94046 17.7364 8 15.337 8ZM15.337 13.618C14.4655 13.618 13.7538 12.9063 13.7538 12.0349C13.7538 11.1634 14.4655 10.4517 15.337 10.4517C16.2084 10.4517 16.9201 11.1634 16.9201 12.0349C16.9201 12.9092 16.2084 13.618 15.337 13.618Z" fill="white"/>
</svg>
