<svg width="30" height="30" viewBox="0 0 30 30" fill="none" xmlns="http://www.w3.org/2000/svg">
<circle cx="15" cy="15" r="15" fill="#3379B7"/>
<path fill-rule="evenodd" clip-rule="evenodd" d="M10.1738 11H19.826C20.4338 11 20.9347 11.4643 20.9947 12.0565L15.8295 17.2217C15.3625 17.6887 14.6138 17.6652 14.1964 17.2478L9.00513 12.0565C9.06513 11.4643 9.56599 11 10.1738 11ZM14.9929 18.3492C15.5192 18.3492 16.0129 18.1454 16.3828 17.7752L21 13.1584V18.435C21 19.082 20.473 19.6089 19.8261 19.6089H10.1739C9.52697 19.6089 9 19.082 9 18.435V13.1585L13.6432 17.8014C13.9912 18.1497 14.4831 18.3492 14.9929 18.3492Z" fill="white"/>
</svg>
