<svg width="30" height="30" viewBox="0 0 30 30" fill="none" xmlns="http://www.w3.org/2000/svg">
<circle cx="15" cy="15" r="15" fill="#3379B7"/>
<path d="M20.6608 17.8068L18.9861 16.1321C18.3881 15.5341 17.3713 15.7733 17.1321 16.5508C16.9527 17.0891 16.3546 17.3881 15.8163 17.2685C14.6201 16.9695 13.0053 15.4144 12.7063 14.1585C12.5268 13.6202 12.8857 13.0221 13.424 12.8427C14.2015 12.6035 14.4407 11.5867 13.8426 10.9886L12.168 9.31399C11.6895 8.89534 10.9718 8.89534 10.5532 9.31399L9.41681 10.4504C8.28045 11.6465 9.53643 14.8164 12.3474 17.6274C15.1584 20.4383 18.3283 21.7542 19.5244 20.558L20.6608 19.4216C21.0795 18.9431 21.0795 18.2254 20.6608 17.8068Z" fill="white"/>
</svg>
