<svg width="16" height="12" viewBox="0 0 16 12" fill="none" xmlns="http://www.w3.org/2000/svg">
<path d="M15.7887 0.44571C15.5801 0.161363 15.2513 -3.24104e-05 14.9091 4.88185e-09C14.8206 4.88185e-09 14.7312 0.0107944 14.6428 0.0330637L0.824709 3.51141C0.397087 3.619 0.0763706 3.97349 0.011767 4.40964C-0.0527069 4.84582 0.151639 5.27795 0.52973 5.50476L3.45174 7.25797V11.1038C3.45174 11.2494 3.53469 11.3822 3.66542 11.4461C3.79618 11.5101 3.95197 11.4939 4.06682 11.4045L6.80743 9.27144L9.05883 10.6222C9.23449 10.7277 9.42797 10.7779 9.61909 10.7779C9.98564 10.7779 10.3433 10.5931 10.5492 10.2585L15.8381 1.66268C16.0708 1.28471 16.0512 0.803541 15.7887 0.44571ZM9.55374 9.41501L6.12784 7.35939L9.6035 4.36439C9.65219 4.32244 9.6636 4.25158 9.63053 4.19651C9.59754 4.14144 9.52966 4.1181 9.46976 4.14127L4.17567 6.18813L1.60433 4.64527L14.4833 1.40332L9.55374 9.41501Z" fill="white"/>
</svg>
