<svg width="28" height="28" viewBox="0 0 28 28" fill="none" xmlns="http://www.w3.org/2000/svg">
<path d="M1.87002 1.9411C-0.320337 4.21623 0.127954 6.63306 0.127954 13.9753C0.127954 20.0725 -0.935866 26.1848 4.63177 27.6238C6.37035 28.0709 21.7748 28.0709 23.5111 27.6214C25.8292 27.0233 27.7153 25.1431 27.9731 21.8645C28.0091 21.4069 28.0091 6.55176 27.9719 6.08489C27.6979 2.59263 25.5482 0.579964 22.7156 0.172321C22.0663 0.0782494 21.9363 0.0503764 18.6054 0.0445695C6.79077 0.0503764 4.2009 -0.475727 1.87002 1.9411Z" fill="#039BE5"/>
<path d="M10.7079 16.759L10.3321 21.6377C10.8697 21.6377 11.1026 21.4246 11.3818 21.1686L13.9024 18.945L19.1255 22.4756C20.0834 22.9684 20.7583 22.7089 21.0167 21.6622L24.4451 6.83363L24.446 6.83275C24.7499 5.52568 23.9339 5.01456 23.0006 5.33522L2.84869 12.4568C1.47336 12.9496 1.49418 13.6573 2.61489 13.9779L7.76694 15.4571L19.7341 8.54522C20.2973 8.20098 20.8094 8.39145 20.3882 8.73569L10.7079 16.759Z" fill="white"/>
</svg>
