<svg width="29" height="28" viewBox="0 0 29 28" fill="none" xmlns="http://www.w3.org/2000/svg">
<path d="M2.43704 1.9411C0.24668 4.21623 0.694971 6.63306 0.694971 13.9753C0.694971 20.0725 -0.368849 26.1848 5.19879 27.6238C6.93737 28.0709 22.3419 28.0709 24.0781 27.6214C26.3962 27.0233 28.2823 25.1431 28.5401 21.8645C28.5761 21.4069 28.5761 6.55176 28.539 6.08489C28.2649 2.59263 26.1152 0.579964 23.2826 0.172321C22.6334 0.0782494 22.5033 0.0503764 19.1725 0.0445695C7.35778 0.0503764 4.76792 -0.475727 2.43704 1.9411Z" fill="#00A9FF"/>
<path d="M10.6565 22.7165C18.5672 22.7165 22.92 16.6838 22.92 11.4183C22.92 11.244 22.92 11.0696 22.92 10.8952C23.7528 10.3373 24.5098 9.63988 25.0775 8.83785C24.3205 9.15169 23.4878 9.36091 22.6172 9.46553C23.4878 8.97733 24.207 8.21017 24.5098 7.26865C23.677 7.72198 22.7686 8.07069 21.7845 8.24504C20.9897 7.47788 19.892 6.98969 18.6429 6.98969C16.2584 6.98969 14.328 8.76811 14.328 10.965C14.328 11.2788 14.3659 11.5927 14.4416 11.8716C10.8458 11.6973 7.70419 10.1281 5.54671 7.72198C5.16821 8.31478 4.97896 8.97733 4.97896 9.70963C4.97896 11.0696 5.73596 12.2901 6.90933 13.0224C6.19017 12.9875 5.54671 12.8131 4.94111 12.5342V12.5691C4.94111 14.487 6.41727 16.091 8.38549 16.4746C8.00699 16.5792 7.62849 16.6141 7.24998 16.6141C6.98503 16.6141 6.72007 16.5792 6.45512 16.5443C7.02288 18.1135 8.6126 19.2643 10.4673 19.2992C8.9911 20.3802 7.13643 21.0078 5.13036 21.0078C4.7897 21.0078 4.44905 20.973 4.1084 20.9381C5.96307 22.054 8.23409 22.7165 10.6565 22.7165Z" fill="white"/>
</svg>
