<svg width="11" height="14" viewBox="0 0 11 14" fill="none" xmlns="http://www.w3.org/2000/svg">
<path d="M5.27342 0.942871C3.52877 0.942871 2.10938 2.44506 2.10938 4.29148C2.10938 6.1379 3.52877 7.64008 5.27342 7.64008C7.01808 7.64008 8.43747 6.1379 8.43747 4.29148C8.43747 2.44506 7.01808 0.942871 5.27342 0.942871Z" fill="white" fill-opacity="0.4"/>
<path d="M9.2101 9.82777C8.34385 8.89691 7.19549 8.38428 5.97654 8.38428H4.57029C3.35136 8.38428 2.20297 8.89691 1.33673 9.82777C0.474724 10.7541 0 11.9768 0 13.2708C0 13.4762 0.157406 13.6428 0.351561 13.6428H10.1953C10.3894 13.6428 10.5468 13.4762 10.5468 13.2708C10.5468 11.9768 10.0721 10.7541 9.2101 9.82777Z" fill="white" fill-opacity="0.4"/>
</svg>
