<svg width="17" height="16" viewBox="0 0 17 16" fill="none" xmlns="http://www.w3.org/2000/svg">
<path d="M7.33972 14.9961C5.75972 14.9961 4.17972 14.9961 2.59972 14.9961C1.43572 14.9961 0.615723 14.1917 0.615723 13.0513C0.615723 10.181 0.615723 7.31064 0.615723 4.44029C0.615723 3.30777 1.43972 2.50329 2.60372 2.49939C4.49572 2.49939 6.38772 2.49939 8.28372 2.49939C8.61572 2.49939 8.88772 2.72589 8.93172 3.02269C8.97972 3.33511 8.79572 3.628 8.48772 3.71782C8.39972 3.74516 8.30372 3.74516 8.21172 3.74516C6.36372 3.74516 4.51972 3.74516 2.67172 3.74516C2.14372 3.74906 1.89572 3.99119 1.89572 4.49887C1.89572 7.33797 1.89572 10.1732 1.89572 13.0123C1.89572 13.5004 2.14772 13.7504 2.64372 13.7504C5.77172 13.7504 8.89572 13.7504 12.0237 13.7504C12.5317 13.7504 12.7797 13.5043 12.7797 13.0045C12.7797 11.3838 12.7797 9.76312 12.7797 8.14245C12.7797 7.81832 13.0077 7.54886 13.3117 7.5059C13.6317 7.45903 13.9317 7.63477 14.0277 7.93938C14.0517 8.01358 14.0557 8.09168 14.0557 8.16979C14.0597 9.8217 14.0597 11.4775 14.0557 13.1294C14.0557 14.1682 13.2037 15 12.1397 15.0039C10.5397 15 8.93972 14.9961 7.33972 14.9961Z" fill="#6D6D6D"/>
<path d="M13.4158 0.000134546C15.2398 0.0118502 16.6278 1.40602 16.6158 3.22195C16.6078 4.84653 15.1318 6.26022 13.4558 6.24851C11.5878 6.23679 10.1958 4.85434 10.2158 3.02669C10.2278 1.37868 11.6958 -0.0115812 13.4158 0.000134546ZM11.4958 3.12042C11.4918 4.13578 12.3558 4.99102 13.3958 4.99883C14.4558 5.00664 15.3318 4.1553 15.3358 3.12042C15.3358 2.10896 14.4638 1.25371 13.4238 1.24981C12.3718 1.2459 11.4998 2.09334 11.4958 3.12042Z" fill="#6D6D6D"/>
<path d="M6.7157 7.49817C7.6477 7.49817 8.5837 7.49817 9.5157 7.49817C9.9357 7.49817 10.2197 7.75591 10.2157 8.13082C10.2117 8.494 9.9277 8.74394 9.5157 8.74394C7.6357 8.74394 5.7557 8.74394 3.8757 8.74394C3.4557 8.74394 3.1717 8.48229 3.1757 8.10739C3.1797 7.7442 3.4637 7.49426 3.8757 7.49426C4.8237 7.49817 5.7677 7.49817 6.7157 7.49817Z" fill="#6D6D6D"/>
<path d="M5.41578 6.24845C4.89178 6.24845 4.36378 6.24845 3.83978 6.24845C3.44778 6.24845 3.17578 5.9868 3.17578 5.62362C3.17578 5.26043 3.45178 5.00269 3.84378 5.00269C4.89578 5.00269 5.94778 5.00269 6.99978 5.00269C7.37578 5.00269 7.65578 5.27215 7.65578 5.61971C7.65578 5.97899 7.38778 6.24845 7.01578 6.25236C6.48378 6.25236 5.94778 6.24845 5.41578 6.24845Z" fill="#6D6D6D"/>
</svg>
