<svg width="17" height="16" viewBox="0 0 17 16" fill="none" xmlns="http://www.w3.org/2000/svg">
<path fill-rule="evenodd" clip-rule="evenodd" d="M3.11572 0H5.49072C6.86922 0 7.99072 1.1215 7.99072 2.5V4.875C7.99072 6.2535 6.86922 7.375 5.49072 7.375H3.11572C1.73722 7.375 0.615723 6.2535 0.615723 4.875V2.5C0.615723 1.1215 1.73722 0 3.11572 0ZM5.49072 6.125C6.17997 6.125 6.74072 5.56425 6.74072 4.875V2.5C6.74072 1.81075 6.17997 1.25 5.49072 1.25H3.11572C2.42647 1.25 1.86572 1.81075 1.86572 2.5V4.875C1.86572 5.56425 2.42647 6.125 3.11572 6.125H5.49072ZM11.7407 0H14.1157C15.4942 0 16.6157 1.1215 16.6157 2.5V4.875C16.6157 6.2535 15.4942 7.375 14.1157 7.375H11.7407C10.3622 7.375 9.24072 6.2535 9.24072 4.875V2.5C9.24072 1.1215 10.3622 0 11.7407 0ZM14.1157 6.125C14.805 6.125 15.3657 5.56425 15.3657 4.875V2.5C15.3657 1.81075 14.805 1.25 14.1157 1.25H11.7407C11.0515 1.25 10.4907 1.81075 10.4907 2.5V4.875C10.4907 5.56425 11.0515 6.125 11.7407 6.125H14.1157ZM5.49072 8.625H3.11572C1.73722 8.625 0.615723 9.7465 0.615723 11.125V13.5C0.615723 14.8785 1.73722 16 3.11572 16H5.49072C6.86922 16 7.99072 14.8785 7.99072 13.5V11.125C7.99072 9.7465 6.86922 8.625 5.49072 8.625ZM6.74072 13.5C6.74072 14.1892 6.17997 14.75 5.49072 14.75H3.11572C2.42647 14.75 1.86572 14.1892 1.86572 13.5V11.125C1.86572 10.4358 2.42647 9.875 3.11572 9.875H5.49072C6.17997 9.875 6.74072 10.4358 6.74072 11.125V13.5ZM15.3657 13.5C15.3657 13.1548 15.6455 12.875 15.9907 12.875C16.3359 12.875 16.6157 13.1548 16.6157 13.5C16.6157 14.8785 15.4942 16 14.1157 16H11.7407C10.3622 16 9.24072 14.8785 9.24072 13.5V11.125C9.24072 9.7465 10.3622 8.625 11.7407 8.625H14.1157C15.1095 8.625 16.0089 9.21341 16.4071 10.1241C16.5454 10.4403 16.4012 10.8088 16.0849 10.9471C15.7686 11.0854 15.4001 10.9412 15.2618 10.6249C15.0626 10.1693 14.6128 9.875 14.1157 9.875H11.7407C11.0515 9.875 10.4907 10.4358 10.4907 11.125V13.5C10.4907 14.1892 11.0515 14.75 11.7407 14.75H14.1157C14.805 14.75 15.3657 14.1892 15.3657 13.5Z" fill="#6D6D6D"/>
</svg>
