<svg width="17" height="16" viewBox="0 0 17 16" fill="none" xmlns="http://www.w3.org/2000/svg">
<path d="M5.84143 9.73578H6.81501V10.7094H5.84143V9.73578Z" fill="#6D6D6D"/>
<path d="M6.32828 6.32825C6.5967 6.32825 6.81507 6.54662 6.81507 6.81504C6.81507 7.08865 6.70954 7.20573 6.47088 7.44439C6.20526 7.71001 5.8415 8.07377 5.8415 8.76219H6.81507C6.81507 8.48858 6.92061 8.37149 7.15926 8.13284C7.42489 7.86721 7.78865 7.50345 7.78865 6.81504C7.78865 6.00979 7.13353 5.35468 6.32828 5.35468C5.52304 5.35468 4.86792 6.00979 4.86792 6.81504H5.8415C5.8415 6.54662 6.05987 6.32825 6.32828 6.32825Z" fill="#6D6D6D"/>
<path d="M3.8943 0V2.92073H0V13.6301H0.973575V16L4.52849 13.6301H12.6565V11.1321L15.5772 13.0793V10.7093H16.6157V0H3.8943ZM11.6829 12.6565H4.23369L1.94715 14.1808V12.6565H0.973575V3.8943H11.6829V12.6565ZM15.6421 9.73575H14.6036V11.2601L12.6565 9.96201V2.92073H4.86788V0.973575H15.6421V9.73575Z" fill="#6D6D6D"/>
</svg>
