<svg width="17" height="16" viewBox="0 0 17 16" fill="none" xmlns="http://www.w3.org/2000/svg">
<path d="M7.28244 2.50772L4.77475 0L2.26704 2.50772H0.615723V3.44522H2.26704L4.77475 5.95291L7.28244 3.44522H16.6157V2.50772H7.28244ZM4.77475 4.62706L3.12413 2.97647L4.77475 1.32584L6.42535 2.97647L4.77475 4.62706Z" fill="#6D6D6D"/>
<path d="M12.4735 5.02106L9.96582 7.52877H0.615723V8.46627H9.96582L12.4735 10.974L14.9812 8.46627H16.6157V7.52877H14.9812L12.4735 5.02106ZM12.4735 9.64814L10.8229 7.99752L12.4735 6.3469L14.1242 7.99752L12.4735 9.64814Z" fill="#6D6D6D"/>
<path d="M8.61572 10.0426L6.10804 12.5503H0.615723V13.4878H6.108L8.61572 15.9955L11.1234 13.4878H16.6157V12.5503H11.1234L8.61572 10.0426ZM8.61572 14.6697L6.9651 13.019L8.61572 11.3684L10.2663 13.019L8.61572 14.6697Z" fill="#6D6D6D"/>
</svg>
