<svg width="15" height="16" viewBox="0 0 15 16" fill="none" xmlns="http://www.w3.org/2000/svg">
<path d="M3.3125 4.21873C3.3125 2.16867 4.98117 0.5 7.03123 0.5C9.0813 0.5 10.75 2.16867 10.75 4.21873C10.75 6.2688 9.0813 7.93746 7.03123 7.93746C4.98117 7.93746 3.3125 6.2688 3.3125 4.21873Z" stroke="#6D6D6D"/>
<path d="M2.13854 11.5444L1.7823 11.1936L2.13854 11.5444C3.20091 10.4657 4.60432 9.875 6.09372 9.875H7.96871C9.45815 9.875 10.8615 10.4657 11.9239 11.5444C12.9742 12.6109 13.5543 14.0133 13.5624 15.5H0.500084C0.508103 14.0133 1.08819 12.6109 2.13854 11.5444Z" stroke="#6D6D6D"/>
</svg>
