<svg width="17" height="15" viewBox="0 0 17 15" fill="none" xmlns="http://www.w3.org/2000/svg">
<path d="M14.7407 2.8125V0H2.49072C1.45685 0 0.615723 0.841125 0.615723 1.875V11.7188C0.615723 13.0111 1.66713 14.0625 2.95947 14.0625H16.6157V2.8125H14.7407ZM2.49072 0.9375H13.8032V2.8125H2.49072C1.97379 2.8125 1.55322 2.39194 1.55322 1.875C1.55322 1.35806 1.97379 0.9375 2.49072 0.9375ZM15.6782 10.3125H13.3345C12.5591 10.3125 11.9282 9.68166 11.9282 8.90625C11.9282 8.13084 12.5591 7.5 13.3345 7.5H15.6782V10.3125ZM15.6782 6.5625H13.3345C12.0421 6.5625 10.9907 7.61391 10.9907 8.90625C10.9907 10.1986 12.0421 11.25 13.3345 11.25H15.6782V13.125H2.95947C2.18407 13.125 1.55322 12.4942 1.55322 11.7188V3.49775C1.82925 3.65784 2.14932 3.75 2.49072 3.75C3.1766 3.75 14.6666 3.75 15.6782 3.75V6.5625Z" fill="#6D6D6D"/>
<path d="M13.8032 8.4375H12.8657V9.375H13.8032V8.4375Z" fill="#6D6D6D"/>
</svg>
