<svg width="56" height="45" viewBox="0 0 56 45" fill="none" xmlns="http://www.w3.org/2000/svg">
<g clip-path="url(#clip0)">
<path d="M17.4722 39.0154C17.4722 40.9667 17.4722 42.8603 17.4722 44.7885C16.7418 44.7885 16.0228 44.7885 15.2468 44.7885C15.2468 42.8834 15.2468 40.9667 15.2468 39.0154C15.9886 39.0154 16.7075 39.0154 17.4722 39.0154Z" fill="#3379B7"/>
<path d="M38.5734 38.9922C39.3266 38.9922 40.0342 38.9922 40.7874 38.9922C40.7874 40.932 40.7874 42.8487 40.7874 44.8C40.0456 44.8 39.3266 44.8 38.5734 44.8C38.5734 42.8717 38.5734 40.9666 38.5734 38.9922Z" fill="#3379B7"/>
<path d="M29.1241 41.2673C28.3823 41.2673 27.6747 41.2673 26.9215 41.2673C26.9215 40.5284 26.9215 39.7894 26.9215 39.0158C27.6519 39.0158 28.3595 39.0158 29.1241 39.0158C29.1241 39.7663 29.1241 40.5053 29.1241 41.2673Z" fill="#3379B7"/>
<path d="M56 29.2932C56.0114 28.2309 55.6006 27.4227 54.7104 26.8338C53.0899 25.7715 51.4922 24.6746 49.883 23.5893C49.7233 23.4854 49.5749 23.3583 49.3923 23.2198C50.4651 22.1806 51.1726 20.9798 51.2639 19.5596C51.3552 18.2087 51.3666 16.8231 51.184 15.4837C50.8303 12.8627 48.4679 10.7728 45.9458 10.6689C43.0699 10.5534 40.582 12.2738 40 15.0103C39.7147 16.3381 39.7946 17.7583 39.7832 19.1324C39.7718 20.3447 40.2054 21.4416 40.9586 22.3884C41.1755 22.6656 41.4151 22.9427 41.6662 23.266C40.2054 24.2474 38.7903 25.2058 37.3638 26.1526L39.5093 27.4458C40.8788 26.5105 42.2482 25.5868 43.6291 24.6746C43.8003 24.5592 44.0742 24.5823 44.3024 24.5823C45.1355 24.5707 45.9686 24.5707 46.7903 24.5823C47.03 24.5823 47.3153 24.5938 47.4979 24.7208C49.4836 26.0371 51.4579 27.3649 53.4094 28.7159C53.592 28.8429 53.729 29.1546 53.7404 29.3856C53.786 30.1361 53.6719 30.9097 53.7746 31.6486C53.923 32.7571 53.3295 33.3344 52.485 33.7501C52.1313 33.9233 51.7432 34.0503 51.3552 34.1311C50.8987 34.235 50.4194 34.235 49.9629 34.339C49.4151 34.4544 49.0614 34.9394 49.0956 35.4474C49.1298 36.0247 49.5749 36.4981 50.1683 36.4981C52.3024 36.5212 54.1284 35.8169 55.5093 34.0965C55.8517 33.6693 56.0228 33.1843 56.0114 32.6185C55.9772 31.5101 55.9886 30.4016 56 29.2932ZM48.6163 20.6103C47.8174 22.0074 46.1969 22.7464 44.7019 22.3538C43.0927 21.9381 42.02 20.5641 41.9972 18.9014C41.9857 18.0932 41.9857 17.2734 41.9972 16.4651C42.02 14.4792 43.572 12.9204 45.5121 12.9204C47.4865 12.9089 49.0385 14.4792 49.0728 16.4882C49.0728 16.8924 49.0728 17.2965 49.0728 17.7006C49.0614 18.6936 49.1412 19.6866 48.6163 20.6103Z" fill="#FAB606"/>
<path d="M5.53495 34.2466C4.46219 34.2235 3.49215 33.8886 2.69329 33.1381C2.48787 32.9418 2.30528 32.6185 2.29386 32.353C2.24821 31.3369 2.25963 30.3208 2.29386 29.3047C2.30528 29.0969 2.46505 28.8198 2.63623 28.6928C4.57632 27.3534 6.53923 26.0255 8.50214 24.7208C8.70756 24.5822 9.00428 24.5707 9.25534 24.5592C10.0884 24.5361 10.9215 24.5361 11.7546 24.5592C12.0285 24.5707 12.3367 24.6169 12.5535 24.7554C13.7974 25.5637 15.0185 26.395 16.2397 27.2264L18.5792 26.1064C17.3238 25.2404 16.0685 24.409 14.8017 23.5546C14.6533 23.4622 14.5278 23.3468 14.3566 23.2082C15.418 22.169 16.1255 20.9798 16.2168 19.548C16.3081 18.1971 16.3195 16.8115 16.1484 15.4606C15.806 12.7472 13.3067 10.6573 10.5678 10.6342C7.79458 10.6111 5.23823 12.6548 4.8388 15.3567C4.6562 16.569 4.71326 17.8161 4.72468 19.0515C4.73609 20.2985 5.14693 21.4301 5.93438 22.4115C6.15121 22.6771 6.36804 22.9427 6.6077 23.2313C6.40228 23.3814 6.24251 23.4969 6.08274 23.6008C4.70185 24.5361 3.33238 25.4829 1.94008 26.3835C1.0271 26.9723 0.194007 27.5959 -0.0114136 28.762C-0.0114136 30.24 -0.0114136 31.7179 -0.0114136 33.1959C1.24394 35.4936 3.25249 36.4635 5.76319 36.4866C6.63052 36.4981 7.15549 35.7014 6.82453 34.9278C6.59629 34.3736 6.08274 34.2581 5.53495 34.2466ZM6.97289 16.442C7.00713 14.4907 8.54778 12.9319 10.4536 12.9204C12.4165 12.9088 13.98 14.433 14.0257 16.3958C14.0371 16.8231 14.0257 17.2387 14.0257 17.666C14.0485 17.666 14.0713 17.666 14.0941 17.666C14.0257 18.3934 14.0599 19.1554 13.8773 19.8482C13.4094 21.6264 11.7204 22.6424 9.87161 22.3769C8.26248 22.146 6.9843 20.5987 6.96148 18.8552C6.96148 18.0701 6.96148 17.2503 6.97289 16.442Z" fill="#FAB606"/>
<path d="M47.806 37.5834C47.749 34.7777 46.5507 32.503 44.3481 30.8634C43.1726 29.9859 41.8146 29.3508 40.525 28.635C40.0457 28.3579 39.5321 28.1269 38.9958 27.8614L36.3253 26.4989C35.2069 25.9562 34.4993 24.9517 33.6662 24.0741C33.6206 24.028 33.5977 23.9471 33.5749 23.8779C33.3695 23.2659 33.1527 22.6655 32.9815 22.042C32.9358 21.8572 33.0043 21.5686 33.1298 21.4416C36.9644 17.5158 37.8773 12.6779 37.0557 7.48198C36.3253 2.75951 31.6462 -0.658225 26.5906 0.103837C23.1327 0.634971 19.9601 3.39456 19.0585 6.82384C18.545 8.78672 18.6134 10.7727 18.8531 12.7587C19.2411 15.9686 20.3481 18.8783 22.6762 21.1875C24.4337 22.9195 26.5221 23.8432 29.0214 23.4622C29.6377 23.3698 30.2425 23.162 30.8816 23.0119C30.9729 23.289 31.0414 23.5546 31.1669 23.797C31.3724 24.2127 31.2354 24.4436 30.8816 24.6976C30.0485 25.2865 29.2268 25.91 28.428 26.5566C28.1084 26.8106 27.903 26.7991 27.5835 26.5566C26.545 25.7368 25.495 24.9517 24.4451 24.155C23.4408 23.3929 23.0528 23.416 22.1512 24.3397C21.6605 24.8362 21.1812 25.3442 20.6791 25.8176C20.4394 26.037 20.1541 26.1987 19.8916 26.395C19.8117 26.4527 19.7433 26.4989 19.6634 26.522L17.0385 27.8152C16.7989 27.9422 16.6277 28.0461 16.4565 28.1269C15.1669 28.8082 13.8203 29.4086 12.5878 30.1822C10.0885 31.7409 8.45652 33.9694 8.27392 36.983C8.11415 39.5348 8.22827 42.1096 8.22827 44.6729C8.22827 44.7075 8.26251 44.7306 8.28533 44.7884C8.99289 44.7884 9.71187 44.7884 10.4879 44.7884C10.4879 44.5574 10.4879 44.3612 10.4879 44.1649C10.4879 42.2251 10.5335 40.2853 10.4765 38.357C10.3966 35.4127 11.709 33.2882 14.1969 31.9026C16.0799 30.8519 18.0314 29.9397 19.9487 28.9583C19.9943 28.9352 20.0514 28.9352 20.1313 28.9236C20.4166 30.644 20.7133 32.3414 20.9986 34.0502C21.204 35.2626 21.8089 35.5974 22.9387 35.1356C24.4451 34.5236 25.9515 33.9348 27.4465 33.2997C27.8574 33.1265 28.1883 33.1381 28.5878 33.3113C30.117 33.9463 31.6577 34.5698 33.1983 35.1818C34.1912 35.5744 34.8417 35.1933 35.0015 34.1311C35.1042 33.4614 35.2183 32.7801 35.3324 32.1104C35.515 31.0482 35.6976 29.9744 35.8916 28.8428C37.9116 29.8704 39.8859 30.8172 41.7918 31.868C44.3025 33.2535 45.6149 35.4012 45.535 38.3686C45.4779 40.3084 45.5236 42.2482 45.5236 44.1764C45.5236 44.3727 45.5236 44.569 45.5236 44.7653C46.3224 44.7653 47.0414 44.7653 47.7718 44.7653C47.7832 44.6383 47.806 44.5574 47.806 44.4651C47.8174 42.1904 47.8517 39.8812 47.806 37.5834ZM23.9544 19.2708C22.2311 17.3541 21.4323 15.0333 21.1127 12.5162C21.0442 11.9851 21.0442 11.4539 20.9986 10.9228C20.9758 10.6111 21.0785 10.4609 21.398 10.4032C22.448 10.1838 23.3952 9.71043 24.2169 9.01765C24.4451 8.82136 24.6049 8.83291 24.8217 9.01765C26.1227 10.1146 27.652 10.588 29.3181 10.5995C30.1398 10.5995 30.9615 10.5995 31.7718 10.5187C32.2853 10.4725 32.6163 9.98755 32.6277 9.45641C32.6391 8.91373 32.331 8.46342 31.8288 8.34796C31.5892 8.29023 31.3267 8.27868 31.0756 8.27868C30.3681 8.26713 29.6491 8.27868 28.9415 8.25559C27.6063 8.2094 26.5221 7.63208 25.6434 6.63909C24.8217 5.70384 24.194 5.70384 23.3495 6.66219C22.7333 7.36652 21.9458 7.87456 21.1013 8.04775C21.7404 5.496 23.1555 3.71786 25.5293 2.80569C30.0942 1.05064 34.9444 4.43373 35.0243 9.37559C35.0699 11.7541 34.8759 14.0865 33.9287 16.3034C33.3923 17.5504 32.7076 18.6935 31.7147 19.6288C29.2953 21.9034 26.1912 21.7649 23.9544 19.2708ZM32.9701 32.6069C31.943 32.1913 30.9957 31.7987 30.0371 31.4177C27.6291 30.4593 28.3823 30.4939 26.0885 31.3946C25.1413 31.764 24.194 32.1566 23.2468 32.5377C23.2126 32.5492 23.1783 32.5377 23.0756 32.5377C22.9044 31.4869 22.7219 30.4247 22.5393 29.3508C22.505 29.1661 22.505 28.9814 22.448 28.8082C22.0143 27.6535 22.5849 26.9377 23.5207 26.3372C24.6734 27.2032 25.8374 28.0923 27.0015 28.9698C27.8688 29.628 28.1883 29.628 29.0442 28.9814C30.2083 28.1038 31.3724 27.2148 32.6733 26.2333C33.0043 26.6144 33.3467 26.9954 33.6662 27.388C33.7233 27.4688 33.7803 27.5958 33.7689 27.6882C33.495 29.3047 33.2325 30.9212 32.9701 32.6069Z" fill="#3379B7"/>
</g>
<defs>
<clipPath id="clip0">
<rect width="56" height="44.8" fill="white"/>
</clipPath>
</defs>
</svg>
