<svg width="56" height="56" viewBox="0 0 56 56" fill="none" xmlns="http://www.w3.org/2000/svg">
<g clip-path="url(#clip0)">
<path d="M16.45 16.1875C16.2422 15.9797 16.1328 15.7062 16.1328 15.4109C16.1328 15.1265 16.2531 14.8422 16.45 14.6344C16.6578 14.4265 16.9312 14.3172 17.2266 14.3172C17.5109 14.3172 17.7953 14.4375 18.0031 14.6344C18.2109 14.8422 18.3203 15.1156 18.3203 15.4109C18.3203 15.6953 18.2 15.9797 18.0031 16.1875C17.7953 16.3953 17.5219 16.5047 17.2266 16.5047C16.9422 16.5047 16.6578 16.3953 16.45 16.1875Z" fill="#FAB606"/>
<path d="M42 30.625C41.7156 30.625 41.4312 30.5047 41.2234 30.3078C41.0156 30.1 40.9062 29.8266 40.9062 29.5312C40.9062 29.2469 41.0266 28.9625 41.2234 28.7547C41.4312 28.5469 41.7047 28.4375 42 28.4375C42.2844 28.4375 42.5688 28.5578 42.7766 28.7547C42.9844 28.9625 43.0938 29.2359 43.0938 29.5312C43.0938 29.8156 42.9734 30.1 42.7766 30.3078C42.5688 30.5047 42.2844 30.625 42 30.625Z" fill="#3379B7"/>
<path d="M25.6922 30.0234C25.9 29.8156 26.1734 29.7062 26.4688 29.7062C26.7531 29.7062 27.0375 29.8265 27.2453 30.0234C27.4531 30.2312 27.5625 30.5047 27.5625 30.8C27.5625 31.0844 27.4422 31.3687 27.2453 31.5765C27.0375 31.7844 26.7641 31.8937 26.4688 31.8937C26.1844 31.8937 25.9 31.7734 25.6922 31.5765C25.4844 31.3687 25.375 31.0953 25.375 30.8C25.375 30.5047 25.4953 30.2312 25.6922 30.0234Z" fill="#FAB606"/>
<path d="M17.6641 9.86563L19.775 10.4344L21.8313 10.9813C23.2094 11.3531 24.0406 12.775 23.6687 14.1641L22.9797 16.7234C25.6813 18.9875 27.4531 22.2469 27.8906 25.7469C27.9672 26.3484 27.5406 26.8953 26.9391 26.9719C26.3375 27.0484 25.7906 26.6219 25.7141 26.0203C25.3203 22.8484 23.6359 19.9281 21.0766 18.0031C20.7156 17.7297 20.5625 17.2813 20.6828 16.8438L21.5578 13.5953C21.6125 13.3766 21.4812 13.1469 21.2625 13.0922L14.875 11.375C14.7328 11.3313 14.6234 11.3859 14.5687 11.4188C14.5141 11.4516 14.4156 11.5281 14.3828 11.6703L13.5078 14.9188C13.3875 15.3453 13.0266 15.6625 12.5891 15.7172C7.64531 16.3188 3.57656 19.9938 2.48281 24.85C1.09375 30.975 4.84531 37.1328 10.8828 38.85C11.2875 38.9484 11.8234 38.9156 12.1953 38.7078C12.5781 38.4891 12.8516 38.1391 12.9609 37.7125C13.1906 36.8375 12.6766 35.9406 11.8016 35.7C7.2625 34.4859 4.55 29.7938 5.76406 25.2547C6.78125 21.4375 10.2375 18.9219 14 18.9219C14.7328 18.9219 15.4656 19.0203 16.2094 19.2172C20.7484 20.4313 23.4609 25.1234 22.2469 29.6625C21.3172 33.1516 18.3422 35.5469 14.9516 35.9297C15.225 36.6516 15.2797 37.4609 15.0719 38.2703C14.9844 38.6094 14.8422 38.9375 14.6672 39.2328C18.0688 39.025 21.3281 37.3625 23.45 34.5516C23.8109 34.0703 24.5 33.9719 24.9812 34.3328C25.4625 34.6938 25.5609 35.3828 25.2 35.8641C23.5156 38.0953 21.2297 39.7578 18.5828 40.6766C15.8703 41.6172 12.9609 41.6938 10.1937 40.9063C6.74844 39.9328 3.83906 37.6797 2.00156 34.5844C0.131248 31.5 -0.448439 27.8688 0.339061 24.3797C1.58594 18.8672 6.04844 14.6453 11.5719 13.6719L12.2609 11.1125C12.4359 10.4453 12.8734 9.88751 13.475 9.53751C13.8797 9.30782 14.3172 9.18751 14.7656 9.18751C14.9953 9.18751 15.2141 9.22032 15.4437 9.27501L17.6641 9.86563ZM14 33.7969C16.8 33.7969 19.3703 31.9266 20.125 29.0938C21.0328 25.7141 19.0203 22.225 15.6406 21.3281C12.2609 20.4203 8.77187 22.4328 7.875 25.8125C6.96719 29.1922 8.97969 32.6813 12.3594 33.5781C12.9062 33.7313 13.4531 33.7969 14 33.7969Z" fill="#FAB606"/>
<path d="M51.8219 51.975C49.1203 54.6219 45.5547 56.0547 41.7813 56C38.2047 55.9453 34.8141 54.5344 32.2328 52.0188C29.6516 49.5031 28.1531 46.1453 28.011 42.5688C27.7922 36.925 31.0078 31.686 36.0938 29.3125V26.6656C36.0938 25.2328 37.2641 24.0735 38.686 24.0735H40.9063V22.5313C40.3594 22.4875 39.8235 22.3235 39.3313 22.0391C38.4672 21.5469 37.8547 20.7375 37.6031 19.786L36.925 17.2485C36.75 16.6031 36.761 15.9578 36.9141 15.3563C36.2688 15.1922 35.6781 14.8641 35.1969 14.3828L33.3375 12.5235C32.7141 11.9 32.3422 11.1016 32.2656 10.2375C31.3797 10.4125 30.4828 10.2594 29.6953 9.81096L27.4203 8.49846C26.775 8.12658 26.261 7.5797 25.9438 6.92345C25.6485 7.09845 25.3313 7.24064 24.9922 7.32814L22.4547 8.00627C21.9735 8.13752 21.4703 8.17033 20.9891 8.09377C20.825 8.05001 20.6391 8.00627 20.4422 7.97345C19.3047 7.79845 18.5281 6.66095 18.5281 6.66095C18.2438 6.27814 18.025 5.84064 17.8938 5.37033C17.3578 3.39064 18.5391 1.34533 20.5188 0.820328L23.0563 0.142204C23.3735 0.0547028 23.7016 0.0109558 24.0188 0.0109558C25.4188 0.0109558 26.7313 0.820332 27.3547 2.08908C27.9344 1.73908 28.6016 1.55314 29.2797 1.55314C29.9141 1.55314 30.5485 1.71721 31.1281 2.04533L33.4031 3.35783C34.486 3.98127 35.1313 5.07502 35.2406 6.23439C35.4703 6.19064 35.711 6.16877 35.9516 6.16877C36.9469 6.16877 37.8766 6.55158 38.5766 7.26252L40.436 9.12189C41.136 9.82189 41.5297 10.7625 41.5297 11.7469C41.5297 12.0641 41.486 12.3703 41.4094 12.6766C42.6672 12.9938 43.7282 13.9781 44.0891 15.3125L44.7672 17.85C45.0297 18.8125 44.8875 19.8078 44.3953 20.6719C44.0781 21.2297 43.6188 21.6891 43.0828 22.0063V24.0625H45.2922C46.725 24.0625 47.8844 25.2328 47.8844 26.6547V29.3125C50.1485 30.3735 52.0844 32.0031 53.5172 34.0813C55.1469 36.4219 56 39.1563 56 42C56 45.7735 54.5125 49.3172 51.8219 51.975ZM25.5063 3.32502C25.2875 2.5047 24.4453 2.02345 23.636 2.2422L21.0985 2.92033C20.2781 3.13908 19.7969 3.98127 20.0156 4.79064C20.125 5.18439 20.3766 5.51252 20.7266 5.72033C20.9672 5.85158 21.2297 5.92814 21.4922 5.92814C21.6235 5.92814 21.7547 5.90627 21.886 5.87346L24.4235 5.19533C25.2328 4.97658 25.725 4.14533 25.5063 3.32502ZM32.3203 5.25002L30.0453 3.93752C29.3125 3.51095 28.3719 3.76252 27.9563 4.49533C27.7485 4.84533 27.6938 5.26096 27.8031 5.65471C27.9125 6.04845 28.1641 6.37658 28.5141 6.58439L30.7891 7.89689C31.0297 8.02814 31.2922 8.10471 31.5547 8.10471C31.686 8.10471 31.8172 8.08283 31.9485 8.05002C32.3422 7.94064 32.6703 7.68908 32.8781 7.33908C33.2938 6.60627 33.0422 5.67658 32.3203 5.25002ZM41.9125 53.8125C41.8688 53.8125 41.9016 53.8125 41.9125 53.8125V53.8125ZM38.9047 10.6641L37.0453 8.8047C36.761 8.52033 36.3672 8.35627 35.9625 8.35627C35.5578 8.35627 35.1641 8.52033 34.8797 8.8047C34.5953 9.08908 34.4313 9.48283 34.4313 9.88752C34.4313 10.2922 34.5953 10.686 34.8797 10.9703L36.7391 12.8297C37.0235 13.1141 37.4172 13.2781 37.8219 13.2781C38.2266 13.2781 38.6203 13.1141 38.9047 12.8297C39.1891 12.5453 39.3531 12.1516 39.3531 11.7469C39.3531 11.3313 39.1891 10.9485 38.9047 10.6641ZM42.6672 18.4078L41.9891 15.8703C41.7703 15.05 40.9281 14.5688 40.1188 14.7875C39.2985 15.0063 38.8172 15.8485 39.036 16.6578L39.7141 19.1953C39.8235 19.5891 40.075 19.9172 40.425 20.125C40.6657 20.2563 40.9282 20.3328 41.1907 20.3328C41.3219 20.3328 41.4532 20.311 41.5844 20.2781C41.9782 20.1688 42.3063 19.9172 42.5141 19.5672C42.7219 19.2172 42.7766 18.8016 42.6672 18.4078ZM46.4078 31.0406C45.9922 30.8766 45.7188 30.4719 45.7188 30.0235V26.6547C45.7188 26.425 45.5328 26.25 45.3141 26.25H38.6969C38.4672 26.25 38.2922 26.436 38.2922 26.6547V30.0235C38.2922 30.4719 38.0188 30.8656 37.6031 31.0406C32.9766 32.9 30.0016 37.5047 30.1985 42.4813C30.45 48.7375 35.6453 53.7141 41.9125 53.8125C41.9235 53.8125 41.9344 53.8125 41.9344 53.8125C42.8313 53.8016 43.6516 53.0688 43.6516 52.1719C43.6516 51.2641 42.9188 50.5313 42.011 50.5313C37.3078 50.5313 33.4797 46.7031 33.4797 42C33.4797 37.2969 37.3078 33.4688 42.011 33.4688C46.7141 33.4688 50.5422 37.2969 50.5422 42C50.5422 45.6094 48.2891 48.6938 45.1172 49.9406C45.5657 50.5641 45.8391 51.3406 45.8391 52.1719C45.8391 52.5438 45.7844 52.8938 45.686 53.2328C47.3922 52.675 48.9672 51.7235 50.2907 50.411C52.5547 48.1688 53.8125 45.1828 53.8125 42C53.8125 37.1547 50.9032 32.8563 46.4078 31.0406ZM48.3438 42C48.3438 38.5 45.5 35.6563 42 35.6563C38.5 35.6563 35.6563 38.5 35.6563 42C35.6563 45.5 38.5 48.3438 42 48.3438C45.5 48.3438 48.3438 45.5 48.3438 42Z" fill="#3379B7"/>
</g>
<defs>
<clipPath id="clip0">
<rect width="56" height="56" fill="white" transform="matrix(1 0 0 -1 0 56)"/>
</clipPath>
</defs>
</svg>
