<svg width="56" height="55" viewBox="0 0 56 55" fill="none" xmlns="http://www.w3.org/2000/svg">
<g clip-path="url(#clip0)">
<path d="M46.6458 5.79815C46.6458 9.01681 44.0677 11.5963 40.8507 11.5963C37.6566 11.5963 35.0328 8.99398 35.0328 5.79815C35.0214 2.62515 37.6452 0 40.8393 0C44.0449 0 46.6458 2.59091 46.6458 5.79815ZM44.3529 5.79815C44.3529 3.86924 42.7672 2.27132 40.8393 2.28274C38.9228 2.28274 37.3143 3.90348 37.3143 5.80956C37.3143 7.72706 38.9228 9.31357 40.8507 9.31357C42.7786 9.31357 44.3529 7.73848 44.3529 5.79815Z" fill="#3379B7"/>
<path d="M10.5064 11.5735C7.31228 11.5735 4.73416 9.00537 4.73416 5.82096C4.73416 2.61371 7.32369 0.0228036 10.5292 0.0342173C13.7005 0.0342173 16.2787 2.63654 16.2673 5.82096C16.2673 9.00537 13.6891 11.5735 10.5064 11.5735ZM10.4836 9.33637C12.4571 9.33637 14.0314 7.78411 14.0314 5.82096C14.0428 3.86922 12.4571 2.25989 10.5178 2.25989C8.55571 2.24847 6.97005 3.82356 6.95865 5.7753C6.95865 7.73845 8.5329 9.32496 10.4836 9.33637Z" fill="#FAB606"/>
<path d="M16.2787 42.0252C16.2787 45.7232 16.2787 49.4327 16.2787 53.1307C16.2787 53.2905 16.2787 53.4617 16.2787 53.6215C16.2445 54.2606 15.8452 54.7172 15.252 54.7743C14.7272 54.8313 14.2367 54.4319 14.0998 53.8269C14.0542 53.6329 14.0428 53.4275 14.0428 53.2334C14.0428 45.7917 14.0314 38.35 14.0428 30.9082C14.0428 30.6001 14.0656 30.2919 14.1455 29.9951C14.2938 29.4587 14.7387 29.1962 15.3204 29.2418C15.7996 29.2875 16.1874 29.6527 16.2673 30.1549C16.2901 30.3147 16.2787 30.4859 16.2787 30.6457C16.2787 34.4351 16.2787 38.2358 16.2787 42.0252Z" fill="#FAB606"/>
<path d="M39.6985 44.3536C39.6985 41.3974 39.6985 38.4527 39.6985 35.4966C39.6985 35.2797 39.6985 35.0628 39.7213 34.846C39.7898 34.2981 40.2461 33.8872 40.7936 33.853C41.2842 33.8302 41.7519 34.1611 41.8888 34.6634C41.9572 34.903 41.98 35.1656 41.98 35.4167C41.9914 41.3404 41.9914 47.2641 41.9914 53.1878C41.9914 53.3133 41.9914 53.4389 41.9914 53.5758C41.9458 54.3291 41.4439 54.8428 40.7936 54.8085C40.1548 54.7743 39.7099 54.2949 39.7099 53.5416C39.6985 50.4827 39.7099 47.4125 39.6985 44.3536C39.7099 44.3536 39.7099 44.3536 39.6985 44.3536Z" fill="#3379B7"/>
<path d="M11.6015 44.3422C11.6015 47.3326 11.6015 50.3229 11.6015 53.3133C11.6015 54.1922 11.3848 54.546 10.7688 54.7172C10.187 54.8884 9.54817 54.5118 9.4455 53.9183C9.41128 53.7242 9.41128 53.5188 9.41128 53.3133C9.41128 47.3668 9.39987 41.4203 9.39987 35.4737C9.39987 35.2569 9.41128 35.04 9.43409 34.8231C9.50254 34.2525 9.94744 33.8872 10.5292 33.8986C11.0996 33.8986 11.5217 34.2867 11.5787 34.8688C11.5901 35.0172 11.5901 35.1656 11.5901 35.3025C11.6015 38.3157 11.6015 41.329 11.6015 44.3422Z" fill="#FAB606"/>
<path d="M46.6571 49.6153C46.6571 50.8708 46.6685 52.1263 46.6571 53.3818C46.6457 54.1693 46.3948 54.5688 45.813 54.74C45.2084 54.9226 44.5581 54.5574 44.4326 53.9411C44.3756 53.69 44.3642 53.4389 44.3642 53.1878C44.3642 50.7795 44.3642 48.3826 44.3642 45.9743C44.3642 44.9242 44.7635 44.365 45.505 44.365C46.2465 44.3536 46.6571 44.9128 46.6571 45.9629C46.6571 47.1727 46.6571 48.394 46.6571 49.6153Z" fill="#3379B7"/>
<path d="M41.9572 18.707C41.9572 19.4603 41.9572 20.1794 41.9572 20.9213C41.2157 20.9213 40.497 20.9213 39.7441 20.9213C39.7441 20.1794 39.7441 19.4603 39.7441 18.707C40.4856 18.707 41.2043 18.707 41.9572 18.707Z" fill="#3379B7"/>
<path d="M41.9572 25.5895C41.2043 25.5895 40.5085 25.5895 39.7556 25.5895C39.7556 24.8476 39.7556 24.1171 39.7556 23.3524C40.497 23.3524 41.2043 23.3524 41.9572 23.3524C41.9572 24.0943 41.9572 24.8019 41.9572 25.5895Z" fill="#3379B7"/>
<path d="M55.9772 33.8758C55.9658 33.1225 55.5209 32.723 54.7451 32.7002C53.8325 32.6659 52.9199 32.6888 52.0073 32.6774C51.7906 32.6774 51.5738 32.6545 51.3 32.6431C51.3 32.3806 51.3 32.1752 51.3 31.9583C51.3 28.3059 51.3229 24.665 51.2886 21.0126C51.2544 17.0292 48.2428 14.0388 44.2844 14.0046C42.3907 13.9932 40.497 13.9703 38.592 14.016C37.839 14.0388 37.0633 14.153 36.3447 14.3812C34.7134 14.8948 33.4471 15.9677 32.352 17.2346C30.253 19.6772 28.1654 22.1311 26.0892 24.5851L27.5037 26.4227C29.7168 23.8432 31.9071 21.2523 34.1202 18.6842C35.5119 17.0749 37.1774 16.1047 39.4133 16.2531C40.9533 16.3558 42.5162 16.2645 44.0562 16.2645C47.0336 16.2759 49.0185 18.2733 49.0185 21.2523C49.0185 24.8476 49.0185 28.4429 49.0185 32.0268C49.0185 32.2208 49.0071 32.4148 48.9843 32.6545C47.9348 32.6545 46.9309 32.6545 45.9271 32.6545C44.7293 32.6545 44.3528 33.0198 44.3414 34.2182C44.33 36.2841 44.33 38.3385 44.33 40.4044C44.33 41.5458 44.7407 41.9567 45.8814 41.9567C47.7066 41.9567 49.5319 41.9567 51.3457 41.9567C52.418 41.9567 53.5017 41.9681 54.574 41.9567C55.4524 41.9453 55.9429 41.5458 55.9543 40.7468C56 38.4641 56 36.1699 55.9772 33.8758ZM53.707 39.1946C53.707 39.4799 53.6956 39.6854 53.3192 39.6854C51.186 39.6739 49.0641 39.6739 46.9309 39.6739C46.8625 39.6739 46.794 39.6397 46.6914 39.6169C46.6914 38.0874 46.6914 36.5694 46.6914 34.9715C47.6838 34.9715 48.6535 34.9715 49.6345 34.9715C50.8209 34.9715 51.9959 34.9829 53.1823 34.9601C53.5702 34.9487 53.7299 35.0514 53.7185 35.4737C53.6956 36.7178 53.707 37.9619 53.707 39.1946Z" fill="#3379B7"/>
<path d="M28.1426 28.6943L27.3327 27.6785C27.287 27.6215 27.23 27.5644 27.1844 27.5073C27.1273 27.4388 27.0817 27.3818 27.0589 27.3247L25.5189 25.3844C25.3021 25.1219 25.188 24.9849 25.074 24.8479C23.0662 22.3483 21.0927 19.8145 19.0393 17.3491C17.2255 15.1691 14.9668 13.868 12.0122 14.0164C10.3353 14.0962 8.65839 14.0278 6.98147 14.0392C3.7303 14.062 0.969654 16.2877 0.250974 19.4607C0.17112 19.8259 0.0912669 20.2026 0.0114136 20.5792C0.0114136 25.0306 0.0114136 29.4819 0.0114136 33.9332C0.296604 34.7893 0.935431 34.9947 1.75678 34.949C2.52109 34.9034 3.2854 34.9605 4.04971 34.9262C4.60868 34.892 4.74558 35.0974 4.74558 35.6453C4.72276 40.439 4.72276 45.2442 4.72276 50.0379C4.72276 51.2364 4.71135 52.4462 4.73417 53.6447C4.74558 54.2838 5.17907 54.7404 5.77226 54.786C6.2742 54.8317 6.76472 54.4436 6.89021 53.8729C6.94725 53.6447 6.95865 53.405 6.95865 53.1767C6.95865 45.735 6.95865 38.2933 6.95865 30.8515C6.95865 30.6689 6.97006 30.4863 6.93584 30.3037C6.82176 29.5732 6.38827 29.1966 5.72663 29.2422C5.12203 29.2879 4.73417 29.7444 4.71135 30.4521C4.69995 31.0684 4.69995 31.6961 4.71135 32.3125C4.72276 32.6207 4.58587 32.7462 4.28927 32.7348C3.79874 32.7234 3.30822 32.712 2.81769 32.7348C2.39561 32.7576 2.24731 32.6092 2.24731 32.1755C2.25871 28.4775 2.2359 24.768 2.25871 21.07C2.28153 18.7759 3.75311 16.6986 5.92056 16.4703C8.44164 16.2078 11.0198 16.2648 13.5523 16.4018C15.1721 16.4931 16.3585 17.6573 17.351 18.8786C20.0774 22.2342 22.7582 25.6127 25.4618 28.9911C25.804 29.4134 26.1235 29.8357 26.4315 30.2352C26.1463 30.5662 25.9067 30.8401 25.6443 31.1369C25.3934 30.9314 25.188 30.7602 24.9827 30.5776C22.0053 27.941 19.0393 25.2931 16.0619 22.6565C15.4573 22.1201 14.7615 22.1087 14.3166 22.6109C13.8831 23.1131 13.9515 23.7636 14.5447 24.2887C17.9442 27.3247 21.3551 30.3493 24.7659 33.374C25.4048 33.9332 25.9181 33.899 26.5569 33.3283C27.5836 32.4152 28.6103 31.4907 29.637 30.5776L28.1426 28.6943Z" fill="#FAB606"/>
<path d="M35.8655 22.2452C35.6146 22.3137 35.3864 22.4963 35.1811 22.679C33.0707 24.4823 30.9717 26.2857 28.8613 28.0891C28.8384 28.1119 28.8156 28.1233 28.7928 28.1461L30.253 30.0522C31.6789 28.7853 33.1049 27.507 34.5309 26.24C34.6563 26.1259 34.8046 26.0346 35.01 25.8748C35.01 26.2058 35.01 26.4227 35.01 26.6395C35.01 35.4851 35.01 44.3307 35.01 53.1764C35.01 53.4503 35.0214 53.7242 35.0898 53.9867C35.2267 54.5118 35.7287 54.8542 36.2306 54.8199C36.7782 54.7743 37.2116 54.3634 37.2687 53.7927C37.2915 53.5758 37.2915 53.359 37.2915 53.1421C37.2915 44.6732 37.2915 36.2156 37.3029 27.7466C37.3029 26.2857 37.3143 24.8247 37.2915 23.3638C37.2801 22.5306 36.6184 22.017 35.8655 22.2452Z" fill="#3379B7"/>
</g>
<defs>
<clipPath id="clip0">
<rect width="56" height="54.8085" fill="white"/>
</clipPath>
</defs>
</svg>
