<svg width="59" height="56" viewBox="0 0 59 56" fill="none" xmlns="http://www.w3.org/2000/svg">
<g clip-path="url(#clip0)">
<path d="M0 16.6129C0.392899 15.4211 1.09535 14.6227 2.42883 14.575C3.03604 14.5512 3.64324 14.575 4.25045 14.575C4.44095 14.575 4.61954 14.575 4.89338 14.575C4.89338 13.848 4.89338 13.1688 4.89338 12.4895C4.89338 12.0128 4.88147 11.5361 4.89338 11.0594C4.91719 10.1775 5.3339 9.72461 6.22685 9.68886C6.86978 9.66503 7.52461 9.68886 8.16754 9.68886C13.1562 9.68886 18.1329 9.68886 23.1215 9.68886C26.2647 9.68886 26.9314 9.95104 29.3245 12.1796C29.4079 12.0366 29.4674 11.8698 29.5746 11.7506C30.7295 10.4635 32.1701 9.79612 33.8846 9.72461C34.6465 9.68886 35.1942 10.1179 35.2537 10.7972C35.3133 11.4526 34.9085 11.9889 34.1584 12.0723C32.9916 12.1915 31.9677 12.5371 31.2295 13.4905C30.7414 14.1102 30.4437 14.7895 30.4437 15.588C30.4318 22.3928 30.4199 29.1858 30.408 35.9906C30.408 39.2799 30.408 42.581 30.3961 45.8702C30.3961 46.1681 30.3723 46.5018 30.2651 46.764C30.0508 47.2407 29.6341 47.491 29.1102 47.4314C28.5745 47.3718 28.1816 47.0858 28.0744 46.5257C28.0268 46.2635 28.003 46.0013 28.003 45.7272C28.003 36.3124 28.003 26.9096 27.9911 17.4948C27.9911 16.5652 28.0149 15.6118 27.8006 14.718C27.4553 13.2283 26.1456 12.2511 24.6098 12.1439C24.0264 12.1081 23.4311 12.0962 22.8477 12.0962C17.9186 12.0962 12.9895 12.0962 8.06038 12.0962C7.82226 12.0962 7.57223 12.0962 7.26268 12.0962C7.26268 12.3703 7.26268 12.5729 7.26268 12.7755C7.26268 24.9432 7.26268 37.1228 7.26268 49.2905C7.26268 49.6123 7.25077 49.946 7.17934 50.2558C7.03646 50.804 6.50069 51.1615 5.98873 51.1139C5.44105 51.0662 4.98863 50.6491 4.91719 50.089C4.88147 49.8506 4.89338 49.6003 4.89338 49.3501C4.89338 38.8151 4.89338 28.2801 4.89338 17.757C4.89338 16.9823 4.89338 16.9823 4.13139 16.9823C3.69087 16.9823 3.25035 16.9942 2.82173 16.9823C2.50027 16.9704 2.3693 17.1134 2.39311 17.4233C2.40502 17.5544 2.39311 17.6855 2.39311 17.8285C2.39311 29.4837 2.39311 41.139 2.39311 52.7942C2.39311 53.0326 2.39311 53.2828 2.39311 53.5689C2.65504 53.5808 2.85745 53.5927 3.05985 53.5927C9.90582 53.5927 16.7637 53.5927 23.6097 53.5927C23.9549 53.5927 24.3002 53.6046 24.6336 53.6761C25.1693 53.7834 25.5622 54.3197 25.5384 54.844C25.5146 55.3922 25.1098 55.857 24.5621 55.9404C24.2764 55.9881 23.9906 55.9881 23.7049 55.9881C16.8708 55.9881 10.0368 55.9643 3.21463 56.0119C1.64303 56.0119 0.511959 55.5591 0 53.986C0 41.5322 0 29.0785 0 16.6129Z" fill="#3379B7"/>
<path d="M56.0536 53.5688C56.0536 53.2351 56.0536 52.973 56.0536 52.7108C56.0536 40.6027 56.0536 28.4946 56.0655 16.3864C56.0655 16.1243 56.0536 15.8502 56.0893 15.588C56.1727 15.0398 56.637 14.6346 57.1847 14.5869C57.6847 14.5512 58.1967 14.9087 58.3395 15.4211C58.411 15.6595 58.4348 15.9098 58.4348 16.1481C58.4348 28.5184 58.4348 40.9006 58.4348 53.2828C58.4348 54.9751 57.4942 55.9642 55.7917 55.9762C48.6599 55.9881 41.5282 55.9881 34.3965 55.9762C33.2774 55.9762 32.6701 55.2611 32.9916 54.3792C33.2059 53.7953 33.6822 53.5927 34.2536 53.5807C34.837 53.5569 35.4323 53.5807 36.0276 53.5807C42.4807 53.5807 48.9219 53.5807 55.3749 53.5807C55.5773 53.5688 55.7798 53.5688 56.0536 53.5688Z" fill="#3379B7"/>
<path d="M14.5849 39.2322C14.0015 39.8757 13.5252 40.4239 13.0252 40.9364C12.6799 41.3058 12.1918 41.4369 11.7751 41.1985C11.4536 41.0198 11.1202 40.6027 11.0726 40.269C11.0369 39.9234 11.275 39.4705 11.525 39.1845C11.9536 38.684 12.4775 38.2549 13.0133 37.7425C12.4656 37.2062 11.9417 36.7772 11.5369 36.2766C11.2869 35.9668 11.0369 35.502 11.0726 35.1445C11.1083 34.8108 11.4774 34.4294 11.787 34.2268C12.2156 33.9647 12.6799 34.1673 13.0252 34.5129C13.5252 35.0015 13.9896 35.5378 14.5134 36.0979C14.823 35.8119 15.0492 35.6093 15.2754 35.3948C15.6088 35.0849 15.9064 34.7393 16.2636 34.4414C16.7756 34.0242 17.3828 34.0481 17.8114 34.4652C18.2519 34.8823 18.2876 35.5497 17.8709 36.0621C17.5852 36.4077 17.2518 36.7295 16.9185 37.0394C16.6922 37.242 16.4422 37.4088 16.0969 37.671C16.7161 38.2549 17.2399 38.672 17.6566 39.1726C17.9067 39.4824 18.1567 39.9472 18.121 40.3166C18.0376 41.282 16.9423 41.6514 16.1922 40.9721C15.6921 40.4835 15.2278 39.9115 14.5849 39.2322Z" fill="#FAB606"/>
<path d="M13.3586 19.0798C14.7278 17.6974 15.9779 16.4341 17.2399 15.1709C17.609 14.8014 18.0257 14.5035 18.5972 14.6942C19.3354 14.9325 19.633 15.731 19.2282 16.3984C19.1211 16.5771 18.9782 16.7321 18.8234 16.8751C17.3709 18.329 15.9303 19.7829 14.4777 21.2369C13.7038 22.0115 13.1085 22.0115 12.3346 21.2369C11.6084 20.5099 10.8821 19.7948 10.1677 19.044C9.78675 18.6508 9.71532 18.1741 9.96534 17.6855C10.2273 17.173 10.6797 16.9942 11.2036 17.1253C11.4774 17.1968 11.7512 17.3875 11.9537 17.5901C12.418 18.0311 12.8347 18.5197 13.3586 19.0798Z" fill="#FAB606"/>
<path d="M13.3467 28.8044C14.5968 27.5531 15.7279 26.409 16.8709 25.2768C17.0733 25.0742 17.2638 24.8597 17.49 24.681C17.99 24.2758 18.6806 24.2996 19.0854 24.7286C19.5021 25.1577 19.5021 25.825 19.0854 26.3256C18.9425 26.5043 18.7758 26.6593 18.6091 26.8142C17.2399 28.1847 15.8708 29.5552 14.5016 30.9257C13.6681 31.7599 13.1205 31.7599 12.2751 30.9257C11.5846 30.2464 10.894 29.5671 10.2273 28.864C9.57247 28.1609 9.72724 27.2194 10.5369 26.8857C11.0964 26.6593 11.537 26.8857 11.918 27.279C12.3942 27.7676 12.8466 28.28 13.3467 28.8044Z" fill="#FAB606"/>
<path d="M53.5533 11.2858C53.5533 10.1179 53.1366 9.70078 51.9817 9.70078C51.3269 9.70078 50.672 9.70078 50.0172 9.70078C49.3386 9.70078 48.7909 10.249 48.7909 10.9283C48.7909 11.6076 49.3386 12.1558 50.0172 12.1558H51.1245V48.7304C50.8983 48.7304 50.7078 48.7304 50.5173 48.7304C45.1715 48.7304 39.8257 48.7304 34.4798 48.7423C34.0274 48.7423 33.5631 48.7542 33.1107 48.8257C31.5391 49.076 30.277 49.8744 29.2531 51.1258C29.1579 51.0543 29.0983 51.0304 29.0745 50.9947C27.7291 49.3739 25.9789 48.7065 23.8954 48.7304C19.7521 48.7661 15.5969 48.7423 11.4536 48.7423C11.2274 48.7423 10.9893 48.7423 10.7749 48.7661C10.2392 48.8495 9.85818 49.2666 9.81056 49.8148C9.76293 50.4107 10.0606 50.8755 10.6202 51.0304C10.894 51.1019 11.1798 51.1258 11.4655 51.1258C15.704 51.1258 19.9545 51.1258 24.193 51.1258C25.7646 51.1258 26.9433 51.8051 27.6458 53.2113C27.8244 53.5688 27.9315 53.9979 27.9792 54.4031C28.1101 55.4756 28.4554 55.9523 29.2174 55.9523C30.0032 55.9642 30.3842 55.4637 30.4794 54.3196C30.4913 54.1766 30.5151 54.0336 30.5509 53.8906C31.0271 52.1507 32.4082 51.1138 34.2893 51.1138C40.1709 51.1138 46.0525 51.1138 51.9222 51.1138C53.1247 51.1138 53.5414 50.7087 53.5414 49.5169C53.5533 36.7653 53.5533 24.0255 53.5533 11.2858Z" fill="#3379B7"/>
<path d="M38.6231 20.498C38.9803 20.5933 39.0518 20.7959 39.0518 21.1177C39.0518 26.4448 39.0399 31.7838 39.0518 37.1109C39.0518 37.5041 39.0399 37.9212 39.1589 38.2907C39.8971 40.5669 40.671 42.8312 41.433 45.1075C41.6949 45.8821 42.064 46.2039 42.6474 46.1919C43.207 46.18 43.5761 45.8463 43.8261 45.1313C43.8618 45.024 43.8975 44.9168 43.9332 44.8095C44.6595 42.6286 45.3858 40.4477 46.1001 38.2668C46.1716 38.0404 46.2073 37.7902 46.2073 37.5399C46.2073 33.2377 46.2073 28.9355 46.2073 24.6333C46.2073 24.5022 46.2073 24.3711 46.1954 24.2281C46.124 23.6323 45.6715 23.1913 45.1119 23.1675C44.5524 23.1317 44.0999 23.4654 43.9452 24.0494C43.8856 24.2639 43.8618 24.5022 43.8618 24.7287C43.8618 28.4469 43.8618 32.1532 43.8618 35.8714C43.8618 36.074 43.8618 36.2766 43.8618 36.515C43.0046 36.515 42.2188 36.515 41.3854 36.515C41.3615 36.3243 41.3377 36.1575 41.3377 35.9906C41.3258 31.0449 41.3258 26.0872 41.3139 21.1415C41.3139 20.7244 41.4687 20.5814 41.8854 20.5933C43.2308 20.6171 44.5881 20.6052 45.9335 20.6052C47.005 20.6052 47.4455 20.1643 47.4455 19.0679C47.4455 17.2803 47.4455 15.5046 47.4455 13.717H47.4336V7.56756C47.4217 6.47115 47.4098 5.37475 47.3503 4.27835C47.1955 1.94253 45.2905 -8.10809e-06 42.6355 -0.0119255C39.9447 -0.023843 37.885 1.9902 37.8373 4.5882C37.754 9.49818 37.8016 14.4201 37.8016 19.3301C37.8135 19.914 38.0636 20.343 38.6231 20.498ZM43.4332 38.9104C43.1713 39.685 42.945 40.4001 42.7069 41.1032C42.6593 41.1032 42.6117 41.1151 42.5521 41.1151C42.314 40.4001 42.0759 39.685 41.8259 38.9104C42.3855 38.9104 42.8498 38.9104 43.4332 38.9104ZM40.1471 4.95764C40.1471 3.43221 41.1949 2.31197 42.6117 2.30006C44.0047 2.28814 45.1119 3.44413 45.1119 4.93381C45.1238 9.17641 45.1119 13.4309 45.1238 17.6735C45.1238 18.1264 44.9929 18.2575 44.5405 18.2575C43.0998 18.2337 41.6592 18.2456 40.1352 18.2456C40.1352 17.3637 40.1352 16.5891 40.1352 15.8025C40.1471 12.2034 40.1471 8.58054 40.1471 4.95764Z" fill="#FAB606"/>
</g>
<defs>
<clipPath id="clip0">
<rect width="58.4348" height="56" fill="white"/>
</clipPath>
</defs>
</svg>
