<svg width="56" height="56" viewBox="0 0 56 56" fill="none" xmlns="http://www.w3.org/2000/svg">
<g clip-path="url(#clip0)">
<path d="M22.5072 0.0113937C23.1681 0.239268 23.8747 0.387386 24.4901 0.706409C26.5869 1.82299 27.3846 4.66002 26.2564 6.76785C25.0599 9.0238 22.3248 9.94669 20.1482 8.84151C18.1995 7.85025 17.2422 5.97029 17.5955 3.77131C17.8918 1.92553 19.4872 0.421567 21.4929 0.102543C21.5727 0.0911495 21.6525 0.0341811 21.7436 0C21.9943 0.0113937 22.2564 0.0113937 22.5072 0.0113937ZM24.4901 4.6942C24.5015 3.40671 23.4074 2.30153 22.1311 2.31292C20.8661 2.32431 19.7949 3.39532 19.7835 4.66002C19.7721 5.91333 20.8433 7.00712 22.1083 7.02991C23.4074 7.0413 24.4901 5.99308 24.4901 4.6942Z" fill="#3379B7"/>
<path d="M55.9886 41.0287C55.8519 41.8035 55.1681 42.0085 54.416 42.0085C52.6838 41.9857 50.9516 42.0085 49.2194 41.9971C48.4559 41.9971 47.9772 41.6439 47.8861 41.0515C47.7835 40.3451 48.2051 39.7412 48.9231 39.7298C50.906 39.6956 52.8889 39.707 54.8832 39.7184C55.51 39.7184 55.8861 40.14 55.9886 40.6869C56 40.8008 56 40.9147 55.9886 41.0287Z" fill="#3379B7"/>
<path d="M24.604 13.9915C23.1225 13.9915 21.6524 14.0142 20.171 13.9801C19.2593 13.9573 18.416 14.1168 17.5727 14.4472C15.2365 15.3587 12.8775 16.2132 10.5299 17.1133C10.2108 17.2387 9.89176 17.4779 9.68663 17.74C7.22509 20.8733 4.77495 24.0293 2.32481 27.174C2.17666 27.3563 2.02851 27.55 1.85757 27.7095C1.44731 28.0627 0.866117 28.0627 0.444464 27.7323C0.034208 27.4132 -0.11394 26.8777 0.102584 26.4106C0.205148 26.1941 0.3419 26.0004 0.478652 25.8181C3.03136 22.5367 5.57267 19.2553 8.14817 15.9968C8.43307 15.6322 8.86612 15.3131 9.29916 15.1422C12.1026 14.0598 14.906 13.0116 17.7322 11.9748C18.1653 11.8153 18.6553 11.7241 19.1111 11.7241C22.5527 11.7013 26.0057 11.7241 29.4473 11.7013C29.812 11.7013 30.2108 11.5988 30.5299 11.4393C33.2878 10.0834 36.0342 8.6934 38.792 7.32615C39.0769 7.18943 39.4074 7.0527 39.7151 7.0527C40.2052 7.0641 40.5698 7.36033 40.718 7.85026C40.8547 8.30601 40.7408 8.71618 40.3647 9.02381C40.1938 9.16054 40 9.27447 39.8063 9.36562C36.9231 10.8126 34.0513 12.2596 31.1567 13.6724C30.7806 13.8547 30.3248 13.9573 29.9032 13.9687C28.1368 14.0142 26.3704 13.9915 24.604 13.9915Z" fill="#3379B7"/>
<path d="M21.0029 26.6954C21.1738 25.5219 21.3561 24.28 21.5271 23.038C21.7322 21.6024 21.9259 20.1554 22.1539 18.7198C22.2792 17.8995 22.5755 17.626 23.3846 17.5121C25.8348 17.1589 28.2849 16.8057 30.7351 16.4411C30.9972 16.4069 31.2593 16.3044 31.4986 16.179C33.8918 14.8232 36.2735 13.456 38.6667 12.0887C38.8376 11.9862 39.02 11.895 39.2023 11.8267C39.7721 11.6102 40.3419 11.8039 40.6268 12.2824C40.9117 12.7723 40.7864 13.3648 40.3077 13.7408C40.171 13.8547 40.0114 13.9459 39.8519 14.037C37.7208 15.2562 35.5556 16.4297 33.4587 17.7172C32.3077 18.435 31.0883 18.754 29.7664 18.9135C28.1254 19.1186 26.4844 19.3693 24.8433 19.5858C24.4331 19.6427 24.2735 19.8022 24.2279 20.2352C24 22.0582 23.7379 23.8812 23.453 25.6928C23.3846 26.1143 23.5442 26.2625 23.8747 26.4334C25.6752 27.3221 27.453 28.2336 29.2536 29.1109C29.7892 29.3729 30.1425 29.7489 30.3818 30.2958C31.8177 33.5658 33.2764 36.813 34.7123 40.083C34.8376 40.3679 34.9288 40.7211 34.906 41.0173C34.849 41.5642 34.473 41.8718 33.926 41.9744C33.4245 42.0655 32.9687 41.7807 32.6952 41.1768C31.9203 39.4564 31.1567 37.7245 30.3818 35.9927C29.7436 34.5457 29.1054 33.0873 28.4445 31.6631C28.3191 31.3896 28.0684 31.1276 27.8063 30.9908C25.8348 29.9768 23.8405 28.9856 21.8462 28.0057C21.3561 27.7322 21.0029 27.3904 21.0029 26.6954Z" fill="#3379B7"/>
<path d="M18.5185 34.033C17.9487 33.919 17.4245 33.8393 16.9117 33.7139C13.5954 32.9278 11.8746 30.0452 12.7977 26.7866C13.151 25.5447 13.5726 24.3255 13.9943 23.1064C14.245 22.3886 14.8718 22.0696 15.4872 22.2861C16.1139 22.514 16.3761 23.1178 16.1481 23.8584C15.7493 25.1231 15.282 26.3764 14.9402 27.6525C14.4729 29.3843 15.3732 30.9795 17.1282 31.401C18.7578 31.7884 20.4216 32.0049 22.0627 32.3011C22.8718 32.4379 23.6923 32.5176 24.4786 32.7341C24.8661 32.8366 25.2877 33.1101 25.5157 33.4291C27.0199 35.6167 28.5014 37.8271 29.9487 40.0602C30.1424 40.3679 30.2678 40.8578 30.1538 41.1654C30.0399 41.4958 29.641 41.8149 29.2877 41.9402C28.8433 42.1111 28.433 41.849 28.1709 41.4617C27.7151 40.8008 27.2706 40.14 26.8262 39.4678C25.8917 38.0777 24.98 36.6649 24.0342 35.2863C23.886 35.0698 23.5783 34.8761 23.3162 34.8191C22.6781 34.6596 22.0171 34.614 21.3789 34.4773C20.9573 34.3862 20.7749 34.5001 20.6382 34.9217C19.2251 39.2057 17.7892 43.4783 16.3647 47.7624C16.2963 47.9561 16.2393 48.1497 16.1481 48.3207C15.8746 48.8676 15.3162 49.1068 14.7806 48.9131C14.1994 48.708 13.8689 48.1725 14.0513 47.5801C14.5299 46.0305 15.0427 44.5038 15.5555 42.9656C16.4786 40.1856 17.4131 37.4055 18.3362 34.6368C18.4045 34.4545 18.4501 34.2722 18.5185 34.033Z" fill="#3379B7"/>
<path d="M18.5869 18.6515C18.5983 19.2553 18.2792 19.6541 17.5727 19.8136C15.9886 20.1554 14.3932 20.4403 12.8091 20.7935C12.49 20.8619 12.1254 21.0669 11.9202 21.3176C10.2108 23.3343 8.52423 25.3738 6.82622 27.4018C6.35899 27.9601 5.86896 28.1082 5.34474 27.8804C4.76355 27.6297 4.50144 26.9347 4.78634 26.3764C4.86611 26.2169 4.96867 26.0574 5.08263 25.9207C6.8946 23.7331 8.70656 21.5341 10.5527 19.3807C10.8262 19.0617 11.2707 18.7882 11.6695 18.6971C13.4815 18.2869 15.3049 17.9451 17.1282 17.5919C17.9601 17.4324 18.5755 17.8995 18.5869 18.6515Z" fill="#3379B7"/>
<path d="M15.0655 35.2293C15.0541 35.2977 15.0086 35.4914 14.963 35.6851C13.8576 39.7412 12.7636 43.7974 11.6581 47.8421C11.3846 48.8562 10.6439 49.2436 9.89176 48.7878C9.41313 48.503 9.25359 47.9903 9.43592 47.2952C9.59547 46.68 9.7778 46.0647 9.93734 45.4495C10.8832 41.9744 11.8405 38.4993 12.7863 35.0356C12.8319 34.8761 12.8775 34.7166 12.9459 34.5685C13.1966 34.0216 13.7322 33.7709 14.302 33.9304C14.792 34.0671 15.0997 34.5229 15.0655 35.2293Z" fill="#3379B7"/>
<path d="M43.2023 46.623C43.2023 45.8482 43.2023 45.1532 43.2023 44.424C43.943 44.424 44.6724 44.424 45.4359 44.424C45.4359 45.1532 45.4359 45.871 45.4359 46.623C44.6952 46.623 43.9658 46.623 43.2023 46.623Z" fill="#3379B7"/>
<path d="M45.4359 49.0726C45.4359 49.8018 45.4359 50.5196 45.4359 51.2716C44.6952 51.2716 43.9772 51.2716 43.2251 51.2716C43.2251 50.5538 43.2251 49.8246 43.2251 49.0726C43.943 49.0726 44.6724 49.0726 45.4359 49.0726Z" fill="#3379B7"/>
<path d="M45.4131 55.9658C44.661 55.9658 43.9544 55.9658 43.2137 55.9658C43.2137 55.2252 43.2137 54.5074 43.2137 53.7554C43.9316 53.7554 44.6496 53.7554 45.4131 53.7554C45.4131 54.4846 45.4131 55.2366 45.4131 55.9658Z" fill="#3379B7"/>
<path d="M43.7151 39.7184C43.6467 39.7298 43.567 39.7298 43.4758 39.7298C43.2707 39.7298 42.1652 39.7184 41.9601 39.7184H40.5698V39.707C39.9202 39.707 39.2821 39.7184 38.6325 39.7184C37.8234 39.7298 37.4245 40.1058 37.3561 40.9033C37.3219 41.2338 37.3447 41.5642 37.3447 41.8832C37.3447 42.3162 37.3447 42.7377 37.3447 43.2163C37.0256 43.2163 36.8091 43.2163 36.5926 43.2163C34.2222 43.2163 31.8519 43.2163 29.4815 43.2163C28.4103 43.2163 28.0114 43.6264 28 44.7088C28 45.3583 28 46.0077 28 46.7141C27.7265 46.7141 27.5328 46.7141 27.339 46.7141C24.9459 46.7141 22.5641 46.7141 20.1709 46.7141C19.0541 46.7141 18.6667 47.0901 18.6781 48.2295C18.6781 48.708 18.6553 49.1752 18.6895 49.6537C18.7236 50.1208 18.5413 50.2348 18.0969 50.2348C15.6353 50.212 13.1738 50.2234 10.7123 50.2234C9.78917 50.2234 9.37892 50.6222 9.33333 51.5337C9.31054 52.0578 9.29915 52.5933 9.33333 53.1174C9.36752 53.6073 9.19658 53.7326 8.71795 53.7326C6.2792 53.7099 3.82906 53.7212 1.39031 53.7212C0.524217 53.7212 0 54.1656 0 54.8492C0 55.5328 0.535613 55.9772 1.39031 56C1.44729 56 1.50427 56 1.54986 56C4.37607 56 7.20228 56 10.0285 56C11.2365 56 11.6239 55.6126 11.6239 54.3935C11.6239 53.7782 11.6239 53.163 11.6239 52.5021C11.8519 52.5021 12.0114 52.5021 12.1709 52.5021C14.1538 52.5021 16.1481 52.4793 18.1311 52.5021C20.9003 52.5363 21.0142 52.4679 20.9459 49.6993C20.9459 49.4714 20.9459 49.2435 20.9459 48.9929C23.6239 48.9929 26.2108 48.9929 28.7977 48.9929C29.8462 48.9929 30.2564 48.5827 30.2564 47.5459C30.2564 46.8736 30.2564 46.2128 30.2564 45.5064C30.5413 45.5064 30.7464 45.5064 30.9402 45.5064C33.3333 45.5064 35.7151 45.5064 38.1083 45.5064C39.1795 45.5064 39.5897 45.0962 39.6125 44.0252C39.6239 43.3758 39.6125 42.7263 39.6125 42.0997C39.7037 42.0541 39.7379 42.0199 39.7721 42.0199C40.9915 42.0085 43.1225 41.9744 44.3419 42.0199C44.4103 42.0199 44.4672 42.0199 44.5356 42.0199C45.9715 41.8946 45.8462 39.7298 44.3989 39.7298H43.7151V39.7184Z" fill="#3379B7"/>
<path d="M55.9544 10.186C55.6012 9.13773 54.7237 8.34017 54.0969 7.42868C53.8576 7.09826 53.9145 6.87039 54.1197 6.56276C54.7578 5.60569 55.6467 4.75116 55.9772 3.64597C56.0114 3.53204 56.0114 3.4181 55.9886 3.30416C55.8291 2.5066 55.0769 2.38127 54.302 2.39267C51.6125 2.42685 48.9231 2.41545 46.2336 2.41545C46.0057 2.41545 45.7664 2.39267 45.4587 2.38127C45.4359 1.4242 45.6752 0.159504 44.3533 -8.07084e-06C44.2849 -0.0114018 44.2279 -0.0114018 44.1595 0.0113856C43.3276 0.170897 43.1909 0.934275 43.1909 1.74323C43.2251 5.73102 43.2023 9.7302 43.2023 13.718C43.2023 21.2948 43.2023 28.8716 43.2137 36.4484C43.2137 37.0637 43.7151 37.565 44.3419 37.565C44.9687 37.565 45.4701 37.0637 45.4587 36.437C45.4359 26.0574 45.4473 15.6663 45.4473 5.28666C45.4473 5.09297 45.4473 4.88789 45.4473 4.6828H52.6838C52.3305 5.2183 52.057 5.67405 51.7493 6.09562C51.2821 6.72227 51.2935 7.32614 51.7607 7.94139C52.0798 8.37435 52.3533 8.8301 52.7066 9.377C52.3533 9.39979 52.1368 9.41118 51.9316 9.41118C50.9288 9.42257 49.9259 9.39979 48.9231 9.43397C48.2849 9.45676 47.8974 9.9125 47.9088 10.5392C47.9202 11.1886 48.3533 11.576 49.1054 11.5874C50.8376 11.6102 52.5698 11.576 54.302 11.6216C55.0655 11.6443 55.8063 11.5076 55.9772 10.7442C56.0114 10.5961 56 10.3455 55.9544 10.186Z" fill="#FAB606"/>
</g>
<defs>
<clipPath id="clip0">
<rect width="56" height="56" fill="white"/>
</clipPath>
</defs>
</svg>
