<svg width="65" height="56" viewBox="0 0 65 56" fill="none" xmlns="http://www.w3.org/2000/svg">
<g clip-path="url(#clip0)">
<path d="M0 1.1354C0.302041 0.287109 0.906122 -0.0130545 1.79911 -3.90597e-06C4.14977 0.0391478 6.50044 0.0130467 8.8511 0.0130467C10.8472 0.0130467 11.6614 0.652525 12.1342 2.66231C12.3574 2.66231 12.6069 2.66231 12.8433 2.66231C16.8092 2.66231 20.7751 2.66231 24.7411 2.66231C25.03 2.66231 25.332 2.64926 25.6209 2.70146C26.4089 2.83197 26.8553 3.35399 26.8159 4.05872C26.7766 4.76345 26.2644 5.24633 25.4765 5.27243C24.2158 5.29853 22.9551 5.28548 21.6944 5.28548C18.7528 5.28548 15.8243 5.28548 12.8827 5.27243C12.6332 5.27243 12.3968 5.27243 12.1079 5.27243C12.1079 9.76182 12.1079 14.1729 12.1079 18.6754C12.8433 18.6754 13.5787 18.6884 14.301 18.6754C14.997 18.6493 15.5354 18.8972 16.0344 19.3801C19.869 23.2039 23.7167 27.0277 27.5645 30.8385C27.8797 31.1517 28.1948 31.4519 28.5494 31.6998C29.2323 32.1697 29.9545 32.0914 30.4798 31.5432C31.0051 30.9951 31.0708 30.2512 30.5455 29.6117C29.9939 28.9592 29.3242 28.398 28.7989 27.7325C28.5231 27.3801 28.2736 26.8711 28.313 26.4666C28.4181 25.3964 29.6656 25.0179 30.5192 25.7879C31.2152 26.4144 31.8587 27.106 32.5416 27.7586C32.9618 28.1631 33.3689 28.5938 33.8154 28.9592C34.5245 29.5073 35.2993 29.4551 35.8509 28.8809C36.4156 28.2936 36.455 27.5498 35.864 26.8581C35.2862 26.1925 34.6427 25.5922 34.0387 24.9527C33.671 24.5612 33.5134 24.0914 33.7104 23.5693C33.8942 23.0734 34.275 22.708 34.7872 22.7471C35.2206 22.7863 35.7196 22.9951 36.0479 23.2822C36.9409 24.0783 37.7551 24.9527 38.5955 25.7879C38.8056 25.9967 39.0158 26.1925 39.2653 26.3622C39.9744 26.845 40.7098 26.7798 41.2482 26.1925C41.7735 25.6313 41.826 24.9005 41.2876 24.261C40.7098 23.5824 40.0401 22.969 39.436 22.3034C38.7006 21.5073 38.9764 20.385 39.935 20.0848C40.5128 19.9152 40.9593 20.137 41.3533 20.5285C42.2069 21.3638 43.0473 22.2121 43.9009 23.0473C44.1373 23.2822 44.3868 23.5171 44.6626 23.6998C45.3586 24.1697 46.0546 24.1044 46.593 23.5432C47.1052 23.0082 47.1577 22.3165 46.7244 21.6639C46.593 21.4682 46.4486 21.2985 46.291 21.1289C43.3231 18.1794 40.3552 15.23 37.3874 12.2806C36.9015 11.7977 34.2619 11.8238 33.776 12.3067C32.1214 13.938 30.4798 15.5824 28.8252 17.2007C28.1554 17.8532 27.3938 18.3361 26.4482 18.5188C24.8067 18.845 23.1652 18.1664 22.2065 16.7178C21.3267 15.3997 21.3267 13.6117 22.2328 12.2936C22.5742 11.7977 22.9813 11.3409 23.4016 10.9103C25.923 8.37846 28.4837 5.87275 31.0051 3.32789C31.5041 2.83197 32.0557 2.62316 32.7386 2.62316C39.0289 2.63621 45.3323 2.62316 51.6227 2.62316C51.8722 2.62316 52.1217 2.62316 52.3843 2.62316C52.5682 1.33115 53.1591 0.417614 54.433 0.065249C54.6168 0.0130467 54.8007 -0.0130545 54.9845 -0.0130545C57.6766 -0.0261051 60.3556 -0.0261051 63.0477 -0.0130545C63.5861 -0.0130545 64.0326 0.195755 64.2952 0.691676C64.5316 1.1354 64.571 1.64437 64.2033 1.97063C63.875 2.2708 63.4023 2.51876 62.9689 2.55791C62.1678 2.64926 61.3405 2.58401 60.4344 2.58401C60.4344 2.85807 60.4344 3.07993 60.4344 3.28874C60.4344 5.97716 60.4344 8.66558 60.4344 11.354C60.4344 11.5367 60.4475 11.7325 60.4212 11.9152C60.3425 12.7504 59.804 13.2594 59.0424 13.2202C58.307 13.1941 57.8211 12.6721 57.8079 11.8369C57.7948 9.3181 57.7948 6.78629 57.7948 4.26753C57.7948 3.73246 57.7948 3.19739 57.7948 2.61011C56.8493 2.61011 55.9826 2.61011 55.037 2.61011C55.037 3.23654 55.037 3.83686 55.037 4.42414C55.037 9.80098 55.037 15.1909 55.0239 20.5677C55.0239 21.1811 55.2078 21.3377 55.7987 21.3246C58.0837 21.2855 60.3687 21.2985 62.6669 21.3116C63.8225 21.3116 64.4528 21.7945 64.4528 22.6166C64.4397 23.4519 63.8094 23.9217 62.6537 23.9217C60.2637 23.9217 57.8736 23.9217 55.4704 23.9217C53.4612 23.9217 52.4106 22.8646 52.4106 20.8548C52.4106 15.9086 52.4106 10.9625 52.4106 6.02936C52.4106 5.7814 52.4106 5.53344 52.4106 5.24633C52.1348 5.23328 51.9378 5.20717 51.7277 5.20717C45.6213 5.20717 39.5148 5.20717 33.4083 5.23328C33.0537 5.23328 32.6335 5.41598 32.384 5.65089C29.9939 7.98695 27.617 10.3491 25.2532 12.7243C24.9774 12.9984 24.6885 13.2985 24.4653 13.6248C24.0188 14.2904 24.0976 14.969 24.6229 15.5041C25.1482 16.0261 25.8442 16.1044 26.5139 15.6476C26.8422 15.4258 27.1311 15.1517 27.4069 14.8646C29.0484 13.2463 30.6899 11.6281 32.3052 9.99673C32.7911 9.50081 33.3295 9.2659 34.0387 9.292C35.168 9.3181 36.3105 9.2398 37.4399 9.292C37.847 9.30505 38.3329 9.47471 38.6218 9.74877C41.8654 12.9331 45.0697 16.1436 48.274 19.354C49.1538 20.2414 49.6922 21.3116 49.6791 22.6036C49.6397 25.0962 47.2103 26.9886 44.7414 26.4796C44.5575 26.4405 44.3737 26.4013 44.1898 26.3752C42.7584 28.907 42.0362 29.2724 38.7794 29.0897C37.6763 31.4519 35.7458 32.3393 33.4477 31.7129C33.2245 32.0914 33.0275 32.509 32.7648 32.8613C31.1364 35.0277 28.3787 35.1974 26.2907 33.2137C24.6229 31.6215 23.0076 29.9772 21.3792 28.3589C19.2255 26.2186 17.0587 24.0914 14.9313 21.938C14.4323 21.4421 13.9595 21.1289 13.2373 21.2333C12.8827 21.2855 12.5281 21.2463 12.2129 21.2463C12.1473 21.3246 12.0948 21.3507 12.0948 21.3768C11.8584 23.0865 10.7027 24 8.75918 23.9478C6.47417 23.8956 4.18917 23.9217 1.89104 23.9478C1.02431 24.0131 0.341437 23.7781 0 22.9038C0 22.7341 0 22.5644 0 22.4078C0.354569 21.5856 0.998047 21.3507 1.86477 21.3638C4.14977 21.4029 6.43478 21.3507 8.71978 21.3899C9.31073 21.4029 9.45518 21.2072 9.45518 20.646C9.42892 15.2431 9.44205 9.84013 9.44205 4.45024C9.44205 3.84991 9.44205 3.26264 9.44205 2.67536C8.47027 2.67536 7.60354 2.67536 6.68429 2.67536C6.68429 4.22838 6.68429 5.7292 6.68429 7.21696C6.68429 8.78303 6.69742 10.3491 6.67116 11.9021C6.65802 12.7896 6.05394 13.3246 5.22661 13.2463C4.49121 13.1811 4.05785 12.6068 4.04472 11.6672C4.04472 8.90049 4.04472 6.12071 4.04472 3.35399C4.04472 3.11908 4.04472 2.87112 4.04472 2.61011C3.24365 2.61011 2.54765 2.57096 1.85164 2.62316C0.95865 2.68841 0.315173 2.38825 0 1.50081C0 1.38336 0 1.25285 0 1.1354Z" fill="#3379B7"/>
<path d="M17.5577 45.2855C17.5577 44.385 17.5577 43.602 17.5577 42.7537C17.8073 42.7406 18.0305 42.7276 18.2537 42.7276C31.097 42.7276 43.9403 42.7276 56.7836 42.7276C57.6635 42.7276 57.6635 42.7276 57.6766 43.615C57.6766 45.2855 57.6766 45.2855 56.0088 45.2855C43.507 45.2855 30.992 45.2855 18.4901 45.2855C18.2012 45.2855 17.9123 45.2855 17.5577 45.2855Z" fill="#FAB606"/>
<path d="M17.5315 53.4421C17.886 53.4421 18.1356 53.4421 18.3851 53.4421C31.189 53.4421 43.9929 53.4551 56.7968 53.4551C57.6766 53.4551 57.6766 53.4551 57.6766 54.3426C57.6766 55.9739 57.6766 55.9739 56.0088 55.9739C50.2569 55.9869 44.505 56.013 38.7531 56.013C31.9375 56.013 25.1088 55.9869 18.2931 55.9869C17.6891 55.9869 17.4658 55.8303 17.5183 55.217C17.5709 54.6688 17.5315 54.0946 17.5315 53.4421Z" fill="#FAB606"/>
<path d="M10.7027 45.2855C9.86228 45.2855 9.02182 45.2985 8.18135 45.2855C7.28837 45.2724 6.81561 44.8287 6.80247 43.9413C6.77621 42.2186 6.77621 40.4829 6.80247 38.7602C6.81561 37.9119 7.28837 37.4551 8.14196 37.4551C9.87541 37.4421 11.622 37.4421 13.3554 37.4551C14.1828 37.4682 14.6687 37.9511 14.6818 38.7863C14.6949 40.509 14.6949 42.2447 14.6818 43.9674C14.6687 44.8026 14.1828 45.2594 13.3292 45.2724C12.4625 45.2985 11.5826 45.2855 10.7027 45.2855ZM12.1079 40C11.2543 40 10.4664 39.9869 9.66529 40.013C9.5471 40.013 9.36325 40.2349 9.35012 40.3654C9.31072 41.031 9.31072 41.6966 9.33699 42.3621C9.33699 42.4927 9.53397 42.7145 9.65216 42.7145C10.4532 42.7406 11.2674 42.7276 12.0947 42.7276C12.1079 41.7879 12.1079 40.9266 12.1079 40Z" fill="#FAB606"/>
<path d="M36.2054 48.1305C36.2054 48.9657 36.2054 49.7488 36.2054 50.5971C30.007 50.5971 23.8086 50.5971 17.584 50.5971C17.584 49.7749 17.584 48.9788 17.584 48.1305C23.7692 48.1305 29.9545 48.1305 36.2054 48.1305Z" fill="#FAB606"/>
<path d="M36.2317 37.4812C36.2317 38.2121 36.2317 38.8907 36.2317 39.5693C36.2317 40 35.9165 39.9478 35.667 39.9478C34.4983 39.9608 33.3164 39.9869 32.1476 39.9869C27.5382 39.9739 22.9288 39.9608 18.3194 39.9608C17.7416 39.9608 17.4789 39.8303 17.5315 39.2039C17.584 38.6558 17.5446 38.0946 17.5446 37.4812C23.7693 37.4812 29.9414 37.4812 36.2317 37.4812Z" fill="#FAB606"/>
<path d="M9.44207 52.894C10.3482 51.9804 11.2149 51.0538 12.1473 50.1925C12.4887 49.8662 12.9615 49.553 13.408 49.5008C14.3798 49.3834 15.0101 50.4796 14.5111 51.3148C14.3273 51.6281 14.0383 51.8891 13.7757 52.1631C12.6989 53.2463 11.622 54.3165 10.532 55.3866C9.73098 56.1697 9.06124 56.1566 8.24704 55.3736C7.91873 55.0473 7.59043 54.7341 7.27526 54.3948C6.69744 53.7814 6.64491 53.0114 7.1308 52.5024C7.65609 51.9543 8.3521 51.9674 9.03497 52.5546C9.15316 52.646 9.25822 52.7374 9.44207 52.894Z" fill="#FAB606"/>
<path d="M60.4081 16.0652C60.4081 16.9266 60.4081 17.7357 60.4081 18.584C59.5677 18.584 58.7403 18.584 57.8605 18.584C57.8605 17.7618 57.8605 16.9396 57.8605 16.0652C58.7009 16.0652 59.5151 16.0652 60.4081 16.0652Z" fill="#3379B7"/>
<path d="M12.1735 32.1044C13.014 32.1044 13.8019 32.1044 14.6555 32.1044C14.6555 32.9266 14.6555 33.7488 14.6555 34.597C13.8413 34.597 13.0271 34.597 12.1735 34.597C12.1735 33.7749 12.1735 32.9788 12.1735 32.1044Z" fill="#FAB606"/>
<path d="M20.066 34.6101C19.2255 34.6101 18.4244 34.6101 17.584 34.6101C17.584 33.7749 17.584 32.9527 17.584 32.1044C18.4113 32.1044 19.2255 32.1044 20.066 32.1044C20.066 32.9396 20.066 33.7357 20.066 34.6101Z" fill="#FAB606"/>
<path d="M9.31072 32.0783C9.31072 32.8874 9.32385 33.5922 9.29758 34.2969C9.29758 34.4143 9.08747 34.6101 8.96928 34.6101C8.28641 34.6362 7.5904 34.6232 6.8156 34.6232C6.8156 33.8271 6.80247 33.0832 6.82873 32.3393C6.82873 32.248 7.03885 32.0914 7.15704 32.0783C7.83991 32.0653 8.52278 32.0783 9.31072 32.0783Z" fill="#FAB606"/>
<path d="M4.07098 18.5971C4.07098 17.7488 4.07098 16.9396 4.07098 16.0783C4.92458 16.0783 5.75191 16.0783 6.63176 16.0783C6.63176 16.9135 6.63176 17.7357 6.63176 18.5971C5.7913 18.5971 4.96397 18.5971 4.07098 18.5971Z" fill="#3379B7"/>
</g>
<defs>
<clipPath id="clip0">
<rect width="64.4528" height="56" fill="white"/>
</clipPath>
</defs>
</svg>
