<svg width="56" height="56" viewBox="0 0 56 56" fill="none" xmlns="http://www.w3.org/2000/svg">
<g clip-path="url(#clip0)">
<path d="M54.9061 53.8126H50.0937V45.1721C50.0937 44.568 49.6039 44.0783 48.9999 44.0783C48.3959 44.0783 47.9062 44.568 47.9062 45.1721V53.8126H34.7812V33.0315C34.7812 32.4274 34.2914 31.9377 33.6875 31.9377H22.3125C21.7085 31.9377 21.2188 32.4274 21.2188 33.0315V53.8126H8.0938V29.0939H8.51468C8.80474 29.0939 9.08288 28.9786 9.28806 28.7735L28 10.0616L46.7119 28.7735C46.9171 28.9786 47.1952 29.0939 47.4853 29.0939H47.9062V37.297C47.9062 37.901 48.3959 38.3907 48.9999 38.3907C49.6039 38.3907 50.0937 37.901 50.0937 37.297V29.0939H54.9061C55.3486 29.0939 55.7473 28.8273 55.9166 28.4187C56.086 28.0101 55.9922 27.5395 55.6795 27.2267L28.7734 0.320575C28.3461 -0.106533 27.6538 -0.106533 27.2265 0.320575L16.9453 10.6018C16.5182 11.0289 16.5182 11.7215 16.9453 12.1486C17.3725 12.5758 18.065 12.5758 18.4922 12.1486L28 2.64074L52.2655 26.9064H47.9383L28.7734 7.74142C28.3461 7.31432 27.6538 7.31432 27.2265 7.74142L8.06154 26.9064H3.73435L12.3672 18.2737C12.7943 17.8465 12.7943 17.154 12.3672 16.7268C11.9401 16.2998 11.2475 16.2997 10.8203 16.7268L0.32033 27.2267C0.00762757 27.5395 -0.0861065 28.01 0.0832054 28.4187C0.252517 28.8274 0.651406 29.0939 1.09383 29.0939H5.90631V53.8125H1.09383C0.48986 53.8125 8.07232e-05 54.3022 8.07232e-05 54.9063C8.07232e-05 55.5104 0.48986 56 1.09383 56H7.00006H22.3125H33.6875H48.9999H54.9061C55.5101 56 55.9999 55.5104 55.9999 54.9063C55.9999 54.3022 55.5101 53.8126 54.9061 53.8126ZM32.5937 53.8126H23.4062V34.1252H32.5937V53.8126Z" fill="#3379B7"/>
<path d="M44.4062 31.9376H38.2812C37.6773 31.9376 37.1875 32.4273 37.1875 33.0313V43.9688C37.1875 44.5729 37.6773 45.0625 38.2812 45.0625H44.4062C45.0102 45.0625 45.5 44.5729 45.5 43.9688V33.0313C45.5 32.4273 45.0102 31.9376 44.4062 31.9376ZM43.3125 42.875H39.375V34.1251H43.3125V42.875Z" fill="#FAB606"/>
<path d="M17.7188 31.9376H11.5938C10.9898 31.9376 10.5001 32.4273 10.5001 33.0313V43.9688C10.5001 44.5729 10.9898 45.0625 11.5938 45.0625H17.7188C18.3228 45.0625 18.8125 44.5729 18.8125 43.9688V33.0313C18.8125 32.4273 18.3228 31.9376 17.7188 31.9376ZM16.625 42.875H12.6876V34.1251H16.625V42.875Z" fill="#FAB606"/>
<path d="M28 17.9726C25.2258 17.9726 22.9688 20.2297 22.9688 23.0039C22.9688 25.778 25.2258 28.0351 28 28.0351C30.7742 28.0351 33.0312 25.778 33.0312 23.0039C33.0312 20.2297 30.7742 17.9726 28 17.9726ZM28 25.8476C26.4319 25.8476 25.1563 24.5719 25.1563 23.0039C25.1563 21.4359 26.4319 20.1601 28 20.1601C29.5681 20.1601 30.8438 21.4359 30.8438 23.0039C30.8438 24.5719 29.5681 25.8476 28 25.8476Z" fill="#FAB606"/>
<path d="M26.695 43.1955C26.4917 42.9921 26.2094 42.8751 25.9219 42.8751C25.6342 42.8751 25.352 42.9921 25.1486 43.1955C24.9452 43.399 24.8281 43.6812 24.8281 43.9688C24.8281 44.2565 24.945 44.5386 25.1486 44.7421C25.3521 44.9455 25.6342 45.0626 25.9219 45.0626C26.2095 45.0626 26.4917 44.9455 26.695 44.7421C26.8985 44.5386 27.0156 44.2565 27.0156 43.9688C27.0156 43.6812 26.8986 43.399 26.695 43.1955Z" fill="#3379B7"/>
<path d="M15.3201 13.7737C15.1168 13.5703 14.8346 13.4533 14.5469 13.4533C14.2593 13.4533 13.9771 13.5703 13.7737 13.7737C13.5702 13.9772 13.4532 14.2594 13.4532 14.547C13.4532 14.8347 13.5701 15.1169 13.7737 15.3203C13.9772 15.5237 14.2593 15.6408 14.5469 15.6408C14.8346 15.6408 15.1168 15.5237 15.3201 15.3203C15.5235 15.1169 15.6407 14.8347 15.6407 14.547C15.6407 14.2594 15.5236 13.9772 15.3201 13.7737Z" fill="#3379B7"/>
<path d="M49.7731 40.169C49.5698 39.9657 49.2875 39.8485 48.9999 39.8485C48.7123 39.8485 48.4301 39.9656 48.2267 40.169C48.0232 40.3735 47.9062 40.6546 47.9062 40.9423C47.9062 41.2299 48.0231 41.5121 48.2267 41.7167C48.4301 41.9201 48.7123 42.036 48.9999 42.036C49.2876 42.036 49.5698 41.9201 49.7731 41.7167C49.9765 41.5121 50.0937 41.231 50.0937 40.9423C50.0937 40.6546 49.9766 40.3724 49.7731 40.169Z" fill="#3379B7"/>
</g>
<defs>
<clipPath id="clip0">
<rect width="56" height="56" fill="white"/>
</clipPath>
</defs>
</svg>
