<svg width="56" height="56" viewBox="0 0 56 56" fill="none" xmlns="http://www.w3.org/2000/svg">
<g clip-path="url(#clip0)">
<path d="M45.5021 56C45.5021 53.5375 45.5819 51.0749 45.4793 48.6124C45.3996 46.3665 44.2141 44.6336 42.322 43.5391C40.2817 42.3534 38.116 41.373 36.0073 40.3013C35.9845 40.2899 35.9389 40.3013 35.8592 40.3013C35.6084 41.7948 35.3462 43.2997 35.0955 44.8046C35.0613 45.0212 35.0271 45.2378 34.9815 45.4544C34.8105 46.4691 34.1722 46.8453 33.2033 46.4691C31.6076 45.842 30.0346 45.1922 28.4274 44.588C28.1539 44.4853 27.7891 44.4967 27.5156 44.5994C25.9654 45.1808 24.438 45.8192 22.8992 46.4235C21.7822 46.8681 21.1781 46.5261 20.9615 45.329C20.7108 43.8355 20.46 42.3534 20.2092 40.8599C20.175 40.6661 20.1294 40.4723 20.0839 40.2557C19.9813 40.2899 19.9129 40.3013 19.8445 40.3241C17.884 41.316 15.8665 42.2394 13.9629 43.3225C11.6605 44.6336 10.3953 46.6401 10.4409 49.3762C10.4751 51.5765 10.4637 53.7883 10.4637 55.9886C9.69997 55.9886 8.93628 55.9886 8.16119 55.9886C8.16119 53.7085 8.1498 51.4283 8.16119 49.1482C8.17259 45.728 9.75696 43.1515 12.6407 41.4528C14.7266 40.2215 16.9379 39.2068 19.1036 38.1352C19.9015 37.7362 20.6196 37.2801 21.2123 36.6189C21.577 36.2085 21.976 35.8323 22.3749 35.456C22.9676 34.886 23.4692 34.8518 24.1303 35.342C25.2701 36.1857 26.4213 37.0293 27.5384 37.9072C27.8461 38.1466 28.0627 38.1808 28.3818 37.9186C29.1797 37.2801 30.0004 36.6645 30.8325 36.0831C31.1858 35.8323 31.3226 35.6042 31.1174 35.1938C30.9921 34.9544 30.9351 34.6922 30.8325 34.4186C30.2056 34.5782 29.6129 34.772 29.0088 34.8632C26.4897 35.2394 24.3696 34.3502 22.6143 32.6059C20.289 30.3029 19.1606 27.4186 18.7958 24.215C18.5793 22.3111 18.5109 20.4072 18.9896 18.5147C19.8559 15.0945 23.0132 12.3013 26.5011 11.7883C31.1288 11.0928 35.369 13.8062 36.771 18.013C37.056 18.8795 37.1928 19.8257 37.2497 20.7378C37.3865 23.2003 37.1472 25.6173 36.2695 27.943C35.5856 29.7785 34.6053 31.4202 33.1691 32.7769C32.9298 33.0049 32.793 33.2101 32.9754 33.5293C32.9868 33.5407 32.9868 33.5635 32.9868 33.5863C33.2375 35.2508 34.3204 36.3681 35.5058 37.4169C35.711 37.5994 35.9617 37.7248 36.2011 37.8502C38.5264 39.0358 40.8972 40.1189 43.1541 41.4072C46.1177 43.1059 47.759 45.6938 47.7704 49.1824C47.7818 51.4625 47.7704 53.7427 47.7704 56.0228C47.0295 56 46.2658 56 45.5021 56ZM21.1325 19.6319C22.0672 19.3583 22.7739 18.8681 23.3552 18.2068C24.1645 17.2948 24.8028 17.2948 25.612 18.1954C26.5011 19.1873 27.6068 19.7687 28.9518 19.8143C29.6813 19.8371 30.4107 19.8143 31.1402 19.8371C31.4252 19.8485 31.733 19.8713 31.9951 19.9854C32.4738 20.202 32.6676 20.6352 32.5878 21.1596C32.508 21.6726 32.2117 22.0261 31.7102 22.0603C30.7071 22.1173 29.704 22.1173 28.7124 22.0831C27.2648 22.0375 25.9768 21.5244 24.8484 20.6124C24.5862 20.4072 24.4266 20.3616 24.1531 20.5896C23.3438 21.2736 22.4091 21.7182 21.3833 21.9349C21.0641 22.0033 20.9501 22.1287 20.9843 22.4365C21.0641 23.2345 21.0869 24.044 21.2237 24.8306C21.5998 27.0196 22.3977 29.0375 23.9251 30.702C25.8628 32.8111 28.473 33.2557 30.7185 31.842C31.9495 31.0668 32.8272 29.9495 33.4997 28.6726C34.7421 26.3127 35.0499 23.7818 35.0271 21.1596C34.9701 16.588 31.2656 13.3844 26.7519 14.0684C24.0391 14.4788 21.5884 16.873 21.1325 19.6319ZM32.9298 43.9039C33.2033 42.2394 33.4655 40.6433 33.7277 39.0472C33.7391 38.956 33.6935 38.8306 33.6251 38.7508C33.3059 38.3632 32.9754 37.9756 32.6448 37.5994C31.3226 38.5912 30.1486 39.4691 28.9632 40.3583C28.1653 40.9511 27.8233 40.9511 27.014 40.3469C25.8286 39.4691 24.6546 38.5798 23.4806 37.702C22.6257 38.2948 21.9646 38.9332 22.3977 40.0847C22.4661 40.2671 22.4661 40.4723 22.5003 40.6775C22.6827 41.7264 22.865 42.7866 23.0474 43.9039C24.4608 43.3453 25.8058 42.8209 27.1394 42.2622C27.7207 42.0228 28.2451 42.0228 28.815 42.2622C30.16 42.8095 31.4936 43.3339 32.9298 43.9039Z" fill="#3379B7"/>
<path d="M55.9999 17.6938C55.829 18.184 55.715 18.7085 55.4756 19.1645C54.8715 20.3159 53.8343 20.829 52.5805 20.9202C51.9991 20.9658 51.4862 20.5098 51.4292 19.9625C51.3608 19.3241 51.6914 18.8681 52.3069 18.7199C53.5151 18.4348 53.7203 18.1612 53.7203 16.93C53.7203 12.6091 53.7203 8.28826 53.7203 3.96741C53.7203 2.67914 53.2757 2.24592 51.9763 2.24592C44.5332 2.24592 37.1015 2.24592 29.6584 2.24592C28.3362 2.24592 27.9487 2.63354 27.9487 3.97882C27.9487 5.22149 27.9487 6.46416 27.9487 7.69543C27.9487 7.91204 27.9373 8.12865 27.8803 8.34526C27.7321 8.9495 27.2648 9.30292 26.6949 9.24592C26.1363 9.18891 25.7146 8.73289 25.7146 8.11725C25.6918 6.87458 25.6918 5.63191 25.7146 4.40064C25.726 3.8078 25.7032 3.18077 25.84 2.61074C26.2161 1.02605 27.5839 0.0113886 29.3279 0.0113886C36.9875 -1.20276e-05 44.6472 -1.20276e-05 52.3069 0.0113886C54.256 0.0113886 55.5326 1.12865 55.8974 3.00976C55.9088 3.08956 55.9658 3.16937 56.0113 3.24917C55.9999 8.07165 55.9999 12.8827 55.9999 17.6938Z" fill="#FAB606"/>
<path d="M15.1826 56C15.1826 54.0961 15.1826 52.1808 15.1826 50.2313C15.9462 50.2313 16.6643 50.2313 17.485 50.2313C17.485 52.158 17.485 54.0733 17.485 56C16.7213 56 15.9576 56 15.1826 56Z" fill="#3379B7"/>
<path d="M38.4922 56C38.5036 55.0309 38.5036 54.0733 38.5036 53.1042C38.5036 52.158 38.5036 51.2231 38.5036 50.2313C39.2673 50.2313 39.974 50.2313 40.7833 50.2313C40.7833 52.1466 40.7833 54.0733 40.7833 55.9886C40.031 56 39.2559 56 38.4922 56Z" fill="#3379B7"/>
<path d="M9.40363 33.324C9.81397 32.9136 10.2699 32.5488 10.6118 32.1042C11.6377 30.7361 12.9485 30.1547 14.6811 30.3827C15.5815 30.4967 16.5048 30.3941 17.4167 30.4169C18.1575 30.4397 18.5679 30.8501 18.5679 31.5113C18.5679 32.1612 18.1347 32.5716 17.3939 32.5944C16.2084 32.6172 15.023 32.583 13.8376 32.6286C13.5298 32.64 13.1651 32.7882 12.9371 33.0048C11.6605 34.2361 10.4409 35.5016 9.16426 36.7328C8.9021 36.9837 8.53735 37.2003 8.1954 37.2573C7.5229 37.3599 7.04417 36.7898 7.02138 35.9804C7.00998 35.1254 7.02138 34.2703 7.02138 33.4039C7.02138 32.5944 7.02138 32.5944 6.1779 32.5944C5.32302 32.5944 4.46815 32.5944 3.60188 32.6058C1.76675 32.64 0.0342005 31.3289 0.0228022 29.0146C-0.0113928 24.4543 5.53858e-06 19.8941 0.0228022 15.3338C0.0342005 13.1563 1.50458 11.7198 3.69306 11.7198C8.2296 11.7084 12.7775 11.7198 17.3141 11.7198C17.998 11.7198 18.4539 12.0504 18.5451 12.5749C18.6477 13.0993 18.4197 13.6351 17.9638 13.8061C17.6674 13.9201 17.3255 13.9543 17.0063 13.9543C12.7775 13.9657 8.54875 13.9999 4.31997 13.9429C2.39365 13.9201 2.24548 14.6156 2.25687 16.0179C2.27967 20.2475 2.26827 24.4771 2.26827 28.7068C2.26827 29.9723 2.71281 30.4055 3.97802 30.4169C5.28883 30.4169 6.59964 30.4055 7.92184 30.4169C8.9021 30.4283 9.26685 30.8045 9.26685 31.785C9.26685 32.2752 9.26685 32.7654 9.26685 33.2556C9.30104 33.267 9.35803 33.2898 9.40363 33.324Z" fill="#FAB606"/>
<path d="M46.7218 21.57C46.7218 21.0456 46.7218 20.5326 46.7218 20.0081C46.7218 19.2443 47.1207 18.7541 47.759 18.7085C48.4087 18.6743 48.9331 19.1645 48.9445 19.9283C48.9787 21.4218 48.9673 22.9153 48.9445 24.4088C48.9331 24.8876 48.7279 25.3094 48.2378 25.4918C47.7248 25.6743 47.2803 25.526 46.8928 25.1384C45.7187 23.9642 44.5219 22.8127 43.3821 21.6156C42.9034 21.1026 42.4132 20.8632 41.7179 20.9316C41.3304 20.9658 40.9201 20.9316 40.5325 20.8518C39.9854 20.7378 39.6662 20.2475 39.7118 19.7231C39.7574 19.1987 40.1678 18.7541 40.7149 18.7313C41.547 18.6971 42.3904 18.6743 43.2225 18.7427C43.5303 18.7655 43.8608 18.9935 44.1002 19.2215C44.7727 19.8371 45.411 20.4984 46.0379 21.1482C46.1975 21.3192 46.2887 21.5472 46.414 21.7524C46.5394 21.6954 46.6306 21.627 46.7218 21.57Z" fill="#FAB606"/>
<path d="M4.73029 23.2231C4.73029 22.4707 4.73029 21.7752 4.73029 21.0456C8.56012 21.0456 12.3558 21.0456 16.2084 21.0456C16.2084 21.7524 16.2084 22.4707 16.2084 23.2231C12.39 23.2231 8.59432 23.2231 4.73029 23.2231Z" fill="#FAB606"/>
<path d="M10.5321 16.3827C12.2418 16.3827 13.963 16.3941 15.6727 16.3713C16.1287 16.3599 16.2997 16.4967 16.2541 16.9528C16.2085 17.4544 16.4022 18.184 16.1401 18.412C15.8323 18.6856 15.1484 18.5602 14.6241 18.5602C11.5238 18.5716 8.4234 18.5602 5.32305 18.5716C4.83293 18.5716 4.62776 18.4462 4.68475 17.9332C4.74174 17.443 4.54797 16.7475 4.79873 16.5195C5.09509 16.2573 5.75619 16.3827 6.25772 16.3713C7.69391 16.3713 9.1187 16.3827 10.5321 16.3827Z" fill="#FAB606"/>
<path d="M4.75311 25.7426C5.494 25.7426 6.1779 25.7426 6.896 25.7426C6.896 26.4723 6.896 27.1677 6.896 27.9088C6.1893 27.9088 5.494 27.9088 4.75311 27.9088C4.75311 27.1905 4.75311 26.4723 4.75311 25.7426Z" fill="#FAB606"/>
<path d="M35.0841 9.37129C35.7224 9.37129 36.3379 9.35989 36.9534 9.38269C37.0674 9.39409 37.2498 9.5879 37.2612 9.70191C37.2953 10.2035 37.2953 10.7166 37.2498 11.2296C37.2384 11.3436 37.056 11.4576 36.942 11.5602C36.9192 11.583 36.8736 11.5602 36.8394 11.5716C34.9359 11.6742 34.8105 11.5374 35.0841 9.37129Z" fill="#FAB606"/>
<path d="M41.9345 9.42834C41.9345 10.1466 41.9345 10.8192 41.9345 11.5603C41.2734 11.5603 40.6465 11.5717 40.0196 11.5489C39.917 11.5489 39.8258 11.3665 39.7346 11.2524C39.7118 11.2296 39.7232 11.184 39.7346 11.1498C39.7688 10.5798 39.803 9.99838 39.8372 9.42834C40.5097 9.42834 41.1936 9.42834 41.9345 9.42834Z" fill="#FAB606"/>
<path d="M9.38084 27.9088C9.38084 27.2475 9.36944 26.6319 9.39224 26.0163C9.40364 25.9023 9.59741 25.7313 9.72279 25.7199C10.2243 25.6857 10.7372 25.6857 11.2502 25.7199C11.3641 25.7313 11.5465 25.8909 11.5579 25.9821C11.5807 26.6091 11.5693 27.2475 11.5693 27.9088C10.8284 27.9088 10.1559 27.9088 9.38084 27.9088Z" fill="#FAB606"/>
<path d="M44.3965 10.4316C44.4079 9.38275 44.4079 9.38275 45.4338 9.37135C46.7674 9.35995 46.6078 9.17754 46.5964 10.557C46.585 11.6857 46.7332 11.5375 45.6162 11.5603C45.5934 11.5603 45.582 11.5603 45.5592 11.5603C44.2142 11.5717 44.3965 11.7313 44.3965 10.4316Z" fill="#FAB606"/>
<path d="M29.0999 50.2427C29.0999 50.9951 29.0999 51.7134 29.0999 52.4544C28.3476 52.4544 27.6295 52.4544 26.8773 52.4544C26.8773 51.7134 26.8773 50.9951 26.8773 50.2427C27.6068 50.2427 28.3248 50.2427 29.0999 50.2427Z" fill="#3379B7"/>
</g>
<defs>
<clipPath id="clip0">
<rect width="56" height="56" fill="white"/>
</clipPath>
</defs>
</svg>
