<svg width="68" height="68" viewBox="0 0 68 68" fill="none" xmlns="http://www.w3.org/2000/svg">
<g clip-path="url(#clip0)">
<path d="M68 31.5373C65.6973 35.2141 63.4084 38.8909 61.0918 42.5538C60.7311 43.1226 60.2733 43.6638 59.7462 44.0939C54.8772 48.1175 49.9665 52.0996 45.0836 56.1094C44.5981 56.5118 44.0848 56.6921 43.4467 56.6921C37.676 56.6783 31.9192 56.7337 26.1485 56.6505C24.8029 56.6227 23.929 57.0945 23.1244 58.3016C23.6238 58.7456 24.1787 59.2173 24.7058 59.7168C25.6214 60.6187 25.6214 61.3263 24.7336 62.2281C22.9996 63.9764 21.2517 65.6968 19.5177 67.4589C19.0461 67.9306 18.4773 68.1804 17.9086 67.9306C17.5202 67.7642 17.1872 67.2924 17.0208 66.89C16.7988 66.3073 17.2011 65.8494 17.6034 65.4471C18.8935 64.1567 20.1697 62.8664 21.4598 61.5899C21.6263 61.4234 21.8343 61.2847 21.973 61.1737C16.8959 56.1233 11.9021 51.1284 6.85269 46.0918C6.7972 46.1335 6.63074 46.2861 6.46428 46.4526C5.1187 47.7984 3.787 49.1581 2.41368 50.4901C1.49814 51.3781 0.194182 51.0729 -2.4965e-05 49.9074C-0.0693844 49.505 0.0970783 48.9362 0.374516 48.6448C2.20561 46.7162 4.07831 44.857 5.96489 43.0116C6.64461 42.3457 7.39369 42.4012 8.14277 43.1226C9.15542 44.1078 10.1542 45.1206 11.153 46.1335C14.3574 49.3385 17.5479 52.5297 20.7385 55.7348C20.8633 55.8596 21.002 55.9706 21.3072 56.2481C21.7788 55.707 22.2366 55.1798 22.6944 54.6525C23.166 54.1114 23.7487 53.9033 24.4561 53.9033C30.4626 53.9172 36.4692 53.9033 42.4757 53.9311C43.1138 53.9311 43.5993 53.7368 44.0848 53.3344C48.7181 49.5189 53.379 45.7172 58.0261 41.9155C58.248 41.7352 58.4561 41.5271 58.6087 41.2912C60.5785 38.1555 62.5345 35.0198 64.4904 31.8841C64.5459 31.787 64.5875 31.6899 64.6846 31.5373C63.8662 30.9684 62.9645 31.0239 62.1599 31.3846C61.3276 31.7592 60.5924 32.3559 59.8156 32.8692C59.6214 33.008 59.441 33.1883 59.2884 33.3687C57.0551 36.0327 54.1697 37.8364 51.1734 39.5013C50.9376 39.6262 50.7156 39.7788 50.4937 39.9176C50.452 39.9453 50.4382 39.987 50.563 40.0008C50.6601 41.0414 50.9376 42.0959 50.8266 43.1226C50.4937 46.1751 48.2464 48.1453 45.1669 48.173C41.4492 48.2008 37.7176 48.1869 34 48.1869C33.5838 48.1869 33.1538 48.173 32.7376 48.2008C31.7527 48.2424 31.295 48.617 31.1008 49.5883C30.9759 50.2126 30.754 50.7399 30.102 50.948C29.1448 51.2532 28.2986 50.5456 28.3264 49.4911C28.3819 47.2573 30.1713 45.4952 32.5018 45.4258C33.6254 45.3981 34.7629 45.412 35.9004 45.412C38.98 45.412 42.0595 45.4258 45.1391 45.412C47.1783 45.3981 48.5377 43.6776 48.0522 41.8045C47.7193 40.5281 46.5679 39.6817 45.1114 39.6817C41.9902 39.6678 38.8551 39.5985 35.734 39.7095C33.3619 39.7927 31.1146 39.4458 28.9229 38.5995C28.3264 38.3636 27.6328 38.2804 26.9808 38.2804C24.8307 38.2526 22.6805 38.2526 20.5304 38.3359C18.3664 38.4191 16.5075 39.3071 14.9539 40.8194C14.5238 41.2357 14.1216 41.6797 13.6777 42.082C13.0534 42.6509 12.235 42.6509 11.7079 42.1237C11.1807 41.6103 11.1668 40.7778 11.7079 40.1396C14.3296 37.0733 17.6034 35.3944 21.7095 35.4638C23.3741 35.4916 25.0387 35.5054 26.7034 35.4638C27.8963 35.4222 29.0477 35.5748 30.1436 36.0327C31.8637 36.7542 33.6532 36.9761 35.5259 36.9345C38.6748 36.8513 41.8237 36.9068 44.9726 36.9068C46.0685 36.9068 47.1228 37.1149 48.1077 37.656C48.3019 37.767 48.6764 37.767 48.8706 37.6421C50.6462 36.6015 52.4496 35.6025 54.1558 34.4509C55.002 33.8821 55.654 33.008 56.4308 32.3142C57.5406 31.3291 58.6087 30.2747 59.8294 29.4422C61.7715 28.1241 64.7123 27.7495 67.0012 29.7197C67.3896 30.0527 67.6948 30.4967 68.0277 30.899C68 31.0933 68 31.3153 68 31.5373Z" fill="#3379B7"/>
<path d="M33.9722 2.63621C25.3855 2.73333 18.1306 8.44972 15.9804 16.9272C14.8568 21.3532 15.5226 25.5711 17.6173 29.5948C17.7699 29.8862 17.9502 30.1775 18.0889 30.4689C18.4357 31.232 18.2277 31.9674 17.5895 32.3142C16.9376 32.675 16.1053 32.4669 15.7168 31.7037C15.0787 30.4411 14.4268 29.1785 13.9412 27.8466C11.0559 19.8825 13.6361 10.961 19.7536 5.4944C24.5671 1.22099 30.2407 -0.679847 36.6079 0.222009C45.3888 1.47073 51.3121 6.47951 54.1558 14.8598C56.1256 20.6872 55.2795 26.3481 52.2415 31.676C51.8115 32.4114 51.0485 32.6889 50.3827 32.3559C49.6752 31.9951 49.4255 31.1626 49.8833 30.344C50.896 28.4848 51.7421 26.5701 52.1305 24.4889C53.0738 19.4662 52.0057 14.846 49.1203 10.6697C46.3598 6.67375 42.5312 4.16243 37.7731 3.1357C36.5247 2.87208 35.2346 2.80271 33.9722 2.63621Z" fill="#FAB606"/>
<path d="M19.8645 19.8686C20.6829 19.8686 21.3627 19.8825 22.0424 19.8686C22.3753 19.8547 22.5279 19.9796 22.5279 20.3265C22.5002 21.048 22.7499 22.0331 22.3892 22.4216C22.0285 22.7962 21.0297 22.5881 20.3223 22.5742C20.1697 22.5742 19.9061 22.3661 19.9061 22.2412C19.8367 21.4781 19.8645 20.715 19.8645 19.8686Z" fill="#FAB606"/>
<path d="M48.066 21.2561C48.0383 22.5742 48.0383 22.5742 46.7343 22.5881C45.3749 22.6019 45.3749 22.6019 45.3888 21.2283C45.4165 19.8825 45.4165 19.8825 46.7482 19.8686C48.0799 19.8547 48.0799 19.8547 48.066 21.2561Z" fill="#FAB606"/>
<path d="M41.0885 15.2483C39.5071 13.5279 37.5512 12.515 35.2762 12.2236V10.7945C35.2762 10.5171 35.1375 10.2534 34.8878 10.1147C34.652 9.96206 34.3468 9.96206 34.0971 10.0869L33.2648 10.5171C33.0012 10.6558 32.8347 10.9333 32.8347 11.2247V12.1959C30.532 12.4595 28.5622 13.4724 26.9531 15.2067C25.2607 17.0382 24.4006 19.2304 24.4006 21.7278C24.4006 22.2828 24.4423 22.8239 24.5394 23.365C24.6087 23.7535 24.9416 24.031 25.3301 24.031H26.2595C26.4953 24.031 26.7311 23.92 26.8837 23.7397C27.0363 23.5593 27.1057 23.3095 27.0502 23.0737C26.9669 22.6297 26.9253 22.1857 26.9253 21.7278C26.9253 19.9102 27.5496 18.3008 28.7703 16.9549C29.88 15.7339 31.2534 14.9847 32.8486 14.735V21.0341C32.8486 21.3116 32.9873 21.5752 33.237 21.7139C33.4729 21.8666 33.778 21.8666 34.0277 21.7417L34.86 21.3116C35.1236 21.1728 35.2901 20.8953 35.2901 20.604V14.7488C36.8576 15.0263 38.2032 15.7756 39.2991 16.9965C40.5059 18.3424 41.1024 19.938 41.1024 21.7278C41.1024 22.1857 41.0608 22.6436 40.9776 23.0737C40.9359 23.3095 40.9914 23.5593 41.144 23.7397C41.2966 23.92 41.5186 24.031 41.7544 24.031H42.6838C43.0722 24.031 43.4051 23.7535 43.4745 23.365C43.5716 22.8239 43.6132 22.2828 43.6132 21.7278C43.6132 19.2581 42.767 17.0798 41.0885 15.2483Z" fill="#FAB606"/>
</g>
<defs>
<clipPath id="clip0">
<rect width="68" height="68" fill="white"/>
</clipPath>
</defs>
</svg>
