<svg width="42" height="37" viewBox="0 0 42 37" fill="none" xmlns="http://www.w3.org/2000/svg">
<path d="M0 0.744582C0.194169 0.199254 0.582507 0.00629224 1.15657 0.0146819C2.66771 0.0398508 4.17885 0.0230715 5.68999 0.0230715C6.9732 0.0230715 7.49661 0.434164 7.80053 1.72617C7.94404 1.72617 8.10444 1.72617 8.2564 1.72617C10.8059 1.72617 13.3554 1.72617 15.905 1.72617C16.0907 1.72617 16.2849 1.71778 16.4706 1.75134C16.9771 1.83524 17.2641 2.17082 17.2388 2.62386C17.2135 3.07691 16.8843 3.38732 16.3777 3.4041C15.5673 3.42088 14.7568 3.41249 13.9464 3.41249C12.0554 3.41249 10.1728 3.41249 8.28173 3.4041C8.12133 3.4041 7.96937 3.4041 7.78364 3.4041C7.78364 6.29014 7.78364 9.12584 7.78364 12.0203C8.2564 12.0203 8.72916 12.0287 9.19348 12.0203C9.64091 12.0035 9.98704 12.1629 10.3078 12.4733C12.7729 14.9315 15.2465 17.3897 17.72 19.8394C17.9226 20.0408 18.1252 20.2337 18.3532 20.3931C18.7922 20.6952 19.2565 20.6448 19.5942 20.2925C19.9319 19.9401 19.9741 19.4619 19.6364 19.0508C19.2818 18.6313 18.8513 18.2706 18.5136 17.8427C18.3363 17.6162 18.1759 17.289 18.2012 17.0289C18.2688 16.3409 19.0708 16.0976 19.6195 16.5926C20.0669 16.9953 20.4806 17.44 20.9196 17.8595C21.1897 18.1196 21.4514 18.3964 21.7385 18.6313C22.1944 18.9837 22.6924 18.9501 23.047 18.581C23.41 18.2034 23.4353 17.7252 23.0554 17.2806C22.684 16.8527 22.2703 16.4668 21.882 16.0557C21.6456 15.804 21.5443 15.502 21.6709 15.1664C21.7891 14.8476 22.034 14.6127 22.3632 14.6378C22.6418 14.663 22.9626 14.7972 23.1736 14.9818C23.7477 15.4936 24.2711 16.0557 24.8114 16.5926C24.9465 16.7269 25.0816 16.8527 25.242 16.9618C25.6978 17.2722 26.1706 17.2302 26.5167 16.8527C26.8544 16.492 26.8882 16.0221 26.542 15.611C26.1706 15.1748 25.74 14.7805 25.3517 14.3526C24.8789 13.8408 25.0562 13.1193 25.6725 12.9264C26.044 12.8173 26.331 12.9599 26.5843 13.2116C27.133 13.7485 27.6733 14.2939 28.222 14.8308C28.374 14.9818 28.5344 15.1328 28.7117 15.2503C29.1591 15.5523 29.6065 15.5104 29.9527 15.1496C30.2819 14.8056 30.3157 14.361 30.0371 13.9415C29.9527 13.8157 29.8598 13.7066 29.7585 13.5975C27.8506 11.7015 25.9427 9.80541 24.0347 7.90935C23.7224 7.59893 22.0255 7.61571 21.7132 7.92612C20.6494 8.97483 19.5942 10.0319 18.5305 11.0722C18.0999 11.4917 17.6103 11.8021 17.0024 11.9196C15.9472 12.1293 14.8919 11.6931 14.2756 10.7618C13.71 9.91447 13.71 8.76509 14.2925 7.91773C14.512 7.59893 14.7737 7.30529 15.0439 7.02843C16.6648 5.40084 18.311 3.79003 19.9319 2.15404C20.2527 1.83524 20.6072 1.701 21.0462 1.701C25.09 1.70939 29.1422 1.701 33.186 1.701C33.3464 1.701 33.5068 1.701 33.6756 1.701C33.7938 0.870426 34.1737 0.283151 34.9926 0.0566302C35.1108 0.0230715 35.229 0.00629224 35.3472 0.00629224C37.0778 -0.00209741 38.8 -0.00209741 40.5307 0.00629224C40.8768 0.00629224 41.1638 0.140527 41.3327 0.459334C41.4846 0.744582 41.5099 1.07178 41.2736 1.28152C41.0625 1.47448 40.7586 1.63388 40.48 1.65905C39.965 1.71778 39.4332 1.67583 38.8507 1.67583C38.8507 1.85202 38.8507 1.99464 38.8507 2.12887C38.8507 3.85714 38.8507 5.58541 38.8507 7.31368C38.8507 7.43114 38.8591 7.55698 38.8422 7.67444C38.7916 8.21137 38.4454 8.53857 37.9558 8.5134C37.483 8.49662 37.1707 8.16103 37.1622 7.6241C37.1538 6.00489 37.1538 4.3773 37.1538 2.7581C37.1538 2.41412 37.1538 2.07015 37.1538 1.69261C36.546 1.69261 35.9888 1.69261 35.381 1.69261C35.381 2.09532 35.381 2.48124 35.381 2.85877C35.381 6.31531 35.381 9.78024 35.3725 13.2368C35.3725 13.6311 35.4907 13.7318 35.8706 13.7234C37.3395 13.6982 38.8085 13.7066 40.2858 13.715C41.0287 13.715 41.434 14.0254 41.434 14.554C41.4255 15.0909 41.0203 15.3929 40.2774 15.3929C38.7409 15.3929 37.2045 15.3929 35.6595 15.3929C34.3679 15.3929 33.6925 14.7134 33.6925 13.4213C33.6925 10.2417 33.6925 7.06199 33.6925 3.8907C33.6925 3.7313 33.6925 3.57189 33.6925 3.38732C33.5152 3.37893 33.3886 3.36215 33.2535 3.36215C29.3279 3.36215 25.4024 3.36215 21.4768 3.37893C21.2488 3.37893 20.9787 3.49639 20.8183 3.6474C19.2818 5.14915 17.7538 6.66768 16.2342 8.19459C16.0569 8.37078 15.8712 8.56374 15.7277 8.77348C15.4406 9.20135 15.4913 9.63761 15.829 9.98159C16.1667 10.3172 16.6141 10.3675 17.0447 10.0739C17.2557 9.93125 17.4414 9.75507 17.6187 9.5705C18.674 8.53018 19.7292 7.48986 20.7676 6.44116C21.08 6.12235 21.4261 5.97134 21.882 5.98811C22.608 6.00489 23.3425 5.95456 24.0685 5.98811C24.3302 5.9965 24.6426 6.10557 24.8283 6.28175C26.9135 8.32883 28.9734 10.3927 31.0333 12.4565C31.5989 13.027 31.945 13.715 31.9366 14.5456C31.9112 16.148 30.3494 17.3645 28.7623 17.0373C28.6441 17.0121 28.5259 16.9869 28.4078 16.9702C27.4876 18.5978 27.0232 18.8327 24.9296 18.7152C24.2205 20.2337 22.9795 20.8042 21.5021 20.4015C21.3586 20.6448 21.2319 20.9133 21.0631 21.1398C20.0163 22.5325 18.2434 22.6416 16.9011 21.3663C15.829 20.3428 14.7906 19.2857 13.7438 18.2454C12.3593 16.8695 10.9663 15.502 9.5987 14.1177C9.2779 13.7989 8.97398 13.5975 8.50966 13.6646C8.28173 13.6982 8.05379 13.673 7.85118 13.673C7.80897 13.7234 7.7752 13.7402 7.7752 13.7569C7.62324 14.856 6.88033 15.4433 5.6309 15.4097C4.16197 15.3761 2.69304 15.3929 1.21567 15.4097C0.658486 15.4516 0.219495 15.3006 0 14.7385C0 14.6295 0 14.5204 0 14.4197C0.227937 13.8912 0.641602 13.7402 1.19878 13.7485C2.66771 13.7737 4.13664 13.7402 5.60557 13.7653C5.98547 13.7737 6.07833 13.6479 6.07833 13.2871C6.06145 9.8138 6.06989 6.34048 6.06989 2.87555C6.06989 2.48963 6.06989 2.11209 6.06989 1.73456C5.44517 1.73456 4.88799 1.73456 4.29704 1.73456C4.29704 2.73293 4.29704 3.69774 4.29704 4.65416C4.29704 5.66092 4.30548 6.66768 4.2886 7.66605C4.28016 8.23654 3.89182 8.58052 3.35997 8.53018C2.88721 8.48823 2.60862 8.11909 2.60018 7.51503C2.60018 5.73643 2.60018 3.94943 2.60018 2.17082C2.60018 2.01981 2.60018 1.86041 2.60018 1.69261C2.08521 1.69261 1.63777 1.66744 1.19034 1.701C0.616275 1.74295 0.202611 1.54999 0 0.979492C0 0.903985 0 0.820089 0 0.744582Z" fill="#333333"/>
<path d="M11.2871 29.1268C11.2871 28.5479 11.2871 28.0445 11.2871 27.4992C11.4475 27.4908 11.591 27.4824 11.7345 27.4824C19.9909 27.4824 28.2474 27.4824 36.5038 27.4824C37.0694 27.4824 37.0694 27.4824 37.0778 28.0529C37.0778 29.1268 37.0778 29.1268 36.0057 29.1268C27.9688 29.1268 19.9234 29.1268 11.8865 29.1268C11.7008 29.1268 11.515 29.1268 11.2871 29.1268Z" fill="#333333"/>
<path d="M11.2703 34.3703C11.4982 34.3703 11.6586 34.3703 11.819 34.3703C20.0501 34.3703 28.2812 34.3787 36.5123 34.3787C37.0779 34.3787 37.0779 34.3787 37.0779 34.9492C37.0779 35.9979 37.0779 35.9979 36.0057 35.9979C32.3081 36.0063 28.6104 36.0231 24.9128 36.0231C20.5313 36.0231 16.1414 36.0063 11.7599 36.0063C11.3716 36.0063 11.2281 35.9056 11.2618 35.5113C11.2956 35.1589 11.2703 34.7898 11.2703 34.3703Z" fill="#333333"/>
<path d="M6.88033 29.1268C6.34003 29.1268 5.79973 29.1351 5.25944 29.1268C4.68537 29.1184 4.38146 28.8331 4.37301 28.2626C4.35613 27.1552 4.35613 26.0394 4.37301 24.9319C4.38146 24.3866 4.68537 24.093 5.23411 24.093C6.34847 24.0846 7.47128 24.0846 8.58564 24.093C9.11749 24.1014 9.42985 24.4118 9.43829 24.9487C9.44673 26.0561 9.44673 27.172 9.43829 28.2794C9.42985 28.8163 9.11749 29.11 8.56875 29.1184C8.01157 29.1351 7.44595 29.1268 6.88033 29.1268ZM7.78363 25.7289C7.2349 25.7289 6.72837 25.7206 6.2134 25.7373C6.13742 25.7373 6.01923 25.88 6.01079 25.9639C5.98546 26.3917 5.98546 26.8196 6.00235 27.2475C6.00235 27.3314 6.12898 27.474 6.20496 27.474C6.71993 27.4908 7.24334 27.4824 7.77519 27.4824C7.78363 26.8783 7.78363 26.3246 7.78363 25.7289Z" fill="#333333"/>
<path d="M23.2749 30.9557C23.2749 31.4927 23.2749 31.9961 23.2749 32.5414C19.2902 32.5414 15.3055 32.5414 11.304 32.5414C11.304 32.0128 11.304 31.5011 11.304 30.9557C15.2802 30.9557 19.2564 30.9557 23.2749 30.9557Z" fill="#333333"/>
<path d="M23.2919 24.1097C23.2919 24.5796 23.2919 25.0158 23.2919 25.4521C23.2919 25.7289 23.0893 25.6954 22.9289 25.6954C22.1776 25.7038 21.4178 25.7206 20.6664 25.7206C17.7032 25.7122 14.74 25.7038 11.7769 25.7038C11.4054 25.7038 11.2366 25.6199 11.2703 25.2172C11.3041 24.8648 11.2788 24.5041 11.2788 24.1097C15.2803 24.1097 19.2481 24.1097 23.2919 24.1097Z" fill="#333333"/>
<path d="M6.06984 34.018C6.65234 33.4307 7.20952 32.835 7.80892 32.2813C8.02841 32.0716 8.33233 31.8702 8.61936 31.8366C9.24408 31.7611 9.6493 32.4659 9.3285 33.0028C9.21031 33.2042 9.02458 33.372 8.85574 33.5481C8.16349 34.2445 7.47123 34.9324 6.77053 35.6204C6.25556 36.1238 5.82502 36.1154 5.3016 35.612C5.09055 35.4023 4.8795 35.2009 4.67689 34.9828C4.30543 34.5885 4.27166 34.0935 4.58402 33.7663C4.92171 33.4139 5.36914 33.4223 5.80813 33.7998C5.88411 33.8586 5.95165 33.9173 6.06984 34.018Z" fill="#333333"/>
<path d="M38.8338 10.3423C38.8338 10.8961 38.8338 11.4162 38.8338 11.9615C38.2935 11.9615 37.7617 11.9615 37.196 11.9615C37.196 11.433 37.196 10.9045 37.196 10.3423C37.7363 10.3423 38.2597 10.3423 38.8338 10.3423Z" fill="#333333"/>
<path d="M7.82593 20.6532C8.36622 20.6532 8.87275 20.6532 9.42149 20.6532C9.42149 21.1817 9.42149 21.7103 9.42149 22.2556C8.89808 22.2556 8.37467 22.2556 7.82593 22.2556C7.82593 21.7271 7.82593 21.2153 7.82593 20.6532Z" fill="#333333"/>
<path d="M12.8995 22.264C12.3592 22.264 11.8443 22.264 11.304 22.264C11.304 21.7271 11.304 21.1985 11.304 20.6532C11.8358 20.6532 12.3592 20.6532 12.8995 20.6532C12.8995 21.1901 12.8995 21.7019 12.8995 22.264Z" fill="#333333"/>
<path d="M5.98551 20.6365C5.98551 21.1566 5.99395 21.6097 5.97707 22.0627C5.97707 22.1382 5.84199 22.2641 5.76601 22.2641C5.32702 22.2808 4.87959 22.2725 4.38151 22.2725C4.38151 21.7607 4.37306 21.2825 4.38995 20.8043C4.38995 20.7455 4.52502 20.6449 4.601 20.6365C5.03999 20.6281 5.47898 20.6365 5.98551 20.6365Z" fill="#333333"/>
<path d="M2.61694 11.9699C2.61694 11.4246 2.61694 10.9044 2.61694 10.3507C3.16568 10.3507 3.69754 10.3507 4.26316 10.3507C4.26316 10.8876 4.26316 11.4162 4.26316 11.9699C3.72286 11.9699 3.19101 11.9699 2.61694 11.9699Z" fill="#333333"/>
</svg>
