<svg width="36" height="36" viewBox="0 0 36 36" fill="none" xmlns="http://www.w3.org/2000/svg">
<path d="M29.9792 3.72738C29.9792 5.79652 28.3218 7.45477 26.2538 7.45477C24.2004 7.45477 22.5137 5.78185 22.5137 3.72738C22.5064 1.68759 24.1931 0 26.2464 0C28.3072 0 29.9792 1.66558 29.9792 3.72738ZM28.5052 3.72738C28.5052 2.48737 27.4858 1.46014 26.2464 1.46747C25.0144 1.46747 23.9804 2.50938 23.9804 3.73472C23.9804 4.9674 25.0144 5.98729 26.2538 5.98729C27.4931 5.98729 28.5052 4.97474 28.5052 3.72738Z" fill="#333333"/>
<path d="M6.74687 7.44008C4.6935 7.44008 3.03613 5.78917 3.03613 3.74204C3.03613 1.68024 4.70083 0.0146594 6.76153 0.0219968C8.80024 0.0219968 10.4576 1.69492 10.4503 3.74204C10.4503 5.78917 8.7929 7.44008 6.74687 7.44008ZM6.7322 6.00195C8.00089 6.00195 9.01291 5.00407 9.01291 3.74204C9.02024 2.48735 8.00089 1.45278 6.7542 1.45278C5.49284 1.44545 4.47349 2.458 4.46616 3.71269C4.46616 4.97472 5.47818 5.99462 6.7322 6.00195Z" fill="#333333"/>
<path d="M10.4577 27.0162C10.4577 29.3935 10.4577 31.7781 10.4577 34.1554C10.4577 34.2582 10.4577 34.3682 10.4577 34.4709C10.4357 34.8818 10.179 35.1753 9.7977 35.212C9.46036 35.2487 9.14502 34.9919 9.05702 34.603C9.02768 34.4783 9.02035 34.3462 9.02035 34.2215C9.02035 29.4375 9.01302 24.6535 9.02035 19.8696C9.02035 19.6715 9.03502 19.4734 9.08635 19.2826C9.18169 18.9377 9.46769 18.769 9.8417 18.7983C10.1497 18.8277 10.399 19.0625 10.4504 19.3853C10.465 19.488 10.4577 19.5981 10.4577 19.7008C10.4577 22.1368 10.4577 24.5802 10.4577 27.0162Z" fill="#333333"/>
<path d="M25.5132 28.5131C25.5132 26.6127 25.5132 24.7196 25.5132 22.8193C25.5132 22.6798 25.5132 22.5404 25.5279 22.401C25.5719 22.0488 25.8652 21.7847 26.2172 21.7627C26.5325 21.748 26.8332 21.9608 26.9212 22.2836C26.9652 22.4377 26.9799 22.6065 26.9799 22.7679C26.9872 26.576 26.9872 30.3841 26.9872 34.1922C26.9872 34.2729 26.9872 34.3536 26.9872 34.4417C26.9579 34.9259 26.6352 35.2561 26.2172 35.2341C25.8065 35.2121 25.5205 34.9039 25.5205 34.4197C25.5132 32.4532 25.5205 30.4795 25.5132 28.5131C25.5205 28.5131 25.5205 28.5131 25.5132 28.5131Z" fill="#333333"/>
<path d="M7.45076 28.5057C7.45076 30.4281 7.45076 32.3505 7.45076 34.2728C7.45076 34.8378 7.31142 35.0653 6.91542 35.1753C6.54141 35.2854 6.13074 35.0433 6.06473 34.6617C6.04273 34.537 6.04273 34.4049 6.04273 34.2728C6.04273 30.4501 6.0354 26.6273 6.0354 22.8045C6.0354 22.6651 6.04273 22.5257 6.0574 22.3863C6.1014 22.0194 6.38741 21.7846 6.76141 21.792C7.12809 21.792 7.39943 22.0414 7.43609 22.4157C7.44343 22.511 7.44343 22.6064 7.44343 22.6945C7.45076 24.6315 7.45076 26.5686 7.45076 28.5057Z" fill="#333333"/>
<path d="M29.9865 31.8956C29.9865 32.7027 29.9938 33.5098 29.9865 34.3169C29.9792 34.8232 29.8178 35.08 29.4438 35.19C29.0551 35.3074 28.6371 35.0726 28.5565 34.6764C28.5198 34.515 28.5125 34.3536 28.5125 34.1922C28.5125 32.644 28.5125 31.1031 28.5125 29.5549C28.5125 28.8799 28.7691 28.5204 29.2458 28.5204C29.7225 28.513 29.9865 28.8726 29.9865 29.5476C29.9865 30.3254 29.9865 31.1105 29.9865 31.8956Z" fill="#333333"/>
<path d="M26.9652 12.0259C26.9652 12.5102 26.9652 12.9725 26.9652 13.4494C26.4885 13.4494 26.0265 13.4494 25.5425 13.4494C25.5425 12.9725 25.5425 12.5102 25.5425 12.0259C26.0192 12.0259 26.4812 12.0259 26.9652 12.0259Z" fill="#333333"/>
<path d="M26.9652 16.4503C26.4812 16.4503 26.0338 16.4503 25.5498 16.4503C25.5498 15.9734 25.5498 15.5038 25.5498 15.0122C26.0265 15.0122 26.4812 15.0122 26.9652 15.0122C26.9652 15.4891 26.9652 15.9441 26.9652 16.4503Z" fill="#333333"/>
<path d="M35.9778 21.7773C35.9705 21.293 35.6845 21.0362 35.1858 21.0216C34.5992 20.9995 34.0125 21.0142 33.4258 21.0069C33.2865 21.0069 33.1471 20.9922 32.9711 20.9849C32.9711 20.8161 32.9711 20.684 32.9711 20.5446C32.9711 18.1967 32.9858 15.8561 32.9638 13.5081C32.9418 10.9474 31.0058 9.02497 28.461 9.00296C27.2437 8.99562 26.0263 8.98095 24.8016 9.01029C24.3176 9.02497 23.819 9.09834 23.3569 9.24509C22.3083 9.57527 21.4942 10.265 20.7902 11.0794C19.4409 12.6496 18.0989 14.2272 16.7642 15.8047L17.6735 16.986C19.0962 15.3278 20.5042 13.6622 21.9269 12.0113C22.8216 10.9767 23.8923 10.353 25.3297 10.4484C26.3197 10.5145 27.3244 10.4558 28.3144 10.4558C30.2284 10.4631 31.5044 11.7471 31.5044 13.6622C31.5044 15.9735 31.5044 18.2847 31.5044 20.5887C31.5044 20.7134 31.4971 20.8381 31.4824 20.9922C30.8078 20.9922 30.1624 20.9922 29.5171 20.9922C28.7471 20.9922 28.505 21.227 28.4977 21.9974C28.4904 23.3255 28.4904 24.6462 28.4904 25.9743C28.4904 26.708 28.7544 26.9722 29.4877 26.9722C30.6611 26.9722 31.8344 26.9722 33.0005 26.9722C33.6898 26.9722 34.3865 26.9795 35.0758 26.9722C35.6405 26.9648 35.9558 26.708 35.9632 26.1944C35.9925 24.7269 35.9925 23.2521 35.9778 21.7773ZM34.5185 25.1965C34.5185 25.38 34.5112 25.512 34.2692 25.512C32.8978 25.5047 31.5338 25.5047 30.1624 25.5047C30.1184 25.5047 30.0744 25.4827 30.0084 25.468C30.0084 24.4848 30.0084 23.5089 30.0084 22.4817C30.6464 22.4817 31.2698 22.4817 31.9004 22.4817C32.6631 22.4817 33.4185 22.489 34.1812 22.4744C34.4305 22.467 34.5332 22.5331 34.5258 22.8045C34.5112 23.6043 34.5185 24.4041 34.5185 25.1965Z" fill="#333333"/>
<path d="M18.0843 18.4464L17.5637 17.7934C17.5343 17.7567 17.4977 17.72 17.4683 17.6833C17.4317 17.6393 17.4023 17.6026 17.3877 17.5659L16.3976 16.3186C16.2583 16.1498 16.185 16.0618 16.1116 15.9737C14.8209 14.3668 13.5523 12.7379 12.2322 11.1531C11.0662 9.75162 9.61418 8.91516 7.71481 9.01055C6.63679 9.06191 5.55877 9.01788 4.48075 9.02522C2.39071 9.0399 0.616011 10.4707 0.154003 12.5105C0.102669 12.7453 0.0513343 12.9874 0 13.2295C0 16.0911 0 18.9527 0 21.8143C0.183337 22.3646 0.594011 22.4966 1.12202 22.4673C1.61336 22.4379 2.10471 22.4746 2.59605 22.4526C2.95539 22.4306 3.04339 22.5627 3.04339 22.9149C3.02872 25.9966 3.02872 29.0856 3.02872 32.1673C3.02872 32.9377 3.02139 33.7155 3.03606 34.4859C3.04339 34.8968 3.32206 35.1903 3.7034 35.2196C4.02607 35.249 4.34141 34.9995 4.42208 34.6326C4.45875 34.4859 4.46608 34.3318 4.46608 34.1851C4.46608 29.4011 4.46608 24.6171 4.46608 19.8332C4.46608 19.7158 4.47342 19.5984 4.45142 19.481C4.37808 19.0114 4.09941 18.7692 3.67407 18.7986C3.28539 18.8279 3.03606 19.1214 3.02139 19.5764C3.01406 19.9726 3.01406 20.3761 3.02139 20.7723C3.02872 20.9705 2.94072 21.0512 2.75005 21.0438C2.43471 21.0365 2.11937 21.0292 1.80403 21.0438C1.5327 21.0585 1.43736 20.9631 1.43736 20.6843C1.44469 18.307 1.43003 15.9223 1.44469 13.545C1.45936 12.0702 2.40538 10.7348 3.79874 10.5881C5.41943 10.4193 7.0768 10.456 8.70483 10.5441C9.74618 10.6028 10.5089 11.3512 11.1469 12.1363C12.8996 14.2935 14.6229 16.4653 16.361 18.6372C16.581 18.9087 16.7863 19.1801 16.9843 19.4369C16.801 19.6497 16.647 19.8258 16.4783 20.0166C16.317 19.8845 16.185 19.7745 16.053 19.6571C14.1389 17.9621 12.2322 16.2599 10.3182 14.5649C9.92952 14.2201 9.48218 14.2127 9.19617 14.5356C8.9175 14.8584 8.9615 15.2767 9.34284 15.6142C11.5282 17.5659 13.7209 19.5103 15.9136 21.4547C16.3243 21.8143 16.6543 21.7922 17.065 21.4254C17.725 20.8384 18.385 20.2441 19.045 19.6571L18.0843 18.4464Z" fill="#333333"/>
<path d="M23.0489 14.3005C22.8876 14.3446 22.7409 14.462 22.6089 14.5794C21.2522 15.7387 19.9029 16.898 18.5462 18.0573C18.5315 18.072 18.5169 18.0793 18.5022 18.094L19.4409 19.3193C20.3576 18.5049 21.2742 17.6831 22.1909 16.8686C22.2716 16.7953 22.3669 16.7366 22.4989 16.6338C22.4989 16.8466 22.4989 16.986 22.4989 17.1254C22.4989 22.8119 22.4989 28.4984 22.4989 34.1848C22.4989 34.3609 22.5063 34.537 22.5503 34.7058C22.6383 35.0433 22.9609 35.2634 23.2836 35.2414C23.6356 35.2121 23.9143 34.9479 23.951 34.5811C23.9656 34.4416 23.9656 34.3022 23.9656 34.1628C23.9656 28.7185 23.9656 23.2815 23.973 17.8372C23.973 16.898 23.9803 15.9588 23.9656 15.0196C23.9583 14.484 23.533 14.1538 23.0489 14.3005Z" fill="#333333"/>
</svg>
