<svg width="411" height="163" viewBox="0 0 411 163" fill="none" xmlns="http://www.w3.org/2000/svg">
<mask id="mask0" mask-type="alpha" maskUnits="userSpaceOnUse" x="0" y="0" width="411" height="163">
<rect width="411" height="163" rx="4" fill="url(#paint0_linear)"/>
</mask>
<g mask="url(#mask0)">
<g opacity="0.1">
<path fill-rule="evenodd" clip-rule="evenodd" d="M688.372 189.386L554.753 265.224C442.802 200.22 330.851 135.216 218.9 70.2124C186.398 52.1558 164.73 52.1558 132.228 66.6011L269.459 -12.8479C287.515 -23.6819 312.794 -23.6819 330.851 -12.8479L688.372 189.386Z" fill="white"/>
<path fill-rule="evenodd" clip-rule="evenodd" d="M-4.99976 146.049V-2.01527C106.951 -67.019 215.291 -128.411 327.242 -193.415C359.744 -211.472 370.578 -229.528 374.189 -265.642V-106.744C374.189 -85.0756 363.355 -63.4077 341.687 -52.5737L-4.99976 146.049Z" fill="white"/>
<path fill-rule="evenodd" clip-rule="evenodd" d="M374.181 -428.156L504.189 -352.318C504.189 -222.311 504.189 -95.9143 504.189 34.0932C504.189 70.2064 515.023 88.263 543.913 109.931L403.072 30.4819C385.015 19.648 370.57 -2.01996 370.57 -23.6879L374.181 -428.156Z" fill="white"/>
<path fill-rule="evenodd" clip-rule="evenodd" d="M256.509 146.292L327.241 106.313L233.347 8.80713L188.825 34.4411C200.967 28.0112 213.362 21.8345 226.13 16.0309C242.381 30.4761 258.631 45.8241 274.882 61.1722C291.133 76.5204 307.384 91.8685 323.635 106.314C300.315 119.64 276.994 132.966 256.509 146.292ZM251.163 149.313C222.232 109.823 171.797 91.8278 114.179 77.4233L114.179 77.4231C114.236 77.3893 114.292 77.3555 114.348 77.3217L-5 146.037V294.101L251.163 149.313Z" fill="white" fill-opacity="0.3"/>
</g>
</g>
<defs>
<linearGradient id="paint0_linear" x1="156.778" y1="8.15002" x2="-12.3549" y2="123.817" gradientUnits="userSpaceOnUse">
<stop stop-color="#4699E2"/>
<stop offset="1" stop-color="#1E649E"/>
</linearGradient>
</defs>
</svg>
