<svg width="38" height="37" viewBox="0 0 38 37" fill="none" xmlns="http://www.w3.org/2000/svg">
<path d="M0 10.6874C0.252578 9.92128 0.704157 9.40798 1.56139 9.37734C1.95174 9.36201 2.34209 9.37734 2.73243 9.37734C2.8549 9.37734 2.9697 9.37734 3.14574 9.37734C3.14574 8.91 3.14574 8.47331 3.14574 8.03662C3.14574 7.73018 3.13809 7.42373 3.14574 7.11728C3.16105 6.55035 3.42894 6.25922 4.00298 6.23624C4.41629 6.22092 4.83725 6.23624 5.25056 6.23624C8.45753 6.23624 11.6569 6.23624 14.8638 6.23624C16.8844 6.23624 17.3131 6.40479 18.8515 7.83743C18.9051 7.7455 18.9433 7.63824 19.0122 7.56163C19.7547 6.73422 20.6808 6.30519 21.7829 6.25922C22.2728 6.23624 22.6249 6.51204 22.6631 6.94873C22.7014 7.3701 22.4412 7.71485 21.959 7.76848C21.2089 7.84509 20.5507 8.06727 20.0761 8.68017C19.7623 9.07855 19.571 9.51524 19.571 10.0285C19.5633 14.4031 19.5557 18.77 19.548 23.1445C19.548 25.259 19.548 27.3812 19.5403 29.4957C19.5403 29.6872 19.525 29.9017 19.4562 30.0703C19.3184 30.3767 19.0505 30.5376 18.7137 30.4993C18.3693 30.461 18.1167 30.2771 18.0478 29.917C18.0172 29.7485 18.0019 29.5799 18.0019 29.4037C18.0019 23.3514 18.0019 17.3067 17.9943 11.2543C17.9943 10.6568 18.0096 10.0439 17.8718 9.46927C17.6498 8.51162 16.8079 7.8834 15.8206 7.81445C15.4455 7.79147 15.0628 7.7838 14.6878 7.7838C11.5191 7.7838 8.35038 7.7838 5.18167 7.7838C5.0286 7.7838 4.86787 7.7838 4.66886 7.7838C4.66886 7.96001 4.66886 8.09025 4.66886 8.22049C4.66886 16.0426 4.66886 23.8723 4.66886 31.6944C4.66886 31.9013 4.66121 32.1158 4.61529 32.315C4.52344 32.6674 4.17902 32.8972 3.8499 32.8666C3.49782 32.836 3.20697 32.5678 3.16105 32.2077C3.13809 32.0545 3.14574 31.8936 3.14574 31.7327C3.14574 24.9602 3.14574 18.1877 3.14574 11.4229C3.14574 10.9249 3.14574 10.9249 2.65589 10.9249C2.3727 10.9249 2.08951 10.9326 1.81397 10.9249C1.60731 10.9172 1.52312 11.0092 1.53843 11.2084C1.54608 11.2926 1.53843 11.3769 1.53843 11.4688C1.53843 18.9615 1.53843 26.4542 1.53843 33.9468C1.53843 34.1001 1.53843 34.2609 1.53843 34.4448C1.70681 34.4525 1.83693 34.4601 1.96705 34.4601C6.36802 34.4601 10.7767 34.4601 15.1776 34.4601C15.3996 34.4601 15.6216 34.4678 15.8359 34.5138C16.1803 34.5827 16.4329 34.9275 16.4176 35.2646C16.4023 35.617 16.142 35.9158 15.7899 35.9694C15.6063 36 15.4226 36 15.2389 36C10.8455 36 6.45222 35.9847 2.06655 36.0154C1.05623 36.0154 0.329117 35.7242 0 34.7129C0 26.707 0 18.701 0 10.6874Z" fill="#333333"/>
<path d="M36.0345 34.4448C36.0345 34.2303 36.0345 34.0617 36.0345 33.8932C36.0345 26.1094 36.0345 18.3256 36.0422 10.5418C36.0422 10.3733 36.0345 10.1971 36.0575 10.0285C36.111 9.67613 36.4095 9.41565 36.7616 9.385C37.0831 9.36202 37.4122 9.59186 37.504 9.92129C37.55 10.0745 37.5653 10.2354 37.5653 10.3886C37.5653 18.341 37.5653 26.3009 37.5653 34.2609C37.5653 35.3488 36.9606 35.9847 35.8661 35.9924C31.2814 36 26.6968 36 22.1121 35.9924C21.3926 35.9924 21.0023 35.5327 21.2089 34.9658C21.3467 34.5904 21.6529 34.4601 22.0202 34.4525C22.3953 34.4371 22.778 34.4525 23.1607 34.4525C27.3091 34.4525 31.4498 34.4525 35.5982 34.4525C35.7283 34.4448 35.8585 34.4448 36.0345 34.4448Z" fill="#333333"/>
<path d="M9.37591 25.2283C9.00087 25.642 8.69471 25.9945 8.37325 26.3239C8.15129 26.5614 7.83748 26.6457 7.5696 26.4924C7.36294 26.3775 7.14863 26.1094 7.11802 25.8949C7.09506 25.6727 7.24813 25.3816 7.40887 25.1977C7.6844 24.8759 8.02117 24.6001 8.3656 24.2707C8.01352 23.9259 7.67675 23.6501 7.41652 23.3284C7.25579 23.1292 7.09506 22.8304 7.11802 22.6006C7.14098 22.386 7.37825 22.1409 7.57725 22.0106C7.85279 21.8421 8.15129 21.9723 8.37325 22.1945C8.69471 22.5086 8.99322 22.8534 9.32999 23.2134C9.52899 23.0296 9.67441 22.8993 9.81983 22.7614C10.0341 22.5622 10.2255 22.3401 10.4551 22.1485C10.7842 21.8804 11.1746 21.8957 11.4501 22.1639C11.7333 22.432 11.7563 22.861 11.4884 23.1905C11.3047 23.4126 11.0904 23.6195 10.8761 23.8187C10.7306 23.9489 10.5699 24.0562 10.3479 24.2247C10.746 24.6001 11.0827 24.8683 11.3506 25.19C11.5113 25.3892 11.6721 25.688 11.6491 25.9255C11.5955 26.5461 10.8914 26.7836 10.4092 26.3469C10.0877 26.0328 9.78922 25.665 9.37591 25.2283Z" fill="#333333"/>
<path d="M8.58758 12.2733C9.46778 11.3846 10.2714 10.5725 11.0827 9.76039C11.32 9.52289 11.5879 9.33136 11.9553 9.45394C12.4298 9.60716 12.6212 10.1205 12.3609 10.5495C12.2921 10.6644 12.2002 10.764 12.1007 10.8559C11.1669 11.7906 10.2408 12.7253 9.30705 13.6599C8.80954 14.1579 8.42685 14.1579 7.92935 13.6599C7.46246 13.1926 6.99558 12.7329 6.53634 12.2503C6.29142 11.9975 6.2455 11.691 6.40623 11.3769C6.57461 11.0475 6.86546 10.9326 7.20223 11.0168C7.37827 11.0628 7.55431 11.1854 7.68442 11.3156C7.98293 11.5991 8.25081 11.9132 8.58758 12.2733Z" fill="#333333"/>
<path d="M8.57993 18.5248C9.38359 17.7204 10.1107 16.9849 10.8455 16.2571C10.9756 16.1268 11.0981 15.9889 11.2435 15.874C11.5649 15.6135 12.0089 15.6289 12.2691 15.9047C12.537 16.1805 12.537 16.6095 12.2691 16.9313C12.1773 17.0462 12.0701 17.1458 11.9629 17.2454C11.0827 18.1264 10.2026 19.0074 9.32236 19.8885C8.78659 20.4248 8.43451 20.4248 7.89108 19.8885C7.44716 19.4518 7.00323 19.0151 6.57461 18.5631C6.15365 18.1111 6.25315 17.5059 6.77362 17.2913C7.13335 17.1458 7.41654 17.2913 7.66147 17.5442C7.96762 17.8583 8.25847 18.1877 8.57993 18.5248Z" fill="#333333"/>
<path d="M34.4272 7.26284C34.4272 6.51204 34.1593 6.2439 33.4169 6.2439C32.996 6.2439 32.575 6.2439 32.154 6.2439C31.7178 6.2439 31.3657 6.59631 31.3657 7.033C31.3657 7.46969 31.7178 7.8221 32.154 7.8221H32.8658V31.3343C32.7204 31.3343 32.598 31.3343 32.4755 31.3343C29.0389 31.3343 25.6023 31.3343 22.1657 31.342C21.8749 31.342 21.5764 31.3497 21.2855 31.3956C20.2752 31.5565 19.4639 32.0698 18.8057 32.8742C18.7444 32.8283 18.7062 32.813 18.6909 32.79C17.826 31.748 16.7009 31.319 15.3614 31.3343C12.6979 31.3573 10.0267 31.342 7.36313 31.342C7.21771 31.342 7.06463 31.342 6.92686 31.3573C6.58244 31.411 6.33751 31.6791 6.3069 32.0315C6.27628 32.4146 6.46763 32.7134 6.82736 32.813C7.0034 32.8589 7.18709 32.8742 7.37078 32.8742C10.0956 32.8742 12.828 32.8742 15.5528 32.8742C16.5631 32.8742 17.3208 33.3109 17.7724 34.215C17.8872 34.4448 17.9561 34.7206 17.9867 34.9811C18.0709 35.6706 18.2929 35.977 18.7827 35.977C19.2879 35.9847 19.5328 35.6629 19.594 34.9274C19.6017 34.8355 19.617 34.7436 19.6399 34.6516C19.9461 33.5331 20.8339 32.8666 22.0433 32.8666C25.8243 32.8666 29.6053 32.8666 33.3786 32.8666C34.1517 32.8666 34.4196 32.6061 34.4196 31.84C34.4272 23.6425 34.4272 15.4527 34.4272 7.26284Z" fill="#333333"/>
<path d="M24.8293 13.185C25.0589 13.2463 25.1048 13.3765 25.1048 13.5833C25.1048 17.0079 25.0972 20.4401 25.1048 23.8647C25.1048 24.1175 25.0972 24.3856 25.1737 24.6231C25.6483 26.0864 26.1458 27.5421 26.6356 29.0053C26.804 29.5033 27.0413 29.7102 27.4163 29.7025C27.7761 29.6949 28.0133 29.4803 28.1741 29.0207C28.197 28.9517 28.22 28.8828 28.2429 28.8138C28.7098 27.4118 29.1767 26.0098 29.6359 24.6078C29.6819 24.4623 29.7048 24.3014 29.7048 24.1405C29.7048 21.3748 29.7048 18.6091 29.7048 15.8434C29.7048 15.7591 29.7048 15.6749 29.6972 15.5829C29.6513 15.1999 29.3604 14.9164 29.0007 14.9011C28.6409 14.8781 28.3501 15.0926 28.2506 15.468C28.2123 15.6059 28.197 15.7591 28.197 15.9047C28.197 18.295 28.197 20.6776 28.197 23.0679C28.197 23.1982 28.197 23.3284 28.197 23.4816C27.6459 23.4816 27.1408 23.4816 26.605 23.4816C26.5897 23.359 26.5744 23.2518 26.5744 23.1445C26.5667 19.9651 26.5667 16.7781 26.5591 13.5987C26.5591 13.3305 26.6586 13.2386 26.9265 13.2463C27.7914 13.2616 28.6639 13.2539 29.5288 13.2539C30.2176 13.2539 30.5008 12.9705 30.5008 12.2656C30.5008 11.1164 30.5008 9.97492 30.5008 8.82574H30.4932V4.87256C30.4855 4.16773 30.4779 3.4629 30.4396 2.75807C30.3401 1.25647 29.1155 0.00769503 27.4087 3.3823e-05C25.6789 -0.00762738 24.3548 1.28712 24.3242 2.95726C24.2706 6.11367 24.3012 9.27775 24.3012 12.4342C24.3088 12.8096 24.4696 13.0854 24.8293 13.185ZM27.9215 25.0215C27.7531 25.5195 27.6077 25.9792 27.4546 26.4312C27.424 26.4312 27.3934 26.4388 27.3551 26.4388C27.202 25.9792 27.0489 25.5195 26.8882 25.0215C27.2479 25.0215 27.5464 25.0215 27.9215 25.0215ZM25.809 3.19476C25.809 2.21412 26.4825 1.49397 27.3934 1.48631C28.2889 1.47865 29.0007 2.22178 29.0007 3.17943C29.0083 5.90682 29.0007 8.64187 29.0083 11.3693C29.0083 11.6604 28.9241 11.7447 28.6333 11.7447C27.7072 11.7293 26.781 11.737 25.8014 11.737C25.8014 11.1701 25.8014 10.6721 25.8014 10.1665C25.809 7.85277 25.809 5.52376 25.809 3.19476Z" fill="#333333"/>
</svg>
