<svg width="19" height="14" viewBox="0 0 19 14" fill="none" xmlns="http://www.w3.org/2000/svg">
<path d="M11.0391 2.51465C13.1836 2.81934 14.9736 3.79199 16.4092 5.43262C17.8564 7.09082 18.5801 9.02148 18.5801 11.2246C18.5801 11.8457 18.5156 12.458 18.3867 13.0615H16.0049C16.1807 12.4639 16.2686 11.8516 16.2686 11.2246C16.2686 9.66016 15.7676 8.28027 14.7656 7.08496C13.7812 5.90137 12.5391 5.16016 11.0391 4.86133V10.9873L8.66602 12.1738V4.84375C7.13086 5.10742 5.85645 5.83691 4.84277 7.03223C3.81738 8.23926 3.30469 9.63672 3.30469 11.2246C3.30469 11.8516 3.39258 12.4639 3.56836 13.0615H1.17773C1.04883 12.458 0.984375 11.8457 0.984375 11.2246C0.984375 8.99805 1.72266 7.05273 3.19922 5.38867C4.66406 3.73633 6.48633 2.77246 8.66602 2.49707V1.38965L11.0391 0.203125V2.51465Z" fill="#002B53"/>
</svg>
