<svg width="248" height="66" viewBox="0 0 248 66" fill="none" xmlns="http://www.w3.org/2000/svg">
<path fill-rule="evenodd" clip-rule="evenodd" d="M27.158 50.1872L0.0917499 65.7847L0 53.3984L19.451 42.205L27.158 50.1872Z" fill="#245C8A"/>
<path fill-rule="evenodd" clip-rule="evenodd" d="M27.0662 50.1872C25.0477 51.38 23.121 52.481 21.1025 53.6737C18.717 50.5542 14.68 48.811 9.72546 47.8018C12.7532 46.0585 15.781 44.3153 18.8087 42.6638C21.5612 45.141 24.3137 47.71 27.0662 50.1872Z" fill="#003461"/>
<path fill-rule="evenodd" clip-rule="evenodd" d="M56.6097 56.7932L45.875 62.9405C36.7918 57.7107 27.7085 52.481 18.6253 47.1595C15.9645 45.5997 14.2213 45.6915 11.5605 46.7925L22.8458 40.2782C24.4055 39.4525 26.3323 39.3607 27.9838 40.37L28.0755 40.4617L56.6097 56.7932Z" fill="#3379B7"/>
<path fill-rule="evenodd" clip-rule="evenodd" d="M20.4602 31.2867V0L31.2867 6.14724L31.1949 28.626L20.4602 31.2867Z" fill="#245C8A"/>
<path fill-rule="evenodd" clip-rule="evenodd" d="M20.4602 31.195C20.4602 28.9012 20.4602 26.6075 20.4602 24.3137C24.4055 23.7632 27.8919 21.1025 31.1949 17.4325C31.1949 20.919 31.1949 24.4055 31.1032 27.892C27.6167 28.993 24.0385 30.094 20.4602 31.195Z" fill="#003461"/>
<path fill-rule="evenodd" clip-rule="evenodd" d="M0 53.4902V41.1957C9.08324 35.966 18.1665 30.7362 27.2497 25.4147C29.9105 23.855 30.7362 22.387 31.1032 19.5427V32.5712C31.1032 34.3145 30.094 36.0577 28.4425 36.9752V37.067L0 53.4902Z" fill="#3379B7"/>
<path fill-rule="evenodd" clip-rule="evenodd" d="M40.1864 34.9567L67.3444 50.646L56.5179 56.885L37.1587 45.5997L40.1864 34.9567Z" fill="#245C8A"/>
<path fill-rule="evenodd" clip-rule="evenodd" d="M40.2782 35.0485C42.2967 36.2413 44.2234 37.3423 46.2419 38.535C44.7739 42.205 45.3244 46.5173 46.8842 51.2883C43.8564 49.545 40.8287 47.8018 37.8927 45.9668C38.6267 42.2968 39.4525 38.6268 40.2782 35.0485Z" fill="#003461"/>
<path fill-rule="evenodd" clip-rule="evenodd" d="M31.1949 6.14725L41.8379 12.2945C41.8379 22.8457 41.8379 33.3052 41.8379 43.7647C41.8379 46.7925 42.7554 48.3522 45.0492 50.0955L33.7639 43.5812C32.2959 42.6637 31.2867 41.0122 31.2867 39.0855V38.9937L31.1949 6.14725Z" fill="#3379B7"/>
<path d="M100.833 23.8889C100.007 23.0631 99.0899 22.3291 97.9889 21.8704C96.8879 21.4116 95.6034 21.1364 94.3189 21.1364C93.1262 21.1364 92.0252 21.3199 91.1077 21.7786C90.1902 22.2374 89.3644 22.7879 88.7222 23.5219C88.5387 22.2374 87.8047 21.5951 86.5202 21.5951C86.0614 21.5951 85.6027 21.7786 85.2357 22.1456C84.8687 22.5126 84.6852 22.9714 84.6852 23.5219V40.7709C84.6852 41.4131 84.8687 41.9636 85.3274 42.3306C85.7862 42.6976 86.2449 42.8811 86.8872 42.8811C87.5294 42.8811 88.0799 42.6976 88.4469 42.3306C88.8139 41.9636 88.9974 41.4131 88.9974 40.7709V30.7701C88.9974 30.0361 89.0892 29.3021 89.3644 28.6599C89.6397 28.0176 89.9149 27.4671 90.3737 27.0084C90.8324 26.5496 91.3829 26.1826 92.0252 25.9074C92.6674 25.6321 93.3097 25.4486 94.1354 25.4486C94.8694 25.4486 95.6034 25.6321 96.1539 25.9074C96.7962 26.1826 97.2549 26.5496 97.7137 27.0084C98.1724 27.4671 98.4477 28.0176 98.6312 28.6599C98.8147 29.3021 98.9982 29.9444 98.9982 30.6784V40.6791C98.9982 41.3214 99.1817 41.8719 99.6404 42.2389C100.007 42.6059 100.558 42.7894 101.2 42.7894C101.842 42.7894 102.393 42.6059 102.76 42.2389C103.127 41.8719 103.31 41.3214 103.31 40.6791V30.7701C103.31 29.3939 103.127 28.1094 102.668 27.0084C102.209 25.8156 101.567 24.8064 100.833 23.8889Z" fill="#215077"/>
<path d="M125.147 24.4394C124.138 23.4301 122.945 22.6044 121.66 22.0539C120.284 21.5034 118.908 21.1364 117.348 21.1364C115.788 21.1364 114.412 21.4116 113.036 22.0539C111.66 22.6044 110.467 23.4301 109.55 24.4394C108.54 25.4486 107.715 26.6414 107.164 27.9259C106.614 29.3021 106.338 30.6784 106.338 32.2381C106.338 33.7979 106.614 35.1741 107.164 36.5504C107.715 37.9266 108.54 39.0276 109.55 40.0369C110.559 41.0461 111.751 41.7801 113.036 42.4224C114.412 42.9729 115.788 43.2481 117.348 43.2481C118.908 43.2481 120.284 42.9729 121.66 42.4224C123.037 41.8719 124.229 41.0461 125.147 40.0369C126.064 39.0276 126.982 37.8349 127.532 36.5504C128.083 35.2659 128.358 33.7979 128.358 32.2381C128.358 30.6784 128.083 29.3021 127.532 27.9259C126.982 26.6414 126.156 25.4486 125.147 24.4394ZM123.495 34.8989C123.128 35.7246 122.67 36.4586 122.027 37.0091C121.385 37.6514 120.651 38.1101 119.917 38.4771C119.091 38.8441 118.266 39.0276 117.256 39.0276C116.339 39.0276 115.421 38.8441 114.596 38.4771C113.77 38.1101 113.036 37.6514 112.485 37.0091C111.843 36.3669 111.385 35.7246 111.018 34.8989C110.651 34.0731 110.467 33.2474 110.467 32.2381C110.467 31.2289 110.651 30.4031 111.018 29.5774C111.385 28.7516 111.843 28.0176 112.485 27.3754C113.128 26.7331 113.77 26.2744 114.596 25.9074C115.421 25.5404 116.339 25.3569 117.256 25.3569C118.174 25.3569 119.091 25.5404 119.917 25.9074C120.743 26.2744 121.477 26.7331 122.027 27.3754C122.67 28.0176 123.128 28.7516 123.495 29.5774C123.862 30.4031 124.046 31.3206 124.046 32.2381C124.046 33.1556 123.862 34.0731 123.495 34.8989Z" fill="#215077"/>
<path d="M140.744 21.5952C139.643 21.5952 138.634 21.7787 137.717 22.1457C136.799 22.5127 136.065 23.0632 135.331 23.889C135.239 23.2467 135.148 22.6962 134.781 22.3292C134.414 21.9622 134.047 21.7787 133.404 21.7787C132.579 21.7787 132.028 22.054 131.753 22.5127C131.478 22.9715 131.294 23.522 131.294 24.1642V41.0462C131.294 41.5967 131.478 42.1472 131.936 42.5142C132.303 42.8812 132.854 43.0647 133.496 43.0647C134.138 43.0647 134.689 42.8812 135.056 42.5142C135.423 42.1472 135.606 41.6884 135.606 41.1379V30.9537C135.606 30.2197 135.698 29.4857 135.79 28.9352C135.973 28.293 136.249 27.8342 136.616 27.3755C136.983 26.9167 137.533 26.5497 138.267 26.3662C139.001 26.091 139.827 25.9075 140.928 25.9075C141.57 25.8157 142.029 25.6322 142.396 25.2652C142.671 24.8982 142.855 24.4395 142.855 23.7972C142.855 23.0632 142.671 22.5127 142.212 22.1457C141.937 21.7787 141.387 21.5952 140.744 21.5952Z" fill="#215077"/>
<path d="M172.582 23.6136C171.756 22.8796 170.93 22.2374 169.921 21.7786C168.912 21.3199 167.811 21.1364 166.801 21.1364C165.609 21.1364 164.416 21.4116 163.131 21.8704C161.939 22.3291 160.929 23.1549 160.195 24.3476C159.828 23.7971 159.461 23.3384 159.003 22.8796C158.544 22.4209 157.993 22.1456 157.443 21.8704C156.892 21.5951 156.25 21.4116 155.608 21.3199C154.966 21.2281 154.323 21.1364 153.773 21.1364C152.855 21.1364 151.938 21.3199 151.112 21.6869C150.286 22.0539 149.552 22.6044 148.91 23.4301C148.727 22.2374 147.993 21.6869 146.8 21.6869C146.249 21.6869 145.791 21.8704 145.515 22.2374C145.148 22.6044 145.057 23.0631 145.057 23.6136V40.8626C145.057 41.5049 145.24 42.0554 145.699 42.4224C146.158 42.7894 146.616 42.9729 147.259 42.9729C147.901 42.9729 148.451 42.7894 148.818 42.4224C149.185 42.0554 149.369 41.5049 149.369 40.8626V29.8526C149.369 29.2104 149.461 28.6599 149.736 28.1094C150.011 27.5589 150.378 27.1001 150.745 26.7331C151.204 26.3661 151.663 25.9991 152.213 25.8156C152.764 25.6321 153.314 25.4486 153.773 25.4486C154.232 25.4486 154.782 25.5404 155.333 25.8156C155.791 25.9991 156.25 26.3661 156.709 26.7331C157.076 27.1001 157.443 27.5589 157.626 28.1094C157.81 28.6599 157.993 29.2104 157.993 29.8526V40.7709C157.993 41.4131 158.177 41.9636 158.636 42.3306C159.003 42.6976 159.553 42.8811 160.104 42.8811C160.746 42.8811 161.296 42.6976 161.663 42.3306C162.03 41.9636 162.214 41.4131 162.214 40.7709V29.8526C162.214 29.2104 162.306 28.6599 162.581 28.1094C162.856 27.5589 163.223 27.1001 163.59 26.7331C164.049 26.3661 164.508 25.9991 165.058 25.8156C165.609 25.6321 166.159 25.4486 166.71 25.4486C167.26 25.4486 167.719 25.5404 168.269 25.8156C168.728 25.9991 169.187 26.3661 169.646 26.7331C170.013 27.1001 170.38 27.5589 170.563 28.1094C170.747 28.6599 170.93 29.2104 170.93 29.8526V40.7709C170.93 41.4131 171.114 41.9636 171.572 42.3306C171.939 42.6976 172.49 42.8811 173.132 42.8811C173.774 42.8811 174.325 42.6976 174.692 42.3306C175.059 41.9636 175.242 41.4131 175.242 40.7709V29.8526C175.242 28.5681 174.967 27.4671 174.508 26.3661C173.958 25.3569 173.316 24.4394 172.582 23.6136Z" fill="#215077"/>
<path d="M197.905 21.6869C197.262 21.6869 196.804 21.8704 196.345 22.2374C195.886 22.6044 195.703 23.1549 195.703 23.7971C194.969 22.9714 194.051 22.3291 192.95 21.8704C191.849 21.4116 190.656 21.1364 189.188 21.1364C187.629 21.1364 186.161 21.4116 184.784 22.0539C183.408 22.6044 182.215 23.4301 181.298 24.4394C180.289 25.4486 179.555 26.6414 179.004 27.9259C178.454 29.3021 178.178 30.6784 178.178 32.2381C178.178 33.7979 178.454 35.1741 179.004 36.5504C179.555 37.9266 180.289 39.0276 181.298 40.0369C182.307 41.0461 183.408 41.7801 184.784 42.4224C186.161 43.0646 187.629 43.2481 189.28 43.2481C189.922 43.2481 190.565 43.1564 191.207 43.0646C191.849 42.8811 192.4 42.6976 193.042 42.4224C193.592 42.1471 194.143 41.8719 194.602 41.5049C195.06 41.1379 195.519 40.8626 195.794 40.4956V40.6791C195.794 41.3214 195.978 41.8719 196.437 42.2389C196.895 42.6059 197.354 42.7894 197.996 42.7894C198.639 42.7894 199.189 42.6059 199.556 42.2389C199.923 41.8719 200.107 41.3214 200.107 40.6791V23.7971C200.107 23.1549 199.923 22.6044 199.556 22.2374C199.097 21.8704 198.547 21.6869 197.905 21.6869ZM195.152 34.8989C194.785 35.7246 194.418 36.4586 193.776 37.0091C193.134 37.5596 192.491 38.1101 191.757 38.4771C190.932 38.8441 190.106 39.0276 189.188 39.0276C188.271 39.0276 187.353 38.8441 186.528 38.4771C185.702 38.1101 184.968 37.6514 184.417 37.0091C183.867 36.3669 183.316 35.7246 182.949 34.8989C182.582 34.0731 182.399 33.2474 182.399 32.2381C182.399 31.2289 182.582 30.4031 182.949 29.5774C183.316 28.7516 183.775 28.0176 184.417 27.3754C185.06 26.7331 185.702 26.2744 186.528 25.9074C187.353 25.5404 188.271 25.3569 189.188 25.3569C190.106 25.3569 190.932 25.5404 191.757 25.9074C192.583 26.2744 193.225 26.7331 193.776 27.3754C194.326 28.0176 194.785 28.7516 195.152 29.5774C195.519 30.4031 195.611 31.3206 195.611 32.2381C195.611 33.1556 195.519 34.0731 195.152 34.8989Z" fill="#215077"/>
<path d="M205.795 36.0916C205.153 36.0916 204.694 36.2751 204.235 36.7339C203.777 37.1009 203.593 37.6514 203.593 38.2936V40.6791C203.593 41.3214 203.777 41.8719 204.235 42.2389C204.694 42.6059 205.153 42.7894 205.795 42.7894C206.437 42.7894 206.988 42.6059 207.355 42.2389C207.722 41.8719 207.905 41.3214 207.905 40.6791V38.2019C207.905 37.5596 207.722 37.1009 207.355 36.6421C207.08 36.2751 206.529 36.0916 205.795 36.0916Z" fill="#215077"/>
<path d="M229.834 21.6869C229.191 21.6869 228.733 21.8704 228.274 22.2374C227.815 22.6044 227.632 23.1549 227.632 23.7971C226.898 22.9714 225.98 22.3291 224.879 21.8704C223.778 21.4116 222.585 21.1364 221.117 21.1364C219.558 21.1364 218.09 21.4116 216.713 22.0539C215.337 22.6044 214.144 23.4301 213.227 24.4394C212.218 25.4486 211.484 26.6414 210.933 27.9259C210.383 29.3021 210.107 30.6784 210.107 32.2381C210.107 33.7979 210.383 35.1741 210.933 36.5504C211.484 37.9266 212.218 39.0276 213.227 40.0369C214.236 41.0461 215.337 41.7801 216.713 42.4224C218.09 43.0646 219.558 43.2481 221.209 43.2481C221.851 43.2481 222.494 43.1564 223.136 43.0646C223.778 42.8811 224.329 42.6976 224.971 42.4224C225.521 42.1471 226.072 41.8719 226.531 41.5049C226.989 41.1379 227.448 40.8626 227.723 40.4956V40.6791C227.723 41.3214 227.907 41.8719 228.366 42.2389C228.824 42.6059 229.283 42.7894 229.925 42.7894C230.568 42.7894 231.118 42.6059 231.485 42.2389C231.852 41.8719 232.036 41.3214 232.036 40.6791V23.7971C232.036 23.1549 231.852 22.6044 231.485 22.2374C231.026 21.8704 230.568 21.6869 229.834 21.6869ZM227.173 34.8989C226.806 35.7246 226.439 36.4586 225.797 37.0091C225.154 37.5596 224.512 38.1101 223.778 38.4771C222.952 38.8441 222.127 39.0276 221.209 39.0276C220.292 39.0276 219.374 38.8441 218.548 38.4771C217.723 38.1101 216.989 37.6514 216.438 37.0091C215.888 36.3669 215.337 35.7246 214.97 34.8989C214.603 34.0731 214.42 33.2474 214.42 32.2381C214.42 31.2289 214.603 30.4031 214.97 29.5774C215.337 28.7516 215.796 28.0176 216.438 27.3754C217.08 26.7331 217.723 26.2744 218.548 25.9074C219.374 25.5404 220.292 25.3569 221.209 25.3569C222.127 25.3569 222.952 25.5404 223.778 25.9074C224.604 26.2744 225.246 26.7331 225.797 27.3754C226.347 28.0176 226.806 28.7516 227.173 29.5774C227.54 30.4031 227.632 31.3206 227.632 32.2381C227.632 33.1556 227.54 34.0731 227.173 34.8989Z" fill="#215077"/>
<path d="M245.798 38.3854H240.293L247.541 25.6322C247.633 25.4487 247.817 25.1734 247.817 24.8982C247.908 24.6229 247.908 24.3477 247.908 24.0724C247.908 23.4302 247.725 22.8797 247.266 22.4209C246.807 21.9622 246.257 21.7787 245.523 21.7787H236.898C236.256 21.7787 235.706 21.9622 235.339 22.4209C234.972 22.8797 234.788 23.3384 234.788 23.9807C234.788 24.6229 234.972 25.1734 235.339 25.5404C235.706 25.9074 236.256 26.1827 236.898 26.1827H242.128L234.88 38.9359C234.513 39.4864 234.421 39.9452 234.421 40.4957C234.421 41.1379 234.605 41.5967 235.063 42.0554C235.43 42.4224 236.073 42.6977 236.807 42.6977H245.798C246.44 42.6977 246.991 42.5142 247.358 42.1472C247.725 41.7802 248 41.2297 248 40.5874C248 39.9452 247.817 39.3947 247.358 39.0277C246.991 38.5689 246.44 38.3854 245.798 38.3854Z" fill="#215077"/>
</svg>
