<svg width="101" height="43" viewBox="0 0 101 43" fill="none" xmlns="http://www.w3.org/2000/svg">
<path d="M15.7678 22.7679L15.6078 26.2879H17.6238L17.4638 22.7679L20.4078 24.6559L21.4318 22.9279L18.3278 21.3279L21.4318 19.7279L20.4078 17.9679L17.4638 19.8559L17.6238 16.3359H15.6078L15.7678 19.8559L12.7918 17.9679L11.7998 19.7279L14.9038 21.3279L11.7998 22.9279L12.7918 24.6559L15.7678 22.7679Z" fill="#215077"/>
<path d="M24.2666 21.9679C23.6266 23.6319 23.3066 25.4239 23.3066 27.3439C23.3066 29.2639 23.6266 31.0559 24.2666 32.7519C24.9066 34.4479 25.8986 35.8239 27.2106 36.8479C28.5226 37.8719 30.1546 38.3839 32.1066 38.3839C34.0586 38.3839 35.6906 37.8719 37.0026 36.8479C38.3146 35.7919 39.3066 34.4479 39.9466 32.7839C40.5866 31.0879 40.9066 29.2959 40.9066 27.3759C40.9066 25.4559 40.5866 23.6639 39.9466 21.9999C39.3066 20.3679 38.3146 19.0239 37.0026 17.9679C35.6906 16.9439 34.0586 16.4319 32.1066 16.4319C30.1546 16.4319 28.5226 16.9439 27.2106 17.9679C25.8986 19.0239 24.9066 20.3679 24.2666 21.9999V21.9679ZM35.3066 22.3199C35.9786 23.5679 36.2986 25.2639 36.2986 27.4079C36.2986 29.4879 35.9466 31.1839 35.2746 32.4959C34.6026 33.7759 33.5466 34.4159 32.1066 34.4159C30.6666 34.4159 29.6106 33.7759 28.9386 32.4959C28.2666 31.1839 27.9146 29.4879 27.9146 27.4079C27.9146 25.3279 28.2666 23.6319 28.9386 22.3199C29.6106 21.0399 30.6666 20.3999 32.1066 20.3999C33.5466 20.3999 34.6026 21.0399 35.2746 22.3199H35.3066Z" fill="#215077"/>
<path d="M44.1103 21.9679C43.4703 23.6319 43.1503 25.4239 43.1503 27.3439C43.1503 29.2639 43.4703 31.0559 44.1103 32.7519C44.7503 34.4479 45.7423 35.8239 47.0543 36.8479C48.3663 37.8719 49.9983 38.3839 51.9503 38.3839C53.9023 38.3839 55.5343 37.8719 56.8463 36.8479C58.1583 35.7919 59.1503 34.4479 59.7903 32.7839C60.4303 31.0879 60.7503 29.2959 60.7503 27.3759C60.7503 25.4559 60.4303 23.6639 59.7903 21.9999C59.1503 20.3679 58.1583 19.0239 56.8463 17.9679C55.5343 16.9439 53.9023 16.4319 51.9503 16.4319C49.9983 16.4319 48.3663 16.9439 47.0543 17.9679C45.7423 19.0239 44.7503 20.3679 44.1103 21.9999V21.9679ZM55.1503 22.3199C55.8223 23.5679 56.1423 25.2639 56.1423 27.4079C56.1423 29.4879 55.7903 31.1839 55.1183 32.4959C54.4463 33.7759 53.3903 34.4159 51.9503 34.4159C50.5103 34.4159 49.4543 33.7759 48.7823 32.4959C48.1103 31.1839 47.7583 29.4879 47.7583 27.4079C47.7583 25.3279 48.1103 23.6319 48.7823 22.3199C49.4543 21.0399 50.5103 20.3999 51.9503 20.3999C53.3903 20.3999 54.4463 21.0399 55.1183 22.3199H55.1503Z" fill="#215077"/>
<path d="M63.9541 21.9679C63.3141 23.6319 62.9941 25.4239 62.9941 27.3439C62.9941 29.2639 63.3141 31.0559 63.9541 32.7519C64.5941 34.4479 65.5861 35.8239 66.8981 36.8479C68.2101 37.8719 69.8421 38.3839 71.7941 38.3839C73.7461 38.3839 75.378 37.8719 76.69 36.8479C78.002 35.7919 78.994 34.4479 79.634 32.7839C80.274 31.0879 80.5941 29.2959 80.5941 27.3759C80.5941 25.4559 80.274 23.6639 79.634 21.9999C78.994 20.3679 78.002 19.0239 76.69 17.9679C75.378 16.9439 73.7461 16.4319 71.7941 16.4319C69.8421 16.4319 68.2101 16.9439 66.8981 17.9679C65.5861 19.0239 64.5941 20.3679 63.9541 21.9999V21.9679ZM74.9941 22.3199C75.6661 23.5679 75.9861 25.2639 75.9861 27.4079C75.9861 29.4879 75.6341 31.1839 74.9621 32.4959C74.2901 33.7759 73.2341 34.4159 71.7941 34.4159C70.3541 34.4159 69.2981 33.7759 68.6261 32.4959C67.9541 31.1839 67.6021 29.4879 67.6021 27.4079C67.6021 25.3279 67.9541 23.6319 68.6261 22.3199C69.2981 21.0399 70.3541 20.3999 71.7941 20.3999C73.2341 20.3999 74.2901 21.0399 74.9621 22.3199H74.9941Z" fill="#215077"/>
<path d="M85.8138 32.1119L83.3178 35.1839C85.2698 37.3279 87.9898 38.3839 91.5418 38.3839C93.2698 38.3839 94.7738 38.0959 96.0218 37.4879C97.3018 36.8799 98.2938 36.0159 98.9978 34.8959C99.7018 33.7759 100.054 32.4639 100.054 30.9599C100.054 29.5839 99.7338 28.3679 99.0938 27.3119C98.4538 26.2559 97.6218 25.4559 96.5658 24.9119C95.5098 24.3679 94.3578 24.0799 93.1738 24.0799C92.2458 24.0799 91.3498 24.2399 90.5178 24.5599C89.6858 24.8799 88.9818 25.2959 88.3738 25.8399V20.4959H98.5818V16.5919H83.9258V28.7839L87.0938 29.6479C88.3418 28.4639 89.8458 27.8879 91.6058 27.8879C92.7898 27.8879 93.7178 28.1759 94.3898 28.7839C95.0618 29.3919 95.4138 30.1919 95.4138 31.1839C95.4138 32.1119 95.0618 32.8799 94.3578 33.4879C93.6218 34.0959 92.6618 34.4159 91.4778 34.4159C90.3578 34.4159 89.3018 34.2239 88.3418 33.8399C87.3818 33.4559 86.5178 32.8799 85.7818 32.1439L85.8138 32.1119Z" fill="#215077"/>
<path d="M33.5788 5.83298C33.7548 5.37098 33.8428 4.87598 33.8428 4.33698C33.8428 3.62198 33.6888 2.97298 33.3808 2.40098C33.0728 1.82898 32.6438 1.37798 32.0938 1.04798C31.5438 0.717979 30.9168 0.552979 30.2018 0.552979C29.4868 0.552979 28.8488 0.717979 28.2988 1.04798C27.7488 1.37798 27.3198 1.82898 27.0118 2.40098C26.7038 2.97298 26.5498 3.62198 26.5498 4.33698C26.5498 5.05198 26.7038 5.70098 27.0118 6.27298C27.3198 6.84498 27.7488 7.29598 28.2988 7.62598C28.8488 7.95598 29.4758 8.12098 30.1908 8.12098C30.9278 8.12098 31.5878 7.93398 32.1708 7.57098L32.8748 8.32998L33.5128 7.77998L32.8198 7.03198C33.1278 6.70198 33.3698 6.29498 33.5568 5.82198L33.5788 5.83298ZM31.5658 6.93298C31.1588 7.18598 30.6968 7.30698 30.1798 7.30698C29.6408 7.30698 29.1678 7.17498 28.7608 6.92198C28.3538 6.66898 28.0348 6.31698 27.8148 5.86598C27.5948 5.41498 27.4848 4.90898 27.4848 4.34798C27.4848 3.78698 27.5948 3.26998 27.8148 2.81898C28.0348 2.36798 28.3428 2.01598 28.7498 1.76298C29.1568 1.50998 29.6298 1.37798 30.1688 1.37798C30.7078 1.37798 31.1808 1.50998 31.5878 1.76298C31.9948 2.01598 32.3138 2.36798 32.5338 2.81898C32.7538 3.26998 32.8638 3.78698 32.8638 4.35898C32.8638 4.76598 32.8088 5.15098 32.6878 5.49198C32.5668 5.84398 32.4018 6.15198 32.1928 6.41598L31.1588 5.30498L30.5208 5.84398L31.5658 6.93298Z" fill="#215077"/>
<path d="M39.4807 6.37198L40.1297 7.99998H41.1417L38.1827 0.662978H37.0497L34.1017 7.99998H35.1137L35.7627 6.37198H39.4807ZM36.0267 5.55798L37.6217 1.47698L39.2057 5.55798H36.0267Z" fill="#215077"/>
<path d="M43.5367 4.89798V7.99998H44.4497V4.89798L47.3317 0.662978H46.2647L43.9877 4.07298L41.7107 0.662978H40.6437L43.5367 4.89798Z" fill="#215077"/>
<path d="M49.2015 2.08198L53.4805 7.99998H54.3605V0.662978H53.4475V6.45998L49.2235 0.662978H48.2885V7.99998H49.2015V2.08198Z" fill="#215077"/>
<path d="M60.6966 6.37198L61.3456 7.99998H62.3576L59.3986 0.662978H58.2656L55.3176 7.99998H56.3296L56.9786 6.37198H60.6966ZM57.2426 5.55798L58.8376 1.47698L60.4216 5.55798H57.2426Z" fill="#215077"/>
<path d="M65.6928 5.08498L67.5628 7.99998H68.6408L66.6608 5.00798C67.0128 4.97498 67.3318 4.86498 67.6068 4.69998C67.8928 4.52398 68.1238 4.28198 68.2998 3.97398C68.4758 3.66598 68.5638 3.30298 68.5638 2.87398C68.5638 2.44498 68.4648 2.04898 68.2668 1.70798C68.0688 1.36698 67.7938 1.11398 67.4418 0.937979C67.0898 0.761978 66.6938 0.673979 66.2428 0.673979H63.2948V8.01098H64.2078V5.09598L65.6928 5.08498ZM67.1888 1.88398C67.4638 2.14798 67.5958 2.48898 67.5958 2.89598C67.5958 3.30298 67.4638 3.64398 67.1888 3.90798C66.9138 4.17198 66.5618 4.30398 66.1328 4.30398H64.2078V1.49898H66.1328C66.5618 1.49898 66.9138 1.63098 67.1888 1.89498V1.88398Z" fill="#215077"/>
<path d="M75.5731 4.87598L77.9161 7.99998H79.0161L76.1671 4.22698L78.8511 0.662978H77.7401L75.5731 3.59998L73.3951 0.662978H72.2841L74.9791 4.23798L72.1191 7.99998H73.2301L75.5731 4.87598Z" fill="#215077"/>
<path d="M84.9489 1.02598C84.3879 0.706979 83.7499 0.552979 83.0459 0.552979C81.8689 0.552979 80.9229 1.01498 80.1969 1.92798L80.9229 2.37898C81.1539 2.08198 81.4619 1.82898 81.8469 1.64198C82.2099 1.45498 82.6169 1.36698 83.0459 1.36698C83.5519 1.36698 84.0139 1.47698 84.4209 1.70798C84.8389 1.93898 85.1689 2.25798 85.4219 2.67598C85.6749 3.09398 85.8179 3.56698 85.8509 4.09498H79.5809C79.5809 4.90898 79.7239 5.62398 80.0099 6.23998C80.2959 6.85598 80.7029 7.32898 81.2419 7.65898C81.7809 7.98898 82.4189 8.15398 83.1669 8.15398C83.8489 8.15398 84.4649 7.99998 85.0039 7.68098C85.5649 7.36198 85.9939 6.91098 86.3129 6.32798C86.6319 5.74498 86.7859 5.08498 86.7859 4.34798C86.7859 3.61098 86.6209 2.95098 86.2909 2.37898C85.9609 1.79598 85.5099 1.35598 84.9379 1.03698L84.9489 1.02598ZM84.3769 7.04298C83.9919 7.25198 83.5629 7.35098 83.0899 7.35098C82.3639 7.35098 81.7809 7.11998 81.3299 6.65798C80.8789 6.19598 80.6149 5.61298 80.5379 4.89798H85.7739C85.7079 5.39298 85.5539 5.82198 85.3009 6.17398C85.0479 6.53698 84.7289 6.82298 84.3439 7.03198L84.3769 7.04298Z" fill="#215077"/>
<path d="M90.0537 1.47698V7.99998H90.9667V1.47698H93.2987V0.662978H87.7327V1.47698H90.0537Z" fill="#215077"/>
<path d="M96.3271 1.47698V7.99998H97.2401V1.47698H99.5721V0.662978H94.0061V1.47698H96.3271Z" fill="#215077"/>
<path d="M15.2672 36.694C14.2925 36.6386 13.3083 36.6497 12.3336 36.694C11.3017 36.7384 10.5659 37.3591 10.1072 38.4344C10.0595 38.5452 9.93524 38.6893 9.84924 38.6893C8.87458 38.6893 7.88082 38.7447 6.91573 38.6228C5.23397 38.4122 3.98222 36.7273 3.93444 34.7542C3.91533 34.0669 3.93444 33.3686 3.93444 32.6702C4.11599 32.6148 4.27843 32.5815 4.43132 32.5261C5.39642 32.1825 6.09396 31.1738 6.10352 29.9988C6.12263 27.3162 6.12263 24.6226 6.10352 21.94C6.09396 20.6653 5.34864 19.6455 4.27843 19.3351C4.17332 19.3018 4.07777 19.2686 3.98222 19.2353C4.29754 11.4537 9.81102 4.34829 17.3502 3.97141C17.7087 3.95333 18 3.66934 18 3.31039V2.9516C18 2.39449 17.5473 1.93896 16.9918 1.98089C10.0123 2.50765 3.85112 8.4585 2.51068 16.7412C2.37691 17.5837 2.32913 18.4483 2.22402 19.2907C2.20491 19.4459 2.0998 19.6455 1.98514 19.7231C0.6856 20.5988 0.0262774 21.9068 0.00716656 23.6471C-0.00238885 25.1879 -0.00238885 26.7176 0.00716656 28.2584C0.016722 29.9766 0.676045 31.2846 1.96603 32.1381C2.14758 32.2601 2.20491 32.3931 2.21447 32.6259C2.22402 33.6124 2.16669 34.6101 2.29091 35.5745C2.67313 38.5341 4.79443 40.6292 7.38394 40.6957C8.16748 40.7178 8.96058 40.7068 9.74413 40.6957C9.93524 40.6957 10.0308 40.7622 10.1168 40.9728C10.6137 42.1145 11.4163 42.702 12.5248 42.7131C13.3847 42.7242 14.2447 42.7242 15.1047 42.7131C16.5667 42.691 17.6751 41.4384 17.7229 39.7756C17.7707 38.1351 16.71 36.7827 15.2672 36.694ZM3.61911 30.6638C2.61579 30.6417 1.75581 29.6773 1.7367 28.4801C1.70803 26.8063 1.70803 25.1325 1.7367 23.4587C1.75581 22.3169 2.5489 21.3636 3.46622 21.2639C4.09688 21.1973 4.38354 21.4855 4.38354 22.2172C4.3931 23.4587 4.38354 24.7113 4.38354 25.9528C4.38354 27.2386 4.38354 28.5245 4.38354 29.8214C4.38354 30.3867 4.11599 30.6749 3.61911 30.6638ZM15.1143 40.7068C14.6843 40.7178 14.2543 40.7068 13.8243 40.7068C13.3752 40.7068 12.9165 40.7178 12.4674 40.7068C11.961 40.6957 11.6074 40.2745 11.5979 39.7091C11.5883 39.1438 11.9228 38.7004 12.4388 38.6893C13.3465 38.6671 14.2543 38.6671 15.162 38.6893C15.678 38.7004 16.022 39.1438 16.0125 39.698C16.0029 40.2745 15.6398 40.6957 15.1143 40.7068Z" fill="#215077"/>
</svg>
