<svg width="171" height="56" viewBox="0 0 171 56" fill="none" xmlns="http://www.w3.org/2000/svg">
<g clip-path="url(#clip0)">
<path class="opClass" fill-rule="evenodd" clip-rule="evenodd" d="M23.1787 42.6269L0 56V45.4129L16.616 35.9403L23.1787 42.6269Z" fill="#255C89"/>
<path class="transClass" fill-rule="evenodd" clip-rule="evenodd" d="M23.0391 42.7661C21.3636 43.7413 19.688 44.7164 17.8728 45.6915C15.7783 43.0447 12.4272 41.5124 8.23828 40.6766C10.8913 39.1442 13.4046 37.7512 16.0576 36.2189C18.4313 38.4477 20.805 40.5373 23.0391 42.7661Z" fill="#183660"/>
<path fill-rule="evenodd" clip-rule="evenodd" d="M48.312 48.3383L39.0963 53.4925C31.277 49.0348 23.5974 44.5771 15.778 40.1193C13.544 38.8656 12.008 38.8656 9.77393 39.8407L19.4084 34.2686C20.6651 33.5721 22.3407 33.5721 23.737 34.2686H23.8766L48.312 48.3383Z" fill="#317AB6"/>
<path class="opClass" fill-rule="evenodd" clip-rule="evenodd" d="M17.4536 26.607V0L26.6692 5.29353L26.5296 24.3781L17.4536 26.607Z" fill="#255C89"/>
<path class="transClass" fill-rule="evenodd" clip-rule="evenodd" d="M17.4536 26.607C17.4536 24.6568 17.4536 22.7065 17.4536 20.7563C20.8047 20.3384 23.737 18.1095 26.6692 14.9055C26.6692 17.8309 26.6692 20.8956 26.6692 23.8209C23.4577 24.6568 20.5255 25.6319 17.4536 26.607Z" fill="#183660"/>
<path fill-rule="evenodd" clip-rule="evenodd" d="M0 45.5522V35.1045C7.81931 30.6468 15.499 26.1891 23.3183 21.7314C25.5524 20.4776 26.2505 19.0846 26.6694 16.7164V27.8607C26.6694 29.393 25.8316 30.7861 24.4353 31.6219H24.2957L0 45.5522Z" fill="#317AB6"/>
<path class="opClass" fill-rule="evenodd" clip-rule="evenodd" d="M34.2096 29.6716L57.3883 43.0448L48.1727 48.3383L31.6963 38.7264L34.2096 29.6716Z" fill="#255C89"/>
<path class="transClass" fill-rule="evenodd" clip-rule="evenodd" d="M34.3494 29.8109C36.0249 30.786 37.7005 31.7612 39.5157 32.7363C38.259 35.801 38.6779 39.5622 40.0742 43.602C37.5609 42.0696 34.9079 40.5373 32.3945 39.1442C32.9531 35.9403 33.6512 32.8756 34.3494 29.8109Z" fill="#183660"/>
<path fill-rule="evenodd" clip-rule="evenodd" d="M26.6694 5.29358L35.7454 10.5871C35.7454 19.5025 35.7454 28.418 35.7454 37.3334C35.7454 39.9801 36.5832 41.2339 38.3984 42.6269L28.7639 37.0548C27.5072 36.2189 26.6694 34.8259 26.6694 33.2936V33.1543V5.29358Z" fill="#317AB6"/>
<path d="M73.7249 11.98C74.8419 11.98 75.4005 12.5373 75.5401 13.6517C76.0986 13.0945 76.7968 12.5373 77.6346 12.1193C78.4723 11.7014 79.3101 11.5621 80.4272 11.5621C81.5442 11.5621 82.6613 11.7014 83.6387 12.1193C84.6161 12.5373 85.4539 13.0945 86.0124 13.791C86.5709 14.4875 87.1294 15.3233 87.5483 16.4378C87.9672 17.4129 88.1068 18.5273 88.1068 19.6417V28.1392C88.1068 28.6965 87.9672 29.1144 87.5483 29.5323C87.2691 29.8109 86.7105 29.9502 86.152 29.9502C85.5935 29.9502 85.1746 29.8109 84.8953 29.5323C84.6161 29.2537 84.3368 28.6965 84.3368 28.1392V19.6417C84.3368 19.0845 84.1972 18.388 84.0576 17.8308C83.9179 17.2736 83.6387 16.8557 83.2198 16.4378C82.8009 16.0198 82.382 15.7412 81.9631 15.4626C81.4046 15.184 80.8461 15.0447 80.2875 15.0447C79.5894 15.0447 79.0309 15.184 78.4723 15.4626C77.9138 15.7412 77.4949 16.0198 77.076 16.4378C76.6571 16.8557 76.3779 17.2736 76.2382 17.8308C76.0986 18.388 75.959 18.9452 75.959 19.6417V28.1392C75.959 28.6965 75.8194 29.1144 75.4005 29.5323C75.1212 29.8109 74.5627 29.9502 74.0042 29.9502C73.4456 29.9502 73.0267 29.8109 72.7475 29.5323C72.3286 29.2537 72.189 28.6965 72.189 28.1392V13.5124C72.189 12.9552 72.3286 12.6766 72.6079 12.398C72.8871 12.1193 73.306 11.98 73.7249 11.98Z" fill="#215178"/>
<path d="M99.9753 11.5621C101.232 11.5621 102.489 11.8407 103.606 12.2587C104.723 12.8159 105.7 13.3731 106.678 14.3482C107.515 15.184 108.214 16.1591 108.772 17.4129C109.331 18.5273 109.47 19.781 109.47 21.0348C109.47 22.2885 109.191 23.5422 108.772 24.6567C108.353 25.7711 107.655 26.7462 106.678 27.582C105.84 28.4179 104.862 29.1144 103.606 29.5323C102.489 30.0895 101.232 30.2288 99.9753 30.2288C98.7187 30.2288 97.462 29.9502 96.3449 29.5323C95.2279 28.9751 94.2505 28.4179 93.2731 27.582C92.4353 26.7462 91.7371 25.7711 91.1786 24.6567C90.6201 23.5422 90.4805 22.2885 90.4805 21.0348C90.4805 19.781 90.7597 18.5273 91.1786 17.4129C91.7371 16.2985 92.2957 15.3233 93.2731 14.3482C94.1109 13.5124 95.0883 12.8159 96.3449 12.2587C97.462 11.7014 98.7187 11.5621 99.9753 11.5621ZM99.9753 15.184C99.1376 15.184 98.4394 15.3233 97.7413 15.6019C97.0431 15.8805 96.4846 16.2985 95.9261 16.8557C95.3675 17.4129 94.9486 17.9701 94.6694 18.6666C94.3901 19.3631 94.2505 20.0596 94.2505 20.8955C94.2505 21.7313 94.3901 22.4278 94.6694 23.1243C94.9486 23.8208 95.3675 24.3781 95.9261 24.9353C96.4846 25.4925 97.0431 25.9104 97.7413 26.189C98.4394 26.4676 99.1376 26.6069 99.9753 26.6069C100.813 26.6069 101.511 26.4676 102.209 26.189C102.908 25.9104 103.466 25.4925 104.025 24.9353C104.583 24.3781 105.002 23.8208 105.281 23.1243C105.561 22.4278 105.7 21.7313 105.7 20.8955C105.7 20.0596 105.561 19.3631 105.281 18.6666C105.002 17.9701 104.583 17.4129 104.025 16.8557C103.466 16.2985 102.908 15.8805 102.209 15.6019C101.511 15.3233 100.813 15.184 99.9753 15.184Z" fill="#215178"/>
<path d="M113.799 11.9801C114.358 11.9801 114.777 12.1194 115.056 12.5373C115.335 12.8159 115.475 13.3731 115.475 13.9304C116.033 13.2338 116.731 12.8159 117.569 12.398C118.267 12.1194 119.105 11.9801 120.082 11.9801C120.641 11.9801 121.06 12.1194 121.479 12.398C121.898 12.6766 122.037 13.0945 122.037 13.791C122.037 14.3483 121.898 14.7662 121.618 15.0448C121.339 15.3234 120.92 15.4627 120.362 15.602C119.384 15.602 118.686 15.7413 118.128 16.0199C117.569 16.2985 117.011 16.5771 116.731 16.8557C116.452 17.2736 116.173 17.6915 116.033 18.2488C115.894 18.806 115.894 19.3632 115.894 20.0597V28.5572C115.894 28.9751 115.754 29.393 115.335 29.8109C115.056 30.0896 114.497 30.3682 113.939 30.3682C113.38 30.3682 112.961 30.2289 112.542 29.8109C112.263 29.5323 111.984 29.1144 111.984 28.5572V13.9304C111.984 13.3731 112.124 12.9552 112.403 12.5373C112.682 12.1194 113.101 11.9801 113.799 11.9801Z" fill="#215178"/>
<path d="M127.204 28.1392C127.204 28.6965 127.064 29.1144 126.645 29.5323C126.366 29.8109 125.807 29.9502 125.249 29.9502C124.69 29.9502 124.271 29.8109 123.992 29.5323C123.573 29.2537 123.434 28.6965 123.434 28.1392V13.5124C123.434 12.9552 123.573 12.6766 123.852 12.398C124.132 12.1193 124.551 11.98 124.97 11.98C126.087 11.98 126.645 12.5373 126.785 13.5124C127.343 12.8159 127.902 12.398 128.6 12.1193C129.298 11.8407 130.136 11.7014 130.834 11.7014C131.393 11.7014 131.811 11.7014 132.37 11.8407C132.928 11.98 133.347 12.1193 133.906 12.2587C134.325 12.5373 134.883 12.8159 135.302 13.0945C135.721 13.5124 136 13.791 136.28 14.3482C136.838 13.3731 137.676 12.6766 138.793 12.2587C139.77 11.8407 140.887 11.5621 141.865 11.5621C142.842 11.5621 143.68 11.7014 144.518 12.1193C145.356 12.5373 146.193 12.9552 146.752 13.6517C147.31 14.3482 148.009 15.0447 148.427 16.0198C148.846 16.995 148.986 17.9701 148.986 18.9452V28.1392C148.986 28.6965 148.846 29.1144 148.427 29.5323C148.148 29.8109 147.59 29.9502 147.031 29.9502C146.473 29.9502 146.054 29.8109 145.774 29.5323C145.495 29.2537 145.216 28.6965 145.216 28.1392V18.9452C145.216 18.388 145.076 17.9701 144.937 17.4129C144.797 16.995 144.518 16.5771 144.099 16.1591C143.82 15.8805 143.401 15.6019 142.982 15.3233C142.563 15.184 142.144 15.0447 141.725 15.0447C141.306 15.0447 140.748 15.184 140.329 15.3233C139.91 15.4626 139.491 15.7412 139.072 16.1591C138.653 16.4378 138.374 16.8557 138.234 17.4129C137.955 17.8308 137.955 18.388 137.955 18.9452V28.1392C137.955 28.6965 137.816 29.1144 137.397 29.5323C137.117 29.8109 136.559 29.9502 136 29.9502C135.442 29.9502 135.023 29.8109 134.744 29.5323C134.464 29.2537 134.185 28.6965 134.185 28.1392V18.9452C134.185 18.388 134.046 17.9701 133.906 17.4129C133.766 16.995 133.487 16.5771 133.068 16.1591C132.789 15.8805 132.37 15.6019 131.951 15.3233C131.532 15.184 131.113 15.0447 130.694 15.0447C130.275 15.0447 129.857 15.184 129.298 15.3233C128.879 15.4626 128.46 15.7412 128.041 16.1591C127.623 16.4378 127.343 16.8557 127.204 17.4129C126.924 17.8308 126.924 18.388 126.924 18.9452V28.1392H127.204Z" fill="#215178"/>
<path d="M170.489 28.1393C170.489 28.6965 170.349 29.1144 169.93 29.5323C169.651 29.8109 169.093 30.0895 168.534 30.0895C167.975 30.0895 167.557 29.9502 167.277 29.5323C166.858 29.2537 166.719 28.6965 166.719 28.1393V27.9999C166.44 28.2786 166.021 28.5572 165.741 28.8358C165.323 29.1144 164.904 29.393 164.485 29.5323C164.066 29.8109 163.507 29.9502 162.949 30.0895C162.39 30.2288 161.832 30.2288 161.273 30.2288C159.877 30.2288 158.62 29.9502 157.503 29.5323C156.386 28.9751 155.409 28.4179 154.571 27.582C153.733 26.7462 153.035 25.7711 152.616 24.6567C152.197 23.5422 151.918 22.2885 151.918 21.0348C151.918 19.781 152.197 18.5273 152.616 17.4129C153.035 16.2985 153.733 15.3233 154.571 14.3482C155.409 13.5124 156.386 12.8159 157.643 12.2587C158.76 11.7014 160.017 11.5621 161.413 11.5621C162.67 11.5621 163.647 11.7014 164.624 12.1193C165.602 12.5373 166.3 13.0945 166.998 13.791C166.998 13.2338 167.138 12.8159 167.557 12.398C167.975 12.1193 168.394 11.8407 168.813 11.8407C169.372 11.8407 169.791 11.98 170.21 12.398C170.489 12.6766 170.768 13.2338 170.768 13.791V28.1393H170.489ZM161.413 15.184C160.575 15.184 159.877 15.3233 159.179 15.6019C158.481 15.8805 157.922 16.2985 157.364 16.8557C156.805 17.4129 156.386 17.9701 156.107 18.6666C155.828 19.3631 155.688 20.0596 155.688 20.8955C155.688 21.7313 155.828 22.4278 156.107 23.1243C156.386 23.8208 156.805 24.3781 157.364 24.9353C157.922 25.4925 158.481 25.9104 159.179 26.189C159.877 26.4676 160.575 26.6069 161.413 26.6069C162.251 26.6069 162.949 26.4676 163.647 26.189C164.345 25.9104 164.904 25.4925 165.323 24.9353C165.741 24.3781 166.16 23.8208 166.44 23.1243C166.719 22.4278 166.858 21.7313 166.858 20.8955C166.858 20.0596 166.719 19.3631 166.44 18.6666C166.16 17.9701 165.741 17.4129 165.323 16.8557C164.904 16.2985 164.205 15.8805 163.647 15.6019C162.809 15.3233 162.111 15.184 161.413 15.184Z" fill="#215178"/>
<path d="M77.7742 43.8805C77.7742 44.0198 77.6345 44.2984 77.3553 44.2984H76.9364C76.7968 44.2984 76.5175 44.1591 76.5175 43.8805V41.2338H73.306V43.8805C73.306 44.0198 73.1664 44.2984 72.8871 44.2984H72.4682C72.3286 44.2984 72.0493 44.1591 72.0493 43.8805V37.6119C72.0493 37.4726 72.189 37.194 72.4682 37.194H72.8871C73.0267 37.194 73.306 37.3333 73.306 37.6119V40.1193H76.5175V37.6119C76.5175 37.4726 76.6571 37.194 76.9364 37.194H77.3553C77.4949 37.194 77.7742 37.3333 77.7742 37.6119V43.8805Z" fill="#215178"/>
<path d="M85.1747 37.6119C85.1747 37.4726 85.3143 37.194 85.5936 37.194H86.0125C86.1521 37.194 86.4314 37.3333 86.4314 37.6119V41.3731C86.4314 42.3482 86.1521 43.184 85.5936 43.6019C85.0351 44.1591 84.4766 44.2984 83.6388 44.2984C82.801 44.2984 81.9632 44.0198 81.5443 43.4626C80.9858 42.9054 80.7065 42.2089 80.7065 41.2338V37.6119C80.7065 37.4726 80.8462 37.194 81.1254 37.194H81.5443C81.684 37.194 81.9632 37.3333 81.9632 37.6119V40.9552C81.9632 42.3482 82.5217 43.184 83.6388 43.184C84.6162 43.184 85.1747 42.4875 85.1747 41.0945V37.6119ZM82.9406 36.0795C82.9406 36.4974 82.6614 36.7761 82.2425 36.7761C81.8236 36.7761 81.5443 36.4974 81.5443 36.0795C81.5443 35.6616 81.8236 35.5223 82.2425 35.5223C82.6614 35.383 82.9406 35.6616 82.9406 36.0795ZM85.3143 36.0795C85.3143 36.4974 85.0351 36.7761 84.6162 36.7761C84.1973 36.7761 83.918 36.4974 83.918 36.0795C83.918 35.6616 84.1973 35.5223 84.6162 35.5223C85.0351 35.383 85.3143 35.6616 85.3143 36.0795Z" fill="#215178"/>
<path d="M94.1111 43.8805C93.5526 44.1591 92.9941 44.2984 92.2959 44.2984C91.3185 44.2984 90.3411 44.0198 89.6429 43.3233C88.9448 42.6268 88.6655 41.791 88.6655 40.6766C88.6655 39.7014 88.9448 38.8656 89.6429 38.1691C90.3411 37.4726 91.1789 37.194 92.2959 37.194C93.2733 37.194 94.2508 37.4726 94.9489 38.1691C95.6471 38.8656 95.9263 39.7014 95.9263 40.8159C95.9263 41.791 95.6471 42.6268 94.9489 43.3233L95.3678 43.7412C95.3678 43.7412 95.5074 43.8805 95.5074 44.0198C95.5074 44.1591 95.5074 44.1591 95.3678 44.2984L95.0885 44.5771C95.0885 44.5771 94.9489 44.7164 94.8093 44.7164C94.6696 44.7164 94.6696 44.7164 94.53 44.5771L94.1111 43.8805ZM94.2508 42.3482C94.53 41.9303 94.6696 41.3731 94.6696 40.8159C94.6696 40.1193 94.3904 39.5621 93.9715 39.0049C93.5526 38.587 92.9941 38.3084 92.2959 38.3084C91.5978 38.3084 91.0392 38.587 90.6204 39.0049C90.2015 39.4228 89.9222 39.98 89.9222 40.8159C89.9222 41.5124 90.2015 42.0696 90.6204 42.4875C91.0392 42.9054 91.5978 43.184 92.2959 43.184C92.7148 43.184 92.9941 43.184 93.2733 42.9054L92.9941 42.4875C92.9941 42.4875 92.8544 42.3482 92.8544 42.2089C92.8544 42.0696 92.8544 42.0696 92.9941 41.9303L93.2733 41.6517C93.2733 41.6517 93.413 41.5124 93.5526 41.5124C93.6922 41.5124 93.6922 41.5124 93.8319 41.6517L94.2508 42.3482Z" fill="#215178"/>
<path d="M102.768 37.6119C102.768 37.4726 102.908 37.194 103.187 37.194H103.606C103.745 37.194 104.025 37.3333 104.025 37.6119V41.3731C104.025 42.3482 103.745 43.184 103.187 43.6019C102.628 44.1591 102.07 44.2984 101.232 44.2984C100.394 44.2984 99.5565 44.0198 99.1376 43.4626C98.5791 42.9054 98.2998 42.2089 98.2998 41.2338V37.6119C98.2998 37.4726 98.4394 37.194 98.7187 37.194H99.1376C99.2772 37.194 99.5565 37.3333 99.5565 37.6119V40.9552C99.5565 42.3482 100.115 43.184 101.232 43.184C102.209 43.184 102.768 42.4875 102.768 41.0945V37.6119Z" fill="#215178"/>
<path d="M111.844 43.8805C111.286 44.1591 110.727 44.2984 110.029 44.2984C109.051 44.2984 108.074 44.0198 107.376 43.3233C106.678 42.6268 106.398 41.791 106.398 40.6766C106.398 39.7014 106.678 38.8656 107.376 38.1691C108.074 37.4726 108.912 37.194 110.029 37.194C111.006 37.194 111.984 37.4726 112.682 38.1691C113.38 38.8656 113.659 39.7014 113.659 40.8159C113.659 41.791 113.38 42.6268 112.682 43.3233L113.101 43.7412C113.101 43.7412 113.24 43.8805 113.24 44.0198C113.24 44.1591 113.24 44.1591 113.101 44.2984L112.821 44.5771C112.821 44.5771 112.682 44.7164 112.542 44.7164C112.403 44.7164 112.403 44.7164 112.263 44.5771L111.844 43.8805ZM111.844 42.3482C112.123 41.9303 112.263 41.3731 112.263 40.8159C112.263 40.1193 111.984 39.5621 111.565 39.0049C111.146 38.587 110.587 38.3084 109.889 38.3084C109.191 38.3084 108.633 38.587 108.214 39.0049C107.795 39.4228 107.515 39.98 107.515 40.8159C107.515 41.5124 107.795 42.0696 108.214 42.4875C108.633 42.9054 109.191 43.184 109.889 43.184C110.308 43.184 110.587 43.184 110.867 42.9054L110.587 42.4875C110.587 42.4875 110.448 42.3482 110.448 42.2089C110.448 42.0696 110.448 42.0696 110.587 41.9303L110.867 41.6517C110.867 41.6517 111.006 41.5124 111.146 41.5124C111.286 41.5124 111.286 41.5124 111.425 41.6517L111.844 42.3482Z" fill="#215178"/>
<path d="M120.501 39.2835V43.8805C120.501 44.0198 120.362 44.2984 120.082 44.2984H119.664C119.524 44.2984 119.245 44.1591 119.245 43.8805V37.6119C119.245 37.4726 119.384 37.194 119.664 37.194H120.082C120.222 37.194 120.501 37.3333 120.501 37.4726L122.735 40.5373L124.83 37.4726C124.969 37.3333 125.109 37.194 125.249 37.194H125.668C125.807 37.194 126.087 37.3333 126.087 37.6119V43.8805C126.087 44.0198 125.947 44.2984 125.668 44.2984H125.249C125.109 44.2984 124.83 44.1591 124.83 43.8805V39.2835L123.154 41.791C122.875 42.2089 122.456 42.2089 122.177 41.791L120.501 39.2835Z" fill="#215178"/>
<path d="M131.951 37.194C132.928 37.194 133.766 37.4726 134.464 38.1691C135.162 38.8656 135.442 39.7014 135.442 40.8159C135.442 41.9303 135.162 42.7661 134.464 43.4626C133.766 44.1591 132.928 44.4377 131.951 44.4377C130.973 44.4377 130.136 44.1591 129.577 43.4626C129.019 42.7661 128.6 41.9303 128.6 40.8159C128.6 40.8159 128.6 40.6766 128.6 40.5373C128.6 40.3979 128.739 40.1193 129.019 40.1193H134.185C133.906 39.0049 133.068 38.3084 131.671 38.3084C131.253 38.3084 130.834 38.4477 130.415 38.7263C130.275 38.7263 130.275 38.7263 130.136 38.7263C129.996 38.7263 129.856 38.7263 129.856 38.587L129.717 38.3084V38.1691C129.717 38.0298 129.717 37.8905 129.856 37.8905C130.415 37.3333 131.113 37.194 131.951 37.194ZM129.856 41.2338C129.856 41.791 130.136 42.2089 130.415 42.6268C130.834 43.0447 131.253 43.184 131.811 43.184C133.068 43.184 133.906 42.4875 134.045 41.2338H129.856Z" fill="#215178"/>
<path d="M139.91 41.6517H139.072V43.8805C139.072 44.0198 138.932 44.2984 138.653 44.2984H138.234C138.095 44.2984 137.815 44.1591 137.815 43.8805V37.6119C137.815 37.4726 137.955 37.194 138.234 37.194C139.072 37.194 139.631 37.194 140.05 37.194C141.725 37.194 142.563 37.8905 142.563 39.2835C142.563 39.8407 142.423 40.2586 142.144 40.5373C141.865 40.8159 141.585 41.0945 141.167 41.2338L142.842 43.4626C142.842 43.4626 142.982 43.6019 142.982 43.7412C142.982 43.8805 142.842 44.1591 142.563 44.1591H142.144C142.004 44.1591 141.725 44.0198 141.725 43.8805L139.91 41.6517ZM139.072 40.5373H139.91C140.608 40.5373 141.306 40.1193 141.306 39.4228C141.306 38.7263 140.887 38.4477 140.05 38.4477C139.91 38.4477 139.631 38.4477 139.212 38.4477V40.5373H139.072Z" fill="#215178"/>
<path d="M146.612 40.6766V43.8805C146.612 44.0198 146.473 44.2984 146.193 44.2984H145.774C145.635 44.2984 145.355 44.1591 145.355 43.8805V37.6119C145.355 37.4726 145.495 37.194 145.774 37.194H146.193C146.333 37.194 146.612 37.3333 146.612 37.6119V40.6766L149.125 37.4726C149.265 37.3333 149.405 37.194 149.544 37.194H149.963C150.103 37.194 150.243 37.3333 150.243 37.4726C150.243 37.6119 150.243 37.6119 150.103 37.7512L147.729 40.3979L150.243 43.6019C150.243 43.6019 150.382 43.7412 150.382 43.8805C150.382 44.0198 150.243 44.1591 150.103 44.1591H149.544C149.405 44.1591 149.125 44.0198 149.125 43.8805L146.612 40.6766Z" fill="#215178"/>
<path d="M155.828 37.194C156.805 37.194 157.643 37.4726 158.341 38.1691C159.039 38.8656 159.318 39.7014 159.318 40.8159C159.318 41.9303 159.039 42.7661 158.341 43.4626C157.643 44.1591 156.805 44.4377 155.828 44.4377C154.85 44.4377 154.012 44.1591 153.454 43.4626C152.895 42.7661 152.477 41.9303 152.477 40.8159C152.477 40.8159 152.477 40.6766 152.477 40.5373C152.477 40.3979 152.616 40.1193 152.895 40.1193H158.062C157.783 39.0049 156.945 38.3084 155.548 38.3084C155.13 38.3084 154.711 38.4477 154.292 38.7263C154.152 38.7263 154.152 38.7263 154.013 38.7263C153.873 38.7263 153.733 38.7263 153.733 38.587L153.594 38.3084V38.1691C153.594 38.0298 153.594 37.8905 153.733 37.8905C154.152 37.3333 154.99 37.194 155.828 37.194ZM153.733 41.2338C153.733 41.791 154.012 42.2089 154.292 42.6268C154.711 43.0447 155.13 43.184 155.688 43.184C156.945 43.184 157.783 42.4875 157.922 41.2338H153.733Z" fill="#215178"/>
<path d="M160.994 43.7412C160.994 43.6019 161.134 43.4626 161.273 43.184L164.904 38.4477H161.553C161.413 38.4477 161.134 38.3084 161.134 38.0298V37.6119C161.134 37.4726 161.273 37.194 161.553 37.194H166.16C166.3 37.194 166.579 37.3333 166.579 37.6119V37.7512C166.579 37.8905 166.44 38.0298 166.3 38.3084L162.67 43.0447H166.3C166.44 43.0447 166.719 43.184 166.719 43.4626V43.8805C166.719 44.0198 166.579 44.2984 166.3 44.2984H161.273C161.134 44.2984 160.854 44.1591 160.854 43.8805V43.7412H160.994Z" fill="#215178"/>
<path d="M170.489 35.9403C170.489 36.3582 170.21 36.6368 169.791 36.6368C169.372 36.6368 168.953 36.3582 168.953 35.9403C168.953 35.5224 169.232 35.2438 169.791 35.2438C170.21 35.2438 170.489 35.5224 170.489 35.9403ZM170.349 43.8806C170.349 44.0199 170.21 44.2985 169.931 44.2985H169.512C169.372 44.2985 169.093 44.1592 169.093 43.8806V37.6119C169.093 37.4726 169.232 37.194 169.512 37.194H169.931C170.07 37.194 170.349 37.3333 170.349 37.6119V43.8806Z" fill="#215178"/>
</g>
<defs>
<clipPath id="clip0">
<rect width="170.489" height="56" fill="white"/>
</clipPath>
</defs>
</svg>
