<svg width="24" height="18" viewBox="0 0 24 18" fill="none" xmlns="http://www.w3.org/2000/svg">
<path d="M1.46045 17.8492H20.9282C21.7339 17.8492 22.3886 17.1944 22.3886 16.3887V13.093H15.4004C14.8771 13.093 14.3659 12.9908 13.8864 12.7863C13.4239 12.5916 13.0077 12.3092 12.6523 11.9539C12.297 11.5985 12.0146 11.1822 11.8199 10.7198C11.6179 10.2403 11.5132 9.72909 11.5132 9.20577V8.79441C11.5132 8.27108 11.6154 7.75993 11.8199 7.28041C12.0146 6.81794 12.297 6.40171 12.6523 6.04634C13.0077 5.69096 13.4239 5.40861 13.8864 5.21388C14.3659 5.01185 14.8771 4.90719 15.4004 4.90719H22.3886V1.61145C22.3886 0.805768 21.7339 0.151001 20.9282 0.151001H1.46045C0.654767 0.151001 0 0.805768 0 1.61145V16.3887C0 17.1944 0.654767 17.8492 1.46045 17.8492Z" fill="#FAB606"/>
<path d="M24 7.46296C24 6.85687 23.5108 6.36761 22.9047 6.36761H22.3886H15.4004C14.0592 6.36761 12.9736 7.45322 12.9736 8.7944V9.20577C12.9736 10.5469 14.0592 11.6325 15.4004 11.6325H22.3886H22.9047C23.5108 11.6325 24 11.1433 24 10.5372V7.46296ZM15.7972 10.2889C15.084 10.2889 14.5071 9.71208 14.5071 8.99887C14.5071 8.28568 15.084 7.7088 15.7972 7.7088C16.5103 7.7088 17.0872 8.28568 17.0872 8.99887C17.0872 9.71208 16.5103 10.2889 15.7972 10.2889Z" fill="#FAB606"/>
</svg>
