<svg width="102" height="46" viewBox="0 0 102 46" fill="none" xmlns="http://www.w3.org/2000/svg">
<path d="M15.768 25.768L15.608 29.288H17.624L17.464 25.768L20.408 27.656L21.432 25.928L18.328 24.328L21.432 22.728L20.408 20.968L17.464 22.856L17.624 19.336H15.608L15.768 22.856L12.792 20.968L11.8 22.728L14.904 24.328L11.8 25.928L12.792 27.656L15.768 25.768ZM24.2668 24.968C23.6268 26.632 23.3068 28.424 23.3068 30.344C23.3068 32.264 23.6268 34.056 24.2668 35.752C24.9068 37.448 25.8988 38.824 27.2108 39.848C28.5228 40.872 30.1548 41.384 32.1068 41.384C34.0588 41.384 35.6908 40.872 37.0028 39.848C38.3148 38.792 39.3068 37.448 39.9468 35.784C40.5868 34.088 40.9068 32.296 40.9068 30.376C40.9068 28.456 40.5868 26.664 39.9468 25C39.3068 23.368 38.3148 22.024 37.0028 20.968C35.6908 19.944 34.0588 19.432 32.1068 19.432C30.1548 19.432 28.5228 19.944 27.2108 20.968C25.8988 22.024 24.9068 23.368 24.2668 25V24.968ZM35.3068 25.32C35.9788 26.568 36.2988 28.264 36.2988 30.408C36.2988 32.488 35.9468 34.184 35.2748 35.496C34.6028 36.776 33.5468 37.416 32.1068 37.416C30.6667 37.416 29.6108 36.776 28.9388 35.496C28.2668 34.184 27.9148 32.488 27.9148 30.408C27.9148 28.328 28.2668 26.632 28.9388 25.32C29.6108 24.04 30.6667 23.4 32.1068 23.4C33.5468 23.4 34.6028 24.04 35.2748 25.32H35.3068ZM44.1105 24.968C43.4705 26.632 43.1505 28.424 43.1505 30.344C43.1505 32.264 43.4705 34.056 44.1105 35.752C44.7505 37.448 45.7425 38.824 47.0545 39.848C48.3665 40.872 49.9985 41.384 51.9505 41.384C53.9025 41.384 55.5345 40.872 56.8465 39.848C58.1585 38.792 59.1505 37.448 59.7905 35.784C60.4305 34.088 60.7505 32.296 60.7505 30.376C60.7505 28.456 60.4305 26.664 59.7905 25C59.1505 23.368 58.1585 22.024 56.8465 20.968C55.5345 19.944 53.9025 19.432 51.9505 19.432C49.9985 19.432 48.3665 19.944 47.0545 20.968C45.7425 22.024 44.7505 23.368 44.1105 25V24.968ZM55.1505 25.32C55.8225 26.568 56.1425 28.264 56.1425 30.408C56.1425 32.488 55.7905 34.184 55.1185 35.496C54.4465 36.776 53.3905 37.416 51.9505 37.416C50.5105 37.416 49.4545 36.776 48.7825 35.496C48.1105 34.184 47.7585 32.488 47.7585 30.408C47.7585 28.328 48.1105 26.632 48.7825 25.32C49.4545 24.04 50.5105 23.4 51.9505 23.4C53.3905 23.4 54.4465 24.04 55.1185 25.32H55.1505ZM63.9543 24.968C63.3143 26.632 62.9943 28.424 62.9943 30.344C62.9943 32.264 63.3143 34.056 63.9543 35.752C64.5943 37.448 65.5863 38.824 66.8983 39.848C68.2103 40.872 69.8423 41.384 71.7943 41.384C73.7463 41.384 75.3783 40.872 76.6903 39.848C78.0023 38.792 78.9943 37.448 79.6343 35.784C80.2743 34.088 80.5943 32.296 80.5943 30.376C80.5943 28.456 80.2743 26.664 79.6343 25C78.9943 23.368 78.0023 22.024 76.6903 20.968C75.3783 19.944 73.7463 19.432 71.7943 19.432C69.8423 19.432 68.2103 19.944 66.8983 20.968C65.5863 22.024 64.5943 23.368 63.9543 25V24.968ZM74.9943 25.32C75.6663 26.568 75.9863 28.264 75.9863 30.408C75.9863 32.488 75.6343 34.184 74.9623 35.496C74.2903 36.776 73.2343 37.416 71.7943 37.416C70.3542 37.416 69.2983 36.776 68.6263 35.496C67.9543 34.184 67.6023 32.488 67.6023 30.408C67.6023 28.328 67.9543 26.632 68.6263 25.32C69.2983 24.04 70.3542 23.4 71.7943 23.4C73.2343 23.4 74.2903 24.04 74.9623 25.32H74.9943ZM85.814 35.112L83.318 38.184C85.27 40.328 87.99 41.384 91.542 41.384C93.27 41.384 94.774 41.096 96.022 40.488C97.302 39.88 98.294 39.016 98.998 37.896C99.702 36.776 100.054 35.464 100.054 33.96C100.054 32.584 99.734 31.368 99.094 30.312C98.454 29.256 97.622 28.456 96.566 27.912C95.51 27.368 94.358 27.08 93.174 27.08C92.246 27.08 91.35 27.24 90.518 27.56C89.686 27.88 88.982 28.296 88.374 28.84V23.496H98.582V19.592H83.926V31.784L87.094 32.648C88.342 31.464 89.846 30.888 91.606 30.888C92.79 30.888 93.718 31.176 94.39 31.784C95.062 32.392 95.414 33.192 95.414 34.184C95.414 35.112 95.062 35.88 94.358 36.488C93.622 37.096 92.662 37.416 91.478 37.416C90.358 37.416 89.302 37.224 88.342 36.84C87.382 36.456 86.518 35.88 85.782 35.144L85.814 35.112Z" fill="white"/>
<path d="M33.579 8.833C33.755 8.371 33.843 7.876 33.843 7.337C33.843 6.622 33.689 5.973 33.381 5.401C33.073 4.829 32.644 4.378 32.094 4.048C31.544 3.718 30.917 3.553 30.202 3.553C29.487 3.553 28.849 3.718 28.299 4.048C27.749 4.378 27.32 4.829 27.012 5.401C26.704 5.973 26.55 6.622 26.55 7.337C26.55 8.052 26.704 8.701 27.012 9.273C27.32 9.845 27.749 10.296 28.299 10.626C28.849 10.956 29.476 11.121 30.191 11.121C30.928 11.121 31.588 10.934 32.171 10.571L32.875 11.33L33.513 10.78L32.82 10.032C33.128 9.702 33.37 9.295 33.557 8.822L33.579 8.833ZM31.566 9.933C31.159 10.186 30.697 10.307 30.18 10.307C29.641 10.307 29.168 10.175 28.761 9.922C28.354 9.669 28.035 9.317 27.815 8.866C27.595 8.415 27.485 7.909 27.485 7.348C27.485 6.787 27.595 6.27 27.815 5.819C28.035 5.368 28.343 5.016 28.75 4.763C29.157 4.51 29.63 4.378 30.169 4.378C30.708 4.378 31.181 4.51 31.588 4.763C31.995 5.016 32.314 5.368 32.534 5.819C32.754 6.27 32.864 6.787 32.864 7.359C32.864 7.766 32.809 8.151 32.688 8.492C32.567 8.844 32.402 9.152 32.193 9.416L31.159 8.305L30.521 8.844L31.566 9.933ZM39.4809 9.372L40.1299 11H41.1419L38.1829 3.663H37.0499L34.1019 11H35.1139L35.7629 9.372H39.4809ZM36.0269 8.558L37.6219 4.477L39.2059 8.558H36.0269ZM43.5369 7.898V11H44.4499V7.898L47.3319 3.663H46.2649L43.9879 7.073L41.7109 3.663H40.6439L43.5369 7.898ZM49.2017 5.082L53.4807 11H54.3607V3.663H53.4477V9.46L49.2237 3.663H48.2887V11H49.2017V5.082ZM60.6968 9.372L61.3458 11H62.3578L59.3988 3.663H58.2658L55.3178 11H56.3298L56.9788 9.372H60.6968ZM57.2428 8.558L58.8378 4.477L60.4218 8.558H57.2428ZM65.693 8.085L67.563 11H68.641L66.661 8.008C67.013 7.975 67.332 7.865 67.607 7.7C67.893 7.524 68.124 7.282 68.3 6.974C68.476 6.666 68.564 6.303 68.564 5.874C68.564 5.445 68.465 5.049 68.267 4.708C68.069 4.367 67.794 4.114 67.442 3.938C67.09 3.762 66.694 3.674 66.243 3.674H63.295V11.011H64.208V8.096L65.693 8.085ZM67.189 4.884C67.464 5.148 67.596 5.489 67.596 5.896C67.596 6.303 67.464 6.644 67.189 6.908C66.914 7.172 66.562 7.304 66.133 7.304H64.208V4.499H66.133C66.562 4.499 66.914 4.631 67.189 4.895V4.884ZM75.5733 7.876L77.9163 11H79.0163L76.1673 7.227L78.8513 3.663H77.7403L75.5733 6.6L73.3953 3.663H72.2843L74.9793 7.238L72.1193 11H73.2303L75.5733 7.876ZM84.9491 4.026C84.3881 3.707 83.7501 3.553 83.0461 3.553C81.8691 3.553 80.9231 4.015 80.1971 4.928L80.9231 5.379C81.1541 5.082 81.4621 4.829 81.8471 4.642C82.2101 4.455 82.6171 4.367 83.0461 4.367C83.5521 4.367 84.0141 4.477 84.4211 4.708C84.8391 4.939 85.1691 5.258 85.4221 5.676C85.6751 6.094 85.8181 6.567 85.8511 7.095H79.5811C79.5811 7.909 79.7241 8.624 80.0101 9.24C80.2961 9.856 80.7031 10.329 81.2421 10.659C81.7811 10.989 82.4191 11.154 83.1671 11.154C83.8491 11.154 84.4651 11 85.0041 10.681C85.5651 10.362 85.9941 9.911 86.3131 9.328C86.6321 8.745 86.7861 8.085 86.7861 7.348C86.7861 6.611 86.6211 5.951 86.2911 5.379C85.9611 4.796 85.5101 4.356 84.9381 4.037L84.9491 4.026ZM84.3771 10.043C83.9921 10.252 83.5631 10.351 83.0901 10.351C82.3641 10.351 81.7811 10.12 81.3301 9.658C80.8791 9.196 80.6151 8.613 80.5381 7.898H85.7741C85.7081 8.393 85.5541 8.822 85.3011 9.174C85.0481 9.537 84.7291 9.823 84.3441 10.032L84.3771 10.043ZM90.0539 4.477V11H90.9669V4.477H93.2989V3.663H87.7329V4.477H90.0539ZM96.3273 4.477V11H97.2403V4.477H99.5723V3.663H94.0063V4.477H96.3273Z" fill="white"/>
<path d="M15.2672 39.694C14.2925 39.6386 13.3083 39.6497 12.3336 39.694C11.3017 39.7384 10.5659 40.3591 10.1072 41.4344C10.0595 41.5452 9.93524 41.6893 9.84924 41.6893C8.87458 41.6893 7.88082 41.7447 6.91573 41.6228C5.23397 41.4122 3.98222 39.7273 3.93444 37.7542C3.91533 37.0669 3.93444 36.3686 3.93444 35.6702C4.11599 35.6148 4.27843 35.5815 4.43132 35.5261C5.39642 35.1825 6.09396 34.1738 6.10352 32.9988C6.12263 30.3162 6.12263 27.6226 6.10352 24.94C6.09396 23.6653 5.34864 22.6455 4.27843 22.3351C4.17332 22.3018 4.07777 22.2686 3.98222 22.2353C4.29754 14.4537 9.81102 7.34829 17.3502 6.97141C17.7087 6.95333 18 6.66934 18 6.31039V5.9516C18 5.39449 17.5473 4.93896 16.9918 4.98089C10.0123 5.50765 3.85112 11.4585 2.51068 19.7412C2.37691 20.5837 2.32913 21.4483 2.22402 22.2907C2.20491 22.4459 2.0998 22.6455 1.98514 22.7231C0.6856 23.5988 0.0262774 24.9068 0.00716656 26.6471C-0.00238885 28.1879 -0.00238885 29.7176 0.00716656 31.2584C0.016722 32.9766 0.676045 34.2846 1.96603 35.1381C2.14758 35.2601 2.20491 35.3931 2.21447 35.6259C2.22402 36.6124 2.16669 37.6101 2.29091 38.5745C2.67313 41.5341 4.79443 43.6292 7.38394 43.6957C8.16748 43.7178 8.96058 43.7068 9.74413 43.6957C9.93524 43.6957 10.0308 43.7622 10.1168 43.9728C10.6137 45.1145 11.4163 45.702 12.5248 45.7131C13.3847 45.7242 14.2447 45.7242 15.1047 45.7131C16.5667 45.691 17.6751 44.4384 17.7229 42.7756C17.7707 41.1351 16.71 39.7827 15.2672 39.694ZM3.61911 33.6638C2.61579 33.6417 1.75581 32.6773 1.7367 31.4801C1.70803 29.8063 1.70803 28.1325 1.7367 26.4587C1.75581 25.3169 2.5489 24.3636 3.46622 24.2639C4.09688 24.1973 4.38354 24.4855 4.38354 25.2172C4.3931 26.4587 4.38354 27.7113 4.38354 28.9528C4.38354 30.2386 4.38354 31.5245 4.38354 32.8214C4.38354 33.3867 4.11599 33.6749 3.61911 33.6638ZM15.1143 43.7068C14.6843 43.7178 14.2543 43.7068 13.8243 43.7068C13.3752 43.7068 12.9165 43.7178 12.4674 43.7068C11.961 43.6957 11.6074 43.2745 11.5979 42.7091C11.5883 42.1438 11.9228 41.7004 12.4388 41.6893C13.3465 41.6671 14.2543 41.6671 15.162 41.6893C15.678 41.7004 16.022 42.1438 16.0125 42.698C16.0029 43.2745 15.6398 43.6957 15.1143 43.7068Z" fill="white"/>
</svg>
