<svg width="51" height="38" viewBox="0 0 51 38" fill="none" xmlns="http://www.w3.org/2000/svg">
<path d="M11.1695 31.025L10.0861 32.8261C8.08958 31.5315 6.39417 29.8309 5.11763 27.8333L6.82888 26.8136L6.82903 26.8135C7.20362 26.5894 7.32277 26.1105 7.09546 25.7393C6.86846 25.3686 6.3854 25.2523 6.01167 25.4759L4.32894 26.477C3.27828 24.4491 2.64853 22.1755 2.53391 19.7723H4.61644C5.04943 19.7723 5.40528 19.4223 5.40528 18.9915C5.40528 18.5607 5.04943 18.2106 4.61644 18.2106H2.54251C2.6574 15.7974 3.29618 13.5139 4.35669 11.4764L6.30715 12.5257C6.427 12.5945 6.55606 12.6234 6.68297 12.6234C6.9575 12.6234 7.2344 12.4784 7.3739 12.2131C7.581 11.8321 7.44129 11.3642 7.05888 11.1509L7.05774 11.1503L5.13792 10.1124C6.41454 8.14846 8.10925 6.45777 10.0886 5.17237L11.2654 7.00238C11.2655 7.0025 11.2655 7.00261 11.2656 7.00273C11.4143 7.23765 11.6711 7.36383 11.9268 7.36383C12.0731 7.36383 12.222 7.32533 12.3523 7.23657C12.7151 7.00303 12.8251 6.52499 12.5876 6.1626C12.5875 6.16245 12.5874 6.1623 12.5873 6.16215L11.4414 4.38227C13.5542 3.27718 15.9319 2.60551 18.4569 2.49153V4.62553C18.4569 5.05633 18.8128 5.40638 19.2458 5.40638C19.6788 5.40638 20.0346 5.05633 20.0346 4.62553V1.68195C20.0439 1.24946 19.6865 0.9 19.2544 0.9C15.888 0.9 12.7289 1.8064 10.0196 3.37993L9.9193 3.4295L9.9048 3.43666L9.89407 3.44727C9.89367 3.4475 9.89094 3.44938 9.88245 3.45441C9.8819 3.45474 9.88129 3.4551 9.88063 3.45549C9.87295 3.46001 9.85851 3.46852 9.84402 3.48062C7.18214 5.0628 4.96067 7.29334 3.40384 9.95086C3.39658 9.96149 3.38749 9.97409 3.37727 9.98824L3.37668 9.98904C3.36635 10.0033 3.3548 10.0193 3.34527 10.0334C3.32256 10.0671 3.31035 10.1005 3.30209 10.1248C1.84414 12.6775 0.989098 15.6132 0.94328 18.7365C0.917473 18.8173 0.9 18.9077 0.9 19C0.9 19.0923 0.917474 19.1827 0.943281 19.2635C0.989104 22.3891 1.8368 25.327 3.29695 27.8813C3.30068 27.8888 3.3032 27.8948 3.30656 27.9029C3.30906 27.9089 3.31202 27.9159 3.31629 27.9256C3.32446 27.944 3.33532 27.9663 3.35189 27.9895C3.36316 28.0099 3.38013 28.035 3.3994 28.0562C6.56966 33.4591 12.4885 37.1 19.2544 37.1C19.6874 37.1 20.0432 36.7499 20.0432 36.3191V33.4681C20.0432 33.0373 19.6874 32.6872 19.2544 32.6872C18.8214 32.6872 18.4656 33.0373 18.4656 33.4681V35.517C15.9394 35.4029 13.5606 34.7307 11.4471 33.6247L12.5287 31.8267C12.5288 31.8266 12.5288 31.8265 12.5289 31.8264C12.7571 31.4533 12.6262 30.9754 12.2537 30.7525C11.8781 30.5278 11.3957 30.6556 11.1699 31.0244L11.1695 31.025Z" fill="white" stroke="white" stroke-width="0.2"/>
<path d="M13.438 23.0149L13.4379 23.0149L13.4392 23.0167C13.5959 23.2296 13.8325 23.3468 14.0881 23.3468C14.2464 23.3468 14.4025 23.298 14.5378 23.212L14.5378 23.2121L14.5411 23.2099L19.7074 19.6354L19.7082 19.6349C19.9145 19.4892 20.0433 19.2549 20.0433 18.9915V10.3957C20.0433 9.97264 19.6866 9.62339 19.2544 9.62339C18.8214 9.62339 18.4656 9.97345 18.4656 10.4042V18.5901L13.6354 21.9303C13.6353 21.9304 13.6352 21.9304 13.6352 21.9305C13.2798 22.1746 13.1905 22.6628 13.438 23.0149Z" fill="white" stroke="white" stroke-width="0.2"/>
<path d="M28.0857 30.3327H23.1257C23.5714 29.6826 24.4743 29.0953 25.4 28.4871C26.9314 27.4805 28.6571 26.348 28.6571 24.5653C28.6571 24.2927 28.6114 23.3174 27.9943 22.4366C27.5371 21.776 26.6457 21 25 21C23.4 21 22.1543 21.6397 21.4914 22.8141C21.0114 23.653 21 24.4709 21 24.5653C21 25.0267 21.4114 25.4042 21.9143 25.4042C22.4171 25.4042 22.8286 25.0267 22.8286 24.5653C22.8286 24.5653 22.84 24.0305 23.1371 23.5377C23.4914 22.9504 24.0971 22.6673 25 22.6673C26.7371 22.6673 26.8286 24.2402 26.8286 24.5548C26.8286 25.4776 25.6171 26.2641 24.3371 27.1134C22.7714 28.1411 21 29.3051 21 31.1611C21 31.6225 21.4114 32 21.9143 32H28.0857C28.5886 32 29 31.6225 29 31.1611C29 30.6997 28.5886 30.3327 28.0857 30.3327Z" fill="white"/>
<path d="M36 28.8572C36 28.3963 35.6404 28.0192 35.2009 28.0192H34.4017V21.8384C34.4017 21.4717 34.182 21.147 33.8423 21.0422C33.5127 20.927 33.1531 21.0527 32.9433 21.3565L28.1485 28.3753C27.9787 28.6268 27.9487 28.962 28.0886 29.2448C28.2284 29.5277 28.4981 29.6953 28.7978 29.6953H32.7935V31.1619C32.7935 31.6229 33.1531 32 33.5926 32C34.0321 32 34.3917 31.6229 34.3917 31.1619V29.6953H35.1909C35.6404 29.6953 36 29.3182 36 28.8572ZM32.8035 28.0192H30.3661L32.8035 24.4469V28.0192Z" fill="white"/>
<path d="M41.4285 21.0551C40.9643 20.8952 40.4322 21.0951 40.2511 21.5049L36.0624 30.9005C35.8813 31.3103 36.1077 31.7801 36.5718 31.94C36.685 31.98 36.7982 32 36.9001 32C37.2624 32 37.602 31.8101 37.7379 31.4902L41.9266 22.0946C42.1303 21.6748 41.8926 21.215 41.4285 21.0551Z" fill="white"/>
<path d="M50.9095 21.4806C50.7609 21.1816 50.4408 21 50.0865 21H43.9144C43.4115 21 43 21.3845 43 21.8544C43 22.3243 43.4115 22.7087 43.9144 22.7087H48.3034C46.9433 24.5777 44.7716 28.0379 44.6002 31.1029C44.5773 31.5728 44.9659 31.9786 45.4688 32C45.4803 32 45.5031 32 45.5146 32C45.9946 32 46.4061 31.6476 46.429 31.1883C46.6347 27.3437 50.7609 22.4311 50.8066 22.3883C51.0238 22.132 51.058 21.7796 50.9095 21.4806Z" fill="white"/>
<path d="M23.6458 3.00001C24.0262 3.00001 24.3346 2.69518 24.3346 2.31916C24.3346 1.94313 24.0262 1.63831 23.6458 1.63831C23.2653 1.63831 22.9569 1.94313 22.9569 2.31916C22.9569 2.69518 23.2653 3.00001 23.6458 3.00001Z" fill="white" fill-opacity="0.5"/>
<path d="M27.865 4.78724C28.2454 4.78724 28.5538 4.48241 28.5538 4.10639C28.5538 3.73036 28.2454 3.42554 27.865 3.42554C27.4845 3.42554 27.1761 3.73036 27.1761 4.10639C27.1761 4.48241 27.4845 4.78724 27.865 4.78724Z" fill="white" fill-opacity="0.5"/>
<path d="M31.4814 7.51063C31.8619 7.51063 32.1703 7.2058 32.1703 6.82978C32.1703 6.45375 31.8619 6.14893 31.4814 6.14893C31.101 6.14893 30.7926 6.45375 30.7926 6.82978C30.7926 7.2058 31.101 7.51063 31.4814 7.51063Z" fill="white" fill-opacity="0.5"/>
<path d="M34.2368 11.0851C34.6172 11.0851 34.9256 10.7803 34.9256 10.4042C34.9256 10.0282 34.6172 9.72339 34.2368 9.72339C33.8563 9.72339 33.5479 10.0282 33.5479 10.4042C33.5479 10.7803 33.8563 11.0851 34.2368 11.0851Z" fill="white" fill-opacity="0.5"/>
<path d="M35.9589 15.1702C36.3393 15.1702 36.6477 14.8653 36.6477 14.4893C36.6477 14.1133 36.3393 13.8085 35.9589 13.8085C35.5785 13.8085 35.2701 14.1133 35.2701 14.4893C35.2701 14.8653 35.5785 15.1702 35.9589 15.1702Z" fill="white" fill-opacity="0.5"/>
<path d="M36.5616 19.6808C36.9421 19.6808 37.2505 19.376 37.2505 18.9999C37.2505 18.6239 36.9421 18.3191 36.5616 18.3191C36.1812 18.3191 35.8728 18.6239 35.8728 18.9999C35.8728 19.376 36.1812 19.6808 36.5616 19.6808Z" fill="white" fill-opacity="0.5"/>
</svg>
